<?xml version="1.0" standalone="no"?>
<!DOCTYPE svg PUBLIC "-//W3C//DTD SVG 1.1//EN" "http://www.w3.org/Graphics/SVG/1.1/DTD/svg11.dtd" >
<svg xmlns="http://www.w3.org/2000/svg" xmlns:xlink="http://www.w3.org/1999/xlink" version="1.1">
<metadata>
Created by FontForge 20170731 at Tue Dec 12 17:12:32 2017
 By Aleksey,,,
</metadata>
<defs>
<font id="PoppinsVN-900i" horiz-adv-x="772" >
  <font-face 
    font-family="PoppinsVN 900i"
    font-weight="400"
    font-style="italic"
    font-stretch="normal"
    units-per-em="1000"
    panose-1="0 0 5 0 0 0 0 0 0 0"
    ascent="800"
    descent="-200"
    x-height="564"
    cap-height="708"
    bbox="-408 -346 1356.38 1132"
    underline-thickness="50"
    underline-position="-150"
    slope="-10"
    unicode-range="U+000D-FB02"
  />
<missing-glyph horiz-adv-x="505" 
d="M414 -270h-320v1010h320v-1010zM170 672v-33h65v-37h-66v-34h167v34h-66v37h66v33h-166zM169 542v-105h167v34h-66v71h-101zM235 471h-33v37h33v-37zM169 410v-34h66v-37h-66v-33h101v70h66v34h-167zM303 349v-67h-134v-34h167v101h-33zM235 226v-57h35v24h33v-48h-101
v81h-33v-114h167v114h-101zM169 51v-114h167v114h-167zM303 -30h-101v48h101v-48zM169 -86v-34h70l-70 -47v-33h167v33h-103l71 47h32v34h-167z" />
    <glyph glyph-name=".notdef" horiz-adv-x="505" 
d="M414 -270h-320v1010h320v-1010zM170 672v-33h65v-37h-66v-34h167v34h-66v37h66v33h-166zM169 542v-105h167v34h-66v71h-101zM235 471h-33v37h33v-37zM169 410v-34h66v-37h-66v-33h101v70h66v34h-167zM303 349v-67h-134v-34h167v101h-33zM235 226v-57h35v24h33v-48h-101
v81h-33v-114h167v114h-101zM169 51v-114h167v114h-167zM303 -30h-101v48h101v-48zM169 -86v-34h70l-70 -47v-33h167v33h-103l71 47h32v34h-167z" />
    <glyph glyph-name=".null" horiz-adv-x="0" 
 />
    <glyph glyph-name=".null" horiz-adv-x="0" 
 />
    <glyph glyph-name="nonmarkingreturn" unicode="&#xd;" horiz-adv-x="250" 
 />
    <glyph glyph-name="space" unicode=" " horiz-adv-x="170" 
 />
    <glyph glyph-name="exclam" unicode="!" horiz-adv-x="435" 
d="M417 755l-110 -474h-190l58 474h242zM310 212l-38 -212h-220l38 212h220z" />
    <glyph glyph-name="quotedbl" unicode="&#x22;" horiz-adv-x="490" 
d="M241 803l-55 -235h-148l28 235h175zM466 803l-55 -235h-148l28 235h175z" />
    <glyph glyph-name="numbersign" unicode="#" horiz-adv-x="933" 
d="M774 421l-37 -95h110l-35 -202h-154l-48 -124h-206l48 124h-139l-48 -124h-205l48 124h-141l35 202h185l37 95h-137l36 202h179l46 117h205l-46 -117h139l46 117h206l-46 -117h116l-36 -202h-158zM568 421h-139l-37 -95h139z" />
    <glyph glyph-name="dollar" unicode="$" horiz-adv-x="665" 
d="M410 491q2 23 -4.5 36t-17.5 19l-17 -99q39 -13 85.5 -28t84.5 -40.5t59.5 -65.5t10.5 -104q-8 -45 -33.5 -84t-66.5 -68t-96.5 -46.5t-123.5 -17.5l-14 -80h-51l14 82q-55 5 -100.5 21.5t-76.5 45.5t-45.5 70t-8.5 95h236q-2 -24 5 -38t21 -21l17 99l-84.5 26t-82 39
t-57 66t-8.5 106q9 51 38 90.5t71 66.5t94.5 42t108.5 17l14 80h51l-14 -81q119 -7 180 -64.5t50 -163.5h-239zM296 514q-3 -15 4.5 -26.5t22.5 -20.5l15 84q-38 -5 -42 -37zM373 204q3 16 -7 27t-30 20l-15 -90q20 2 34.5 12.5t17.5 30.5z" />
    <glyph glyph-name="percent" unicode="%" horiz-adv-x="896" 
d="M265 721q38 0 69 -11t51 -33.5t28 -56.5t0 -80q-8 -45 -28 -79t-47.5 -56.5t-62.5 -33.5t-73 -11q-39 0 -70 11t-51.5 33.5t-28 56.5t0.5 79q8 46 27.5 80t47.5 56.5t63 33.5t74 11zM804 711l-499 -711h-212l499 711h212zM198 540q-9 -51 25 -51q37 0 46 51q9 52 -28 52
q-34 0 -43 -52zM696 352q39 0 69.5 -11t50.5 -33.5t27.5 -56.5t-0.5 -80t-27 -80t-47 -56.5t-62.5 -33.5t-73.5 -11q-38 0 -69 11t-51.5 33.5t-28.5 56.5t0 80t28 80t48 56.5t63 33.5t73 11zM628 171q-9 -52 26 -52q17 0 28.5 13t16.5 39q9 52 -26 52q-36 0 -45 -52z" />
    <glyph glyph-name="ampersand" unicode="&#x26;" horiz-adv-x="700" 
d="M417 0l-31 56q-18 -15 -37 -25q-31 -17 -68 -27.5t-81 -10.5q-60 0 -101.5 18.5t-66 49t-32 71.5t0.5 86q14 81 63.5 135.5t115.5 72.5q-3 7 -5.5 13.5t-4.5 14.5q-7 39 0 83q6 34 26 66t52.5 57t77 40t99.5 15q50 0 85.5 -10.5t59 -28t36.5 -41.5t19 -51q5 -29 3 -60
t-9 -60h-206q5 27 5 41q0 27 -22 27q-20 0 -23 -20q-2 -9 1.5 -18t11.5 -26l252 -468h-221zM295 224q4 21 -8.5 33.5t-35.5 12.5t-39.5 -12.5t-20.5 -33.5q-4 -22 8.5 -35t35.5 -13t39.5 13t20.5 35z" />
    <glyph glyph-name="quotesingle" unicode="'" horiz-adv-x="265" 
d="M241 803l-55 -235h-148l28 235h175z" />
    <glyph glyph-name="parenleft" unicode="(" horiz-adv-x="429" 
d="M14 402q17 99 54 186.5t87.5 162.5t112 136t127.5 106h214l-3 -21q-161 -118 -255 -257.5t-124 -312.5t14 -313t163 -258l-3 -20h-214q-51 45 -91 105.5t-64 135.5t-30 163t12 187z" />
    <glyph glyph-name="parenright" unicode=")" horiz-adv-x="432" 
d="M418 403q-18 -99 -54.5 -187t-87 -163t-112 -136t-127.5 -106h-215l3 20q162 118 256 258t124 313t-14 312.5t-164 257.5l3 21h215q51 -45 91 -106t64 -135.5t30 -162t-12 -186.5z" />
    <glyph glyph-name="asterisk" unicode="*" horiz-adv-x="561" 
d="M448 709l45 -121l-117 -36l105 -34l-95 -127l-72 86l7 -117h-139l49 117l-101 -87l-52 129l118 36l-104 32l89 121l77 -83l-10 119h142l-50 -119z" />
    <glyph glyph-name="plus" unicode="+" horiz-adv-x="551" 
d="M513 238h-149l-27 -153h-213l27 153h-149l36 203h149l27 154h213l-27 -154h149z" />
    <glyph glyph-name="comma" unicode="," horiz-adv-x="276" 
d="M226 131q18 -42 19 -101t-21.5 -112t-70.5 -90.5t-126 -37.5l14 78q26 0 42 10.5t23 49.5l2 11h-87l34 192h171z" />
    <glyph glyph-name="hyphen" unicode="-" horiz-adv-x="576" 
d="M557 433l-32 -183h-466l32 183h466z" />
    <glyph glyph-name="period" unicode="." horiz-adv-x="277" 
d="M267 212l-38 -212h-220l38 212h220z" />
    <glyph glyph-name="slash" unicode="/" horiz-adv-x="399" 
d="M544 955l-469 -1153h-213l470 1153h212z" />
    <glyph glyph-name="zero" unicode="0" horiz-adv-x="662" 
d="M32 363q14 77 42.5 142.5t73 113.5t106.5 75t141 27t131 -27t80 -75t34 -113.5t-8 -142.5q-13 -78 -42 -143.5t-74 -113.5t-106.5 -75t-140.5 -27t-131.5 27t-80 75t-33 113.5t7.5 143.5zM413 363q5 29 7.5 56t-2.5 47.5t-19 32.5t-41 12t-45.5 -12t-30.5 -32.5
t-19.5 -47.5t-12.5 -56q-5 -30 -7.5 -57t2.5 -47.5t19.5 -32.5t41.5 -12t45 12t30 32.5t19.5 47.5t12.5 57z" />
    <glyph glyph-name="one" unicode="1" horiz-adv-x="399" 
d="M36 500l36 208h339l-124 -708h-233l88 500h-106z" />
    <glyph glyph-name="two" unicode="2" horiz-adv-x="566" 
d="M4 177q60 40 118.5 81.5t105.5 82t78.5 78.5t37.5 72q5 29 -4 39.5t-23 10.5q-19 0 -31 -16.5t-20 -66.5h-215q12 73 42.5 124t72.5 83.5t92 47t100 14.5q72 0 117 -19.5t69.5 -51t30.5 -71.5t-2 -82q-9 -49 -35.5 -94t-64.5 -85t-84.5 -74t-94.5 -61h229l-31 -179h-517z
" />
    <glyph glyph-name="three" unicode="3" horiz-adv-x="583" 
d="M366 747q61 0 104.5 -16.5t70.5 -45.5t36.5 -68t1.5 -84q-7 -37 -22.5 -63.5t-35 -44.5t-40.5 -29t-38 -16l-1 -4q49 -19 76.5 -67t13.5 -128q-15 -85 -85.5 -136.5t-188.5 -51.5q-129 0 -194.5 63t-50.5 193h216q-9 -35 0 -54t41 -19q17 0 31.5 10.5t17.5 29.5
q6 31 -9 48.5t-61 17.5h-37l32 179h36q7 0 18.5 0.5t23.5 5.5t22 16t14 32q5 27 -5 38t-24 11q-24 0 -34 -20t-14 -42h-216q24 120 101 182.5t200 62.5z" />
    <glyph glyph-name="four" unicode="4" horiz-adv-x="674" 
d="M8 110l33 185l372 425h239l-73 -418h72l-34 -192h-72l-19 -110h-224l19 110h-313zM402 467l-137 -165h108z" />
    <glyph glyph-name="five" unicode="5" horiz-adv-x="600" 
d="M584 536h-290l-15 -84q23 17 55 27t70 10q53 0 89 -19.5t55.5 -52t24.5 -75t-3 -89.5q-21 -121 -100 -187t-197 -66q-66 0 -114.5 17.5t-78.5 48.5t-40 74t0 94h216q-1 -6 -0.5 -13.5t4.5 -14.5t12.5 -11.5t22.5 -4.5q26 0 41 19t20 48q5 30 -6.5 44.5t-35.5 14.5
q-23 0 -35 -10.5t-14 -22.5h-216l79 448h490z" />
    <glyph glyph-name="six" unicode="6" horiz-adv-x="611" 
d="M388 509q0 29 -9 43.5t-34 14.5q-40 0 -58.5 -42.5t-31.5 -115.5q23 27 59 43.5t80 16.5q47 0 83 -15t59 -45t31 -75t-3 -105q-9 -54 -33.5 -98t-60.5 -74.5t-83.5 -47t-103.5 -16.5q-85 0 -138 30t-79 82t-29 122.5t12 152.5q17 96 44.5 164.5t67.5 113t94.5 65.5
t124.5 21q68 0 112 -20t68.5 -53t32 -75.5t2.5 -86.5h-207zM240 245q-6 -32 8 -47t41 -15t45.5 11.5t23.5 37.5q5 32 -9 49.5t-40 17.5t-45 -13.5t-24 -40.5z" />
    <glyph glyph-name="seven" unicode="7" horiz-adv-x="502" 
d="M536 554l-341 -554h-228l339 527h-256l33 190h482z" />
    <glyph glyph-name="eight" unicode="8" horiz-adv-x="626" 
d="M94 563q6 34 28.5 68.5t60 62t90.5 45t121 17.5t115 -19t74 -50t36.5 -68.5t2.5 -75.5q-9 -51 -39 -85t-72 -56q103 -67 78 -202q-9 -53 -37.5 -92.5t-72 -66t-100 -39.5t-121.5 -13q-55 0 -102.5 15.5t-81 46.5t-48.5 77t-4 107q11 57 43.5 97.5t87.5 69.5
q-35 23 -52 62.5t-7 98.5zM306 515q-6 -31 5 -45t30 -14t35 14t22 45q5 29 -5.5 45t-30.5 16t-35.5 -16t-20.5 -45zM238 238q-5 -29 8 -48.5t45 -19.5t52 19.5t25 48.5q5 30 -9 49.5t-44 19.5t-51 -19.5t-26 -49.5z" />
    <glyph glyph-name="nine" unicode="9" horiz-adv-x="567" 
d="M228 228q0 -29 10 -43.5t35 -14.5q41 0 58 42.5t30 115.5q-23 -27 -59 -43.5t-80 -16.5q-46 0 -82.5 15t-60 45t-31 75t2.5 105q9 54 34.5 98t63.5 74.5t87 47t107 16.5q89 0 140.5 -29t75.5 -81t24 -122.5t-15 -154.5q-15 -86 -37 -154t-58 -114.5t-89.5 -71
t-131.5 -24.5q-67 0 -112 21.5t-72 55.5t-38 76t-9 82h207zM376 495q5 31 -8.5 45t-40.5 14t-45.5 -14t-23.5 -45q-5 -28 9 -42.5t40 -14.5t45 14.5t24 42.5z" />
    <glyph glyph-name="colon" unicode=":" horiz-adv-x="332" 
d="M335 603l-37 -212h-220l37 212h220zM266 212l-37 -212h-220l37 212h220z" />
    <glyph glyph-name="semicolon" unicode=";" horiz-adv-x="433" 
d="M383 593l-38 -212h-220l38 212h220zM290 131q18 -42 19 -101t-21.5 -112t-70.5 -90.5t-126 -37.5l14 78q26 0 42 10.5t23 49.5l2 11h-87l34 192h171z" />
    <glyph glyph-name="less" unicode="&#x3c;" horiz-adv-x="497" 
d="M162 125l-142 215l218 216h277l-218 -216l142 -215h-277z" />
    <glyph glyph-name="equal" unicode="=" horiz-adv-x="626" 
d="M648 580l-35 -201h-586l35 201h586zM599 300l-35 -201h-586l35 201h586z" />
    <glyph glyph-name="greater" unicode="&#x3e;" horiz-adv-x="497" 
d="M58 556h277l142 -216l-218 -215h-277l218 215z" />
    <glyph glyph-name="question" unicode="?" horiz-adv-x="538" 
d="M343 773q53 0 95.5 -13t70 -40t38.5 -67.5t1 -95.5q-8 -45 -30 -81t-55 -62.5t-75 -41t-90 -15.5l-13 -71h-208l38 212h84q58 0 92 13t40 45q3 18 -5.5 27.5t-22.5 9.5q-20 0 -31 -13.5t-15 -31.5h-209q6 45 27.5 85.5t58.5 71.5t89.5 49.5t119.5 18.5zM279 212l-37 -212
h-220l37 212h220z" />
    <glyph glyph-name="at" unicode="@" horiz-adv-x="1353" 
d="M861 843q126 0 226 -29.5t164.5 -89t90.5 -149t5 -208.5q-14 -78 -55 -146t-98.5 -118.5t-126 -79.5t-137.5 -29q-75 0 -122.5 30.5t-55.5 96.5q-41 -59 -93.5 -93t-127.5 -34q-51 0 -89 20.5t-59 58t-23 89.5t17 116t57 117t90 91.5t115.5 59.5t132.5 21q55 0 100.5 -14
t74 -43.5t37 -75t-9.5 -108.5l-20 -68q-12 -41 -5 -56t31 -15q19 0 40 9.5t40.5 30.5t35.5 53.5t24 78.5q12 69 -2.5 125t-55.5 95.5t-107.5 61.5t-159.5 22q-117 0 -211 -34t-163.5 -93.5t-113 -139t-59.5 -169.5q-13 -71 -1.5 -132.5t52 -106.5t112.5 -70.5t181 -23.5
l-73 -179q-144 2 -245 39t-161 104t-79.5 160.5t0.5 208.5q27 153 108 268.5t194.5 192.5t250 116t274.5 39zM645 187q12 0 27 3.5t30 14t28.5 29t22.5 48.5t6 48.5t-13 28.5t-23 13.5t-25 3.5t-27.5 -3.5t-30.5 -14t-28.5 -29t-22.5 -48.5t-6 -48t12.5 -28.5t23.5 -14
t26 -3.5z" />
    <glyph glyph-name="A" unicode="A" horiz-adv-x="773" 
d="M461 107h-236l-54 -107h-233l383 708h256l134 -708h-234zM436 274l-29 197l-99 -197h128z" />
    <glyph glyph-name="B" unicode="B" horiz-adv-x="684" 
d="M673 524q-11 -64 -51.5 -105.5t-95.5 -55.5q63 -16 89.5 -62.5t15.5 -106.5q-17 -94 -86.5 -144t-185.5 -50h-371l124 708h361q106 0 161.5 -46t38.5 -138zM439 481q10 51 -50 51h-86l-17 -100h86q58 0 67 49zM410 227q9 51 -50 51h-101l-18 -100h101q30 0 46.5 11.5
t21.5 37.5z" />
    <glyph glyph-name="C" unicode="C" horiz-adv-x="753" 
d="M443 715q70 0 125 -20t92.5 -57t57 -88t19.5 -114h-234q-9 35 -35.5 54.5t-64.5 19.5q-57 0 -96 -42t-52 -113t12 -113t82 -42q38 0 70.5 19.5t55.5 54.5h234q-22 -63 -60 -114t-88 -88t-112 -57t-132 -20q-81 0 -141.5 26.5t-97.5 74.5t-49.5 114t1.5 145t49.5 145
t89.5 114t123.5 74.5t150.5 26.5z" />
    <glyph glyph-name="D" unicode="D" horiz-adv-x="743" 
d="M713 356q-13 -76 -50 -141t-93.5 -113t-129 -75t-157.5 -27h-295l124 708h295q85 0 148.5 -26.5t103 -73t54 -111t0.5 -141.5zM297 198q74 0 125.5 40t65.5 118t-23.5 118t-111.5 40h-53l-56 -316h53z" />
    <glyph glyph-name="E" unicode="E" horiz-adv-x="556" 
d="M303 532l-15 -88h220l-30 -167h-220l-17 -100h250l-31 -177h-472l124 708h472l-31 -176h-250z" />
    <glyph glyph-name="F" unicode="F" horiz-adv-x="575" 
d="M612 708l-31 -176h-278l-17 -98h200l-29 -167h-200l-47 -267h-222l124 708h500z" />
    <glyph glyph-name="G" unicode="G" horiz-adv-x="752" 
d="M451 715q71 0 123.5 -19t88.5 -52.5t54.5 -79t20.5 -98.5h-234q-9 20 -30.5 32t-56.5 12q-65 0 -107 -42t-55 -113q-14 -83 17 -124t113 -41q38 0 71 14.5t64 47.5h-177l28 157h361l-39 -222q-24 -39 -57.5 -74t-77.5 -61.5t-101.5 -41.5t-129.5 -15q-84 0 -146 27.5
t-100.5 76.5t-51.5 117t1 149q14 77 50 141t91 110.5t126 72.5t154 26z" />
    <glyph glyph-name="H" unicode="H" horiz-adv-x="755" 
d="M767 708l-124 -708h-222l48 276h-211l-48 -276h-222l124 708h222l-45 -255h211l45 255h222z" />
    <glyph glyph-name="I" unicode="I" horiz-adv-x="322" 
d="M334 708l-124 -708h-222l124 708h222z" />
    <glyph glyph-name="J" unicode="J" horiz-adv-x="590" 
d="M607 708l-81 -457q-22 -130 -101.5 -194t-196.5 -64q-62 0 -111 17.5t-80 52t-42 86.5t1 122h219q-8 -47 4 -62.5t34 -15.5q18 0 32 11.5t20 46.5l81 457h221z" />
    <glyph glyph-name="K" unicode="K" horiz-adv-x="755" 
d="M485 364l198 -364h-267l-152 307l-54 -307h-222l124 708h222l-52 -299l260 299h265z" />
    <glyph glyph-name="L" unicode="L" horiz-adv-x="506" 
d="M239 168h214l-29 -168h-436l124 708h222z" />
    <glyph glyph-name="M" unicode="M" horiz-adv-x="951" 
d="M963 708l-124 -708h-221l62 354l-171 -354h-190l-47 353l-62 -353h-222l124 708h272l82 -424l226 424h271z" />
    <glyph glyph-name="N" unicode="N" horiz-adv-x="779" 
d="M667 0h-222l-173 356l-62 -356h-222l124 708h222l172 -362l63 362h222z" />
    <glyph glyph-name="O" unicode="O" 
d="M421 720q89 0 155.5 -30t108 -83t56.5 -127t-1 -163q-12 -71 -45 -130.5t-82.5 -102.5t-115.5 -67t-144 -24q-92 0 -159.5 30t-108.5 83.5t-55 128t2 162.5q13 71 45.5 130.5t83 102.5t116 66.5t144.5 23.5zM405 515q-64 0 -104.5 -40t-52.5 -108q-13 -75 16.5 -121
t104.5 -46q63 0 104 40.5t52 106.5q14 77 -16.5 122.5t-103.5 45.5z" />
    <glyph glyph-name="P" unicode="P" horiz-adv-x="649" 
d="M249 225l-39 -225h-222l124 708h310q67 0 114 -18t75.5 -50t37.5 -76.5t0 -98.5q-9 -49 -34 -92.5t-64.5 -76.5t-93 -52t-120.5 -19h-88zM343 400q38 0 57 18t24 47t-7.5 47t-50.5 18h-63l-23 -130h63z" />
    <glyph glyph-name="Q" unicode="Q" 
d="M740 317q-15 -85 -58 -153t-110 -111l95 -168h-262l-46 108h-6q-92 0 -159.5 30t-108.5 83.5t-55 128t2 162.5q13 71 45.5 130.5t83 102.5t116 66.5t144.5 23.5q89 0 155.5 -30t108 -83t56.5 -127t-1 -163zM248 367q-13 -75 16.5 -121t104.5 -46q63 0 104 40.5t52 106.5
q14 77 -16.5 122.5t-103.5 45.5q-64 0 -104.5 -40t-52.5 -108z" />
    <glyph glyph-name="R" unicode="R" horiz-adv-x="670" 
d="M442 708q67 0 114 -18t75.5 -49.5t38 -73.5t1.5 -91q-13 -70 -61 -125t-129 -80l107 -271h-244l-90 254l-44 -254h-222l124 708h330zM280 402h88q32 0 51 14t24 46q5 27 -8 43.5t-45 16.5h-88z" />
    <glyph glyph-name="S" unicode="S" horiz-adv-x="621" 
d="M569 179q-7 -39 -29.5 -73t-59 -59t-86 -39.5t-109.5 -14.5q-131 0 -203.5 61t-74.5 173h236q-2 -19 1.5 -31t10.5 -19t15.5 -9t16.5 -2q17 0 29 8.5t15 26.5q5 27 -17 44t-57 32.5t-75.5 33.5t-73 47t-49.5 73.5t-5 112.5q8 44 33.5 76.5t63 55t84.5 33.5t98 11
q71 0 122 -16t84.5 -46t50 -72t17.5 -95h-239q3 34 -8.5 45t-27.5 11q-14 0 -24.5 -8t-13.5 -26q-4 -25 18 -40.5t56.5 -30t74.5 -32t72.5 -46.5t49 -73t4.5 -112z" />
    <glyph glyph-name="T" unicode="T" horiz-adv-x="616" 
d="M668 708l-31 -176h-188l-93 -532h-222l93 532h-186l31 176h596z" />
    <glyph glyph-name="U" unicode="U" horiz-adv-x="719" 
d="M330 708l-70 -399q-8 -46 6.5 -76t65.5 -30t78 30t35 76l70 399h221l-70 -399q-14 -78 -49.5 -137.5t-86 -99t-112.5 -59.5t-128 -20t-119 20t-87 59.5t-46.5 99t1.5 137.5l70 399h221z" />
    <glyph glyph-name="V" unicode="V" horiz-adv-x="763" 
d="M298 708l61 -487l230 487h236l-362 -708h-287l-114 708h236z" />
    <glyph glyph-name="W" unicode="W" horiz-adv-x="1100" 
d="M1132 708l-286 -708h-276l-12 402l-152 -402h-276l-38 708h239l-14 -446l174 446h242l17 -446l143 446h239z" />
    <glyph glyph-name="X" unicode="X" horiz-adv-x="764" 
d="M516 350l186 -350h-263l-98 184l-140 -184h-253l297 365l-183 343h263l94 -177l135 177h253z" />
    <glyph glyph-name="Y" unicode="Y" horiz-adv-x="730" 
d="M792 708l-341 -493l-37 -215h-222l37 215l-167 493h254l69 -251l157 251h250z" />
    <glyph glyph-name="Z" unicode="Z" horiz-adv-x="630" 
d="M265 177h284l-31 -177h-530l29 167l344 365h-280l31 176h530l-29 -167z" />
    <glyph glyph-name="bracketleft" unicode="[" horiz-adv-x="533" 
d="M579 955l-32 -178h-174l-140 -798h174l-32 -178h-382l204 1154h382z" />
    <glyph glyph-name="backslash" unicode="\" horiz-adv-x="878" 
d="M338 -198l-36 1153h212l36 -1153h-212z" />
    <glyph glyph-name="bracketright" unicode="]" horiz-adv-x="530" 
d="M-48 -199l32 178h175l140 798h-175l32 178h382l-204 -1154h-382z" />
    <glyph glyph-name="asciicircum" unicode="^" horiz-adv-x="758" 
d="M197 162h-220l342 549h218l148 -549h-220l-81 298z" />
    <glyph glyph-name="underscore" unicode="_" horiz-adv-x="734" 
d="M683 -42l-38 -216h-675l38 216h675z" />
    <glyph glyph-name="grave" unicode="`" horiz-adv-x="324" 
d="M328 684l-41 -82l-180 68l48 112z" />
    <glyph glyph-name="a" unicode="a" horiz-adv-x="683" 
d="M297 571q60 0 98.5 -23t52.5 -61l14 77h221l-100 -564h-221l14 77q-27 -38 -70.5 -61t-100.5 -23q-52 0 -92 21t-64 61t-31.5 97t5.5 130q11 64 38 114t63.5 84.5t81 52.5t91.5 18zM347 377q-35 0 -63 -24t-36 -71t11 -71t54 -24t63 24t36 71t-11 71t-54 24z" />
    <glyph glyph-name="b" unicode="b" horiz-adv-x="682" 
d="M0 0l131 740h222l-45 -253q27 38 70 61t100 23q49 0 88 -19.5t64 -56.5t33.5 -91t-3.5 -122t-39.5 -122t-65.5 -91t-84 -56.5t-95 -19.5q-57 0 -91.5 23t-48.5 61l-14 -77h-222zM336 187q35 0 63 24t36 71t-11 71t-54 24t-63 -24t-36 -71t11 -71t54 -24z" />
    <glyph glyph-name="c" unicode="c" horiz-adv-x="616" 
d="M351 571q57 0 103 -15.5t78.5 -45.5t50.5 -73.5t18 -99.5h-235q-3 20 -13 32t-31 12q-26 0 -46 -24t-29 -75t3 -75t38 -24q21 0 35 12t23 32h235q-20 -55 -52.5 -98.5t-74 -73.5t-91.5 -46t-104 -16q-63 0 -113 21.5t-81.5 61t-43.5 97t1 129.5q11 63 41 113t73.5 84.5
t98.5 53t116 18.5z" />
    <glyph glyph-name="d" unicode="d" horiz-adv-x="676" 
d="M713 740l-131 -740h-222l14 77q-27 -38 -70 -61t-100 -23q-49 0 -88 21t-64.5 61t-34 97t4.5 130q11 64 38 114t63.5 84.5t81 52.5t91.5 18q60 0 98 -23t52 -61l45 253h222zM346 377q-35 0 -63 -24t-36 -71t11 -71t54 -24t63 24t36 71t-11 71t-54 24z" />
    <glyph glyph-name="e" unicode="e" horiz-adv-x="617" 
d="M358 571q63 0 112.5 -19.5t81.5 -56t44 -89.5t0 -119q-2 -11 -5 -22t-8 -22h-354q-5 -45 9.5 -59t37.5 -14q22 0 36 10t22 23h235q-17 -45 -46.5 -83.5t-70 -66.5t-90 -44t-106.5 -16q-63 0 -112 20.5t-80.5 59.5t-43 94.5t0.5 125.5q12 65 42.5 116.5t75 87.5t100.5 55
t119 19zM379 334q6 34 -10.5 48.5t-41.5 14.5q-60 0 -81 -63h133z" />
    <glyph glyph-name="f" unicode="f" horiz-adv-x="385" 
d="M411 604q-37 5 -57.5 -4t-30.5 -36h81l-32 -185h-83l-67 -379h-222l66 379h-59l32 185h60q23 121 113.5 181.5t232.5 47.5z" />
    <glyph glyph-name="g" unicode="g" horiz-adv-x="679" 
d="M205 -7q-49 0 -88 21t-64.5 61t-34 97t4.5 130q11 64 38 114t63.5 84.5t81 52.5t91.5 18q60 0 98.5 -23t52.5 -61l14 77h221l-98 -554q-10 -56 -33.5 -108t-63.5 -91.5t-97.5 -63.5t-134.5 -24q-136 0 -205 64.5t-69 171.5h218q2 -44 64 -44q17 0 32.5 3.5t29 14t23.5 29
t15 48.5l12 67q-27 -38 -70.5 -61t-100.5 -23zM347 377q-35 0 -63 -24t-36 -71t11 -71t54 -24t63 24t36 71t-11 71t-54 24z" />
    <glyph glyph-name="h" unicode="h" horiz-adv-x="696" 
d="M495 568q49 0 84 -17t56 -48.5t27 -76t-4 -99.5l-57 -327h-221l52 299q8 41 -9.5 64t-53.5 23q-35 0 -59 -20.5t-34 -55.5l-54 -310h-222l130 740h222l-46 -261q31 36 78.5 62.5t110.5 26.5z" />
    <glyph glyph-name="i" unicode="i" horiz-adv-x="320" 
d="M110 718q8 47 48 79t100 32q59 0 87 -32t20 -79q-8 -46 -47.5 -77.5t-98.5 -31.5q-60 0 -88.5 31.5t-20.5 77.5zM321 564l-99 -564h-222l99 564h222z" />
    <glyph glyph-name="j" unicode="j" horiz-adv-x="320" 
d="M225 609q-60 0 -88.5 31.5t-20.5 77.5q8 47 48 79t100 32q59 0 87 -32t20 -79q-8 -46 -47.5 -77.5t-98.5 -31.5zM-94 -81h43q41 0 48 38l107 607h222l-107 -603q-11 -66 -36.5 -110t-61.5 -71t-80.5 -38.5t-93.5 -11.5h-74z" />
    <glyph glyph-name="k" unicode="k" horiz-adv-x="676" 
d="M458 288l157 -288h-254l-98 233l-41 -233h-222l130 740h222l-67 -380l177 204h258z" />
    <glyph glyph-name="l" unicode="l" horiz-adv-x="317" 
d="M352 740l-130 -740h-222l130 740h222z" />
    <glyph glyph-name="m" unicode="m" horiz-adv-x="1076" 
d="M853 568q110 0 157 -65.5t28 -175.5l-58 -327h-221l53 299q6 36 -12 56.5t-54 20.5t-60 -19t-31 -54l-54 -303h-221l53 299q6 36 -12 56.5t-54 20.5q-37 0 -61.5 -20.5t-30.5 -56.5v5l-53 -304h-222l99 564h222l-13 -77q28 34 72.5 57.5t104.5 23.5q62 0 104 -26.5
t61 -75.5q36 42 88 72t115 30z" />
    <glyph glyph-name="n" unicode="n" horiz-adv-x="697" 
d="M495 568q49 0 84 -17t56 -48.5t27 -76t-3 -99.5l-58 -327h-221l53 299q7 41 -10.5 64t-53.5 23q-37 0 -62 -23t-32 -64v5l-53 -304h-222l99 564h222l-15 -86q31 37 78 63.5t111 26.5z" />
    <glyph glyph-name="o" unicode="o" horiz-adv-x="638" 
d="M364 571q65 0 117.5 -21.5t87 -61t48 -97t0.5 -129.5q-11 -63 -42.5 -113t-76.5 -84.5t-101.5 -53t-118.5 -18.5q-66 0 -119.5 21.5t-88 61t-48.5 97t-1 129.5q11 63 42.5 113t77.5 84.5t103 53t120 18.5zM336 379q-29 0 -55 -23t-35 -74t8.5 -74t47.5 -23q29 0 55 23
t35 74t-9 74t-47 23z" />
    <glyph glyph-name="p" unicode="p" horiz-adv-x="681" 
d="M477 571q49 0 88 -19.5t64 -56.5t33.5 -91t-3.5 -122t-39.5 -122t-65.5 -91t-84 -56.5t-95 -19.5q-57 0 -91.5 23t-48.5 61l-61 -347h-222l147 834h222l-14 -77q27 38 70 61t100 23zM335 187q35 0 63 24t36 71t-11 71t-54 24t-63 -24t-36 -71t11 -71t54 -24z" />
    <glyph glyph-name="q" unicode="q" horiz-adv-x="675" 
d="M682 564l-147 -834h-221l59 332q-36 -35 -72 -51.5t-80 -16.5q-57 0 -100 22t-68.5 62t-34 96t3.5 124q11 67 39.5 117.5t68 84.5t87 51t95.5 17q47 0 82 -11.5t58 -42.5l9 50h221zM346 376q-12 0 -27.5 -5t-30 -17t-25.5 -30.5t-16 -45.5t0 -44.5t15.5 -28t24.5 -14.5
t26 -4t27.5 4.5t29.5 16t25.5 29.5t15.5 45q5 27 0 45t-15.5 29t-24 15.5t-25.5 4.5z" />
    <glyph glyph-name="r" unicode="r" horiz-adv-x="467" 
d="M303 460q42 48 95.5 78t108.5 30l-42 -237h-63q-60 0 -94.5 -21t-44.5 -79l-41 -231h-222l99 564h222z" />
    <glyph glyph-name="s" unicode="s" horiz-adv-x="579" 
d="M298 571q66 0 114.5 -15.5t81 -42.5t50.5 -64t23 -80h-217q-3 28 -24 38t-47 10q-17 0 -29 -4t-14 -16q-3 -16 21.5 -25t61.5 -18t80 -21.5t77 -35.5t53 -59.5t8 -94.5q-6 -31 -25 -58.5t-51.5 -48t-78 -32t-105.5 -11.5q-58 0 -106.5 13t-84 38.5t-57 63.5t-24.5 87h217
q-1 -15 5 -24.5t16.5 -15t24 -7.5t27.5 -2q23 0 32 6t11 16q4 17 -20 26t-60.5 17.5t-78.5 20t-76 33.5t-53 59t-8 95q5 31 23.5 58.5t50 48.5t77 33t105.5 12z" />
    <glyph glyph-name="t" unicode="t" horiz-adv-x="436" 
d="M285 227q-6 -38 35 -38h53l-34 -189h-84q-49 0 -89.5 11.5t-67 38.5t-36.5 71t2 110l26 148h-70l33 185h70l24 136h222l-24 -136h92l-33 -185h-92z" />
    <glyph glyph-name="u" unicode="u" horiz-adv-x="687" 
d="M687 564l-99 -564h-222l15 86q-31 -37 -78 -63.5t-111 -26.5q-49 0 -84 17t-56 48.5t-27 76t3 99.5l58 327h221l-53 -299q-7 -41 10.5 -64t53.5 -23q37 0 62 23t32 64v-5l53 304h222z" />
    <glyph glyph-name="v" unicode="v" horiz-adv-x="641" 
d="M293 211l153 353h236l-288 -564h-277l-88 564h236z" />
    <glyph glyph-name="w" unicode="w" horiz-adv-x="883" 
d="M936 564l-234 -564h-250l-12 318l-128 -318h-250l-33 564h220l-13 -343l133 343h237l16 -347l109 347h205z" />
    <glyph glyph-name="x" unicode="x" horiz-adv-x="648" 
d="M442 274l156 -274h-248l-72 127l-94 -127h-244l242 297l-152 267h248l72 -128l95 128h244z" />
    <glyph glyph-name="y" unicode="y" horiz-adv-x="667" 
d="M271 564l55 -286l150 286h245l-509 -834h-243l195 298l-140 536h247z" />
    <glyph glyph-name="z" unicode="z" horiz-adv-x="518" 
d="M246 184h235l-33 -184h-478l31 174l251 206h-212l33 184h465l-31 -174z" />
    <glyph glyph-name="braceleft" unicode="{" horiz-adv-x="513" 
d="M247 371q52 -10 73.5 -40t10.5 -89q-8 -49 -24 -94t-25 -96q-10 -55 -6 -97t17.5 -73t35.5 -51.5t49 -31.5l-3 -16h-227q-13 6 -33 23.5t-36.5 49.5t-24 81t4.5 118q5 27 12 51t14 47l14 46t11 49q3 17 0.5 33t-11.5 28t-25.5 19.5t-42.5 7.5l12 72q27 0 47 7.5t33 19.5
t20.5 28t10.5 33q5 26 6 49l2 46t2.5 47t6.5 51q12 69 37 118t52.5 81t54 49.5t41.5 23.5h227l-3 -16q-31 -11 -60 -31.5t-54 -51.5t-43.5 -73t-28.5 -97q-8 -51 -8.5 -96t-8.5 -94q-11 -59 -42 -88.5t-88 -40.5v-2z" />
    <glyph glyph-name="bar" unicode="|" horiz-adv-x="262" 
d="M156 -144h-222l172 972h222z" />
    <glyph glyph-name="braceright" unicode="}" horiz-adv-x="489" 
d="M268 373q-53 11 -74.5 35t-13.5 74q9 49 25 94t25 96t6 96t-16 80.5t-34.5 60.5t-48.5 36l3 16h226q13 -6 33.5 -23.5t37 -49.5t23.5 -81t-5 -118q-5 -27 -12 -51t-14 -47t-13.5 -46t-11.5 -49q-3 -17 -0.5 -34t11.5 -29.5t25.5 -20t42.5 -4.5l-12 -72q-25 3 -44.5 -4
t-33 -20t-22 -30t-11.5 -34q-4 -26 -5.5 -49t-2.5 -46t-2.5 -47t-6.5 -51q-12 -69 -37 -118t-52.5 -81t-54 -49.5t-41.5 -23.5h-226l3 16q31 11 61 36t55.5 60.5t44.5 80.5t28 96t9 96t9 94q8 50 39.5 74.5t86.5 34.5v2z" />
    <glyph glyph-name="asciitilde" unicode="~" horiz-adv-x="711" 
d="M278 445q36 0 63.5 -10.5t50.5 -23t43 -23t42 -10.5q27 0 43.5 15.5t27.5 53.5h166q-23 -70 -54 -120.5t-67 -82t-76.5 -46.5t-84.5 -15q-36 0 -63.5 10.5t-50 23t-43 23t-42.5 10.5q-27 0 -43.5 -16t-28.5 -53h-164q47 141 120.5 202.5t160.5 61.5z" />
    <glyph glyph-name="exclamdown" unicode="&#xa1;" horiz-adv-x="463" 
d="M135 359l40 212h233l-40 -212h-233zM22 -184l116 474h201l-61 -474h-256z" />
    <glyph glyph-name="cent" unicode="&#xa2;" horiz-adv-x="579" 
d="M316 337q-35 0 -56 -22.5t-28 -61.5t6 -61t48 -22q15 0 34.5 8t27.5 27h203q-11 -47 -36 -83.5t-58.5 -62.5t-74 -42t-83.5 -22l-14 -78h-91l14 77q-105 12 -156.5 78t-31.5 182q20 115 95 180.5t184 76.5l13 78h91l-13 -78q41 -5 75.5 -21t59 -42t36.5 -62.5t7 -83.5
h-203q-5 20 -19.5 27.5t-29.5 7.5z" />
    <glyph glyph-name="sterling" unicode="&#xa3;" horiz-adv-x="659" 
d="M455 531q2 26 -7.5 43t-36.5 17q-29 0 -44 -18.5t-20 -50.5q-4 -20 -1.5 -46t5.5 -55h168l-26 -147h-151q-9 -26 -28 -56t-52 -53h335l-31 -171h-552l-8 104q52 35 83 76t46 100h-103l26 147h77q-2 29 -1.5 60.5t6.5 66.5q9 53 35.5 94.5t65.5 70t88.5 43.5t105.5 15
q64 0 109.5 -18t73 -50t37.5 -76t4 -96h-204z" />
    <glyph glyph-name="currency" unicode="&#xa4;" horiz-adv-x="603" 
d="M512 491q15 -22 20.5 -50t-0.5 -62q-12 -65 -58 -111l41 -49l-95 -81l-55 68q-42 -13 -94 -13q-51 0 -93 14l-81 -69l-65 81l61 52q-27 44 -17 108q12 65 56 109l-44 53l95 81l60 -73q44 12 93 12q24 0 45 -3t41 -8l84 72l65 -81zM245 377q-5 -32 10 -44.5t38 -12.5
t43 12.5t25 44.5q6 33 -9 46t-38 13t-43 -13t-26 -46z" />
    <glyph glyph-name="yen" unicode="&#xa5;" horiz-adv-x="730" 
d="M615 452h77l-25 -144h-152l-25 -36h171l-26 -144h-199l-22 -128h-222l22 128h-201l26 144h171l-13 36h-152l25 144h79l-87 256h254l63 -284l163 284h250z" />
    <glyph glyph-name="brokenbar" unicode="&#xa6;" horiz-adv-x="432" 
d="M191 828h222l-76 -430h-222zM241 -144h-222l76 431h222z" />
    <glyph glyph-name="section" unicode="&#xa7;" horiz-adv-x="595" 
d="M370 513q5 34 -0.5 44t-13.5 10q-16 0 -20 -24q-3 -14 2.5 -26t20.5 -25t41 -28.5t64 -36.5q59 -35 90 -80.5t21 -102.5q-8 -44 -34.5 -79.5t-87.5 -63.5q25 -34 32 -71t0 -74q-7 -42 -29.5 -77t-58 -60.5t-83.5 -39.5t-107 -14q-56 0 -96 16t-65 44t-34.5 66.5
t-5.5 83.5h219q-5 -34 0.5 -44t13.5 -10q16 0 20 24q3 14 -2.5 26t-21 25t-41 29t-63.5 37q-60 34 -90 79.5t-20 102.5q8 43 34.5 82t86.5 62q-25 33 -32 70.5t0 73.5q8 42 30 77t57.5 60.5t83.5 39.5t107 14q56 0 96 -16t65 -44t35 -66.5t5 -83.5h-219zM339 244
q4 23 -2.5 39t-26.5 16t-33.5 -15.5t-18.5 -39.5q-4 -23 3 -39t26 -16q20 0 34 16t18 39z" />
    <glyph glyph-name="dieresis" unicode="&#xa8;" horiz-adv-x="417" 
d="M70 705q7 38 35.5 62.5t64.5 24.5q38 0 58.5 -24.5t13.5 -62.5q-7 -36 -35.5 -60.5t-66.5 -24.5q-36 0 -56.5 24.5t-13.5 60.5zM295 705q7 38 35.5 62.5t64.5 24.5q38 0 58.5 -24.5t13.5 -62.5q-7 -36 -35.5 -60.5t-66.5 -24.5q-36 0 -56.5 24.5t-13.5 60.5z" />
    <glyph glyph-name="copyright" unicode="&#xa9;" horiz-adv-x="771" 
d="M450 720q79 0 140 -26.5t99 -74.5t52 -114.5t0 -146.5t-51.5 -147t-93 -115t-125.5 -75t-149 -27t-140 27t-99 75t-52.5 115t-0.5 147t52 146.5t93.5 114.5t125.5 74.5t149 26.5zM439 655q-66 0 -123 -21t-101 -59.5t-73.5 -93.5t-41.5 -123q-12 -67 -2 -122.5t40 -94.5
t79.5 -60.5t115.5 -21.5t122.5 21.5t101 60.5t74 94.5t41.5 122.5q12 68 2 123t-40.5 93.5t-79.5 59.5t-115 21zM429 578q-51 0 -95 -15.5t-79 -44t-58.5 -69.5t-32.5 -92t0 -92t34 -69.5t63.5 -44t89.5 -15.5q40 0 78 12.5t70.5 36t57.5 56.5t38 75h-184q-6 -13 -16.5 -24
t-27.5 -11q-21 0 -30 18.5t-2 57.5t22 57.5t36 18.5q17 0 23.5 -11t8.5 -24h184q2 42 -11 75t-37 56.5t-58 36t-74 12.5z" />
    <glyph glyph-name="ordfeminine" unicode="&#xaa;" horiz-adv-x="461" 
d="M216 712q42 0 65.5 -13.5t37.5 -40.5l9 50h164l-62 -353h-164l9 49q-24 -27 -51.5 -40.5t-69.5 -13.5q-35 0 -63 11.5t-46.5 34t-25.5 56.5t1 78t26.5 78t45 57t58.5 35t66 12zM252 582q-22 0 -40 -13.5t-23 -39.5t9 -37t36 -11t40 12.5t23 38.5q5 25 -9 37.5t-36 12.5z
" />
    <glyph glyph-name="guillemotleft" unicode="&#xab;" horiz-adv-x="618" 
d="M91 120l-46 175l108 175h201l-110 -175l48 -175h-201zM346 120l-46 175l108 175h201l-110 -175l48 -175h-201z" />
    <glyph glyph-name="logicalnot" unicode="&#xac;" horiz-adv-x="794" 
d="M755 448l-52 -293h-222l23 127h-486l29 166h708z" />
    <glyph glyph-name="registered" unicode="&#xae;" horiz-adv-x="819" 
d="M474 720q85 0 150 -26.5t106.5 -74.5t57 -114.5t1.5 -146.5t-53 -147t-97.5 -115t-133 -75t-159.5 -27t-150 27t-106.5 75t-57.5 115t-2 147t53.5 146.5t98 114.5t133 74.5t159.5 26.5zM720 358q12 68 0 123t-45 93.5t-86.5 59.5t-125.5 21t-133 -21t-108.5 -59.5
t-78.5 -93.5t-43 -123q-12 -67 -0.5 -122.5t45 -94.5t87 -60.5t125.5 -21.5t133 21.5t108 60.5t78.5 94.5t43.5 122.5zM475 571q44 0 72 -11.5t43.5 -30.5t20 -42.5t-0.5 -47.5q-6 -36 -31 -69.5t-73 -50.5l63 -166h-146l-49 138l-24 -138h-135l74 418h186zM392 390h37
q20 0 29 8t11 21q2 12 -4 21t-26 9h-37z" />
    <glyph glyph-name="macron" unicode="&#xaf;" horiz-adv-x="451" 
d="M514 769l-26 -147h-431l26 147h431z" />
    <glyph glyph-name="degree" unicode="&#xb0;" horiz-adv-x="496" 
d="M281 715q51 0 90 -12.5t64.5 -35.5t35.5 -57t2 -77q-15 -86 -82.5 -136t-169.5 -50q-51 0 -91 13t-66 37t-37 58.5t-4 77.5q8 43 30 77t56 57t77.5 35.5t94.5 12.5zM262 600q-20 0 -41.5 -15.5t-28.5 -53.5q-3 -18 0.5 -31t11 -21t17.5 -11.5t20 -3.5q18 0 37 15t26 52
q7 38 -8.5 53.5t-33.5 15.5z" />
    <glyph glyph-name="plusminus" unicode="&#xb1;" horiz-adv-x="551" 
d="M389 344l-8 -47h148l-35 -201h-511l35 201h150l8 47h-149l35 201h149l15 85h213l-15 -85h149l-35 -201h-149z" />
    <glyph glyph-name="uni00B2" unicode="&#xb2;" horiz-adv-x="422" 
d="M275 717q45 0 73.5 -10t45 -25.5t21 -35t1.5 -37.5q-6 -36 -43.5 -62.5t-116.5 -54.5l-43 -15h170l-22 -125h-345l21 122l148 70q27 13 40.5 26t15.5 25q0 8 -8 8q-17 0 -24 -34h-163q17 65 77 106.5t152 41.5z" />
    <glyph glyph-name="uni00B3" unicode="&#xb3;" horiz-adv-x="403" 
d="M241 717q81 0 119 -29t30 -77q-12 -62 -88 -74l-1 -4q45 -11 60 -30.5t10 -50.5q-9 -51 -60 -77t-130 -26q-56 0 -91.5 9.5t-55.5 27t-26.5 42t-3.5 54.5h172q-2 -12 0.5 -16t9.5 -4q5 0 10 4t7 17q3 14 -2.5 19.5t-19.5 5.5h-30l9 54h21q14 0 21 6t10 20q2 17 -9 17
q-15 0 -19 -28h-156q5 26 18 51t38.5 44.5t64 32t92.5 12.5z" />
    <glyph glyph-name="acute" unicode="&#xb4;" horiz-adv-x="279" 
d="M322 670l-207 -59l-20 76l192 93z" />
    <glyph glyph-name="uni00B5" unicode="&#xb5;" horiz-adv-x="701" 
d="M700 564l-100 -564h-222l14 77q-28 -32 -71.5 -55.5t-100.5 -25.5l-48 -266h-221l148 834h221l-53 -298q-6 -36 11.5 -57t53.5 -21q37 0 62 21t31 57v-2l53 300h222z" />
    <glyph glyph-name="paragraph" unicode="&#xb6;" horiz-adv-x="778" 
d="M641 0h-177l95 542h-58l-95 -542h-176l46 265h-31q-64 0 -106 19t-65.5 50.5t-29.5 71t1 80.5t27 80.5t54 71t83 51t114 19.5h442z" />
    <glyph glyph-name="periodcentered" unicode="&#xb7;" horiz-adv-x="306" 
d="M281 407l-38 -212h-220l38 212h220z" />
    <glyph glyph-name="cedilla" unicode="&#xb8;" horiz-adv-x="343" 
d="M222 -27q18 0 39.5 -5.5t39 -19.5t26.5 -37.5t3 -59.5t-24.5 -59.5t-43 -37.5t-52 -19.5t-52.5 -5.5h-173l20 113h150q26 0 29 16q3 15 -23 15h-85l24 134h128z" />
    <glyph glyph-name="uni00B9" unicode="&#xb9;" horiz-adv-x="285" 
d="M29 577l22 127h230l-62 -352h-164l40 225h-66z" />
    <glyph glyph-name="ordmasculine" unicode="&#xba;" horiz-adv-x="450" 
d="M267 709q50 0 87.5 -13.5t61 -37.5t32.5 -57t2 -72q-7 -38 -27.5 -71.5t-52.5 -58t-74.5 -38.5t-92.5 -14t-87.5 14t-61 38.5t-32.5 58t-2 71.5q7 39 27.5 72t52.5 57t74.5 37.5t92.5 13.5zM245 584q-20 0 -36.5 -13t-21.5 -42t6.5 -42.5t31.5 -13.5t36.5 13.5t21.5 42.5
t-6.5 42t-31.5 13z" />
    <glyph glyph-name="guillemotright" unicode="&#xbb;" horiz-adv-x="618" 
d="M130 295l-49 175h202l45 -175l-107 -175h-202zM385 295l-49 175h202l45 -175l-107 -175h-202z" />
    <glyph glyph-name="onequarter" unicode="&#xbc;" horiz-adv-x="899" 
d="M766 708l-512 -708h-217l513 708h216zM11 577l22 127h230l-62 -352h-164l40 225h-66zM824 58h-35l-10 -58h-165l10 58h-203l15 84l178 209h227l-36 -205h35zM667 250l-76 -99h59z" />
    <glyph glyph-name="onehalf" unicode="&#xbd;" horiz-adv-x="928" 
d="M785 711l-523 -711h-217l524 711h216zM107 577h-66l22 127h230l-62 -352h-164zM734 364q45 0 73.5 -10t45 -25.5t21 -35t1.5 -37.5q-6 -36 -43.5 -62.5t-116.5 -54.5l-43 -15h170l-22 -125h-345l21 122l148 70q27 13 40.5 26t15.5 25q0 8 -8 8q-17 0 -24 -34h-163
q17 65 77 106.5t152 41.5z" />
    <glyph glyph-name="threequarters" unicode="&#xbe;" horiz-adv-x="1024" 
d="M271 717q81 0 119 -29t30 -77q-12 -62 -88 -74l-1 -4q45 -11 60 -30.5t10 -50.5q-9 -51 -60 -77t-130 -26q-56 0 -91.5 9.5t-55.5 27t-26.5 42t-3.5 54.5h172q-2 -12 0.5 -16t9.5 -4q5 0 10 4t7 17q3 14 -2.5 19.5t-19.5 5.5h-30l9 54h21q14 0 21 6t10 20q2 17 -9 17
q-15 0 -19 -28h-156q5 26 18 51t38.5 44.5t64 32t92.5 12.5zM879 711l-495 -711h-216l494 711h217zM956 58h-35l-10 -58h-164l10 58h-204l15 84l158 209h247l-36 -205h35zM803 270l-80 -124h59z" />
    <glyph glyph-name="questiondown" unicode="&#xbf;" horiz-adv-x="539" 
d="M263 361l37 212h220l-37 -212h-220zM199 -200q-53 0 -95.5 13t-70 40t-38.5 67.5t-1 95.5q8 45 30 81t55 62.5t75 41t90 15.5l13 71h208l-38 -212h-84q-58 0 -92 -13t-40 -45q-3 -18 5.5 -27.5t22.5 -9.5q20 0 31 13.5t15 31.5h209q-6 -45 -27.5 -85.5t-58.5 -71.5
t-89.5 -49.5t-119.5 -18.5z" />
    <glyph glyph-name="Agrave" unicode="&#xc0;" horiz-adv-x="773" 
d="M556 746l-180 68l48 112l173 -98zM461 107h-236l-54 -107h-233l383 708h256l134 -708h-234zM436 274l-29 197l-99 -197h128z" />
    <glyph glyph-name="Aacute" unicode="&#xc1;" horiz-adv-x="773" 
d="M383 755l-20 76l192 93l35 -110zM461 107h-236l-54 -107h-233l383 708h256l134 -708h-234zM436 274l-29 197l-99 -197h128z" />
    <glyph glyph-name="Acircumflex" unicode="&#xc2;" horiz-adv-x="773" 
d="M348 746l-22 89l149 70l124 -70l-43 -89l-96 50zM461 107h-236l-54 -107h-233l383 708h256l134 -708h-234zM436 274l-29 197l-99 -197h128z" />
    <glyph glyph-name="Atilde" unicode="&#xc3;" horiz-adv-x="773" 
d="M394 795q-30 0 -44 -39h-89q28 80 67.5 112.5t90.5 32.5q20 0 35.5 -6t28.5 -13t25 -13t24 -6q30 0 43 39h90q-28 -80 -67.5 -112t-90.5 -32q-20 0 -35.5 6t-28.5 12.5l-25 12.5t-24 6zM461 107h-236l-54 -107h-233l383 708h256l134 -708h-234zM436 274l-29 197l-99 -197
h128z" />
    <glyph glyph-name="Adieresis" unicode="&#xc4;" horiz-adv-x="773" 
d="M350 764q-36 0 -56.5 24.5t-13.5 60.5q7 38 35.5 62.5t64.5 24.5q38 0 58.5 -24.5t13.5 -62.5q-7 -36 -35.5 -60.5t-66.5 -24.5zM575 764q-36 0 -56.5 24.5t-13.5 60.5q7 38 35.5 62.5t64.5 24.5q38 0 58.5 -24.5t13.5 -62.5q-7 -36 -35.5 -60.5t-66.5 -24.5zM461 107
h-236l-54 -107h-233l383 708h256l134 -708h-234zM436 274l-29 197l-99 -197h128z" />
    <glyph glyph-name="Aring" unicode="&#xc5;" horiz-adv-x="773" 
d="M450 737q-55 0 -87 35.5t-22 96.5q5 31 19.5 55.5t35.5 41.5t47 26t53 9q55 0 87.5 -35t21.5 -97q-5 -31 -19.5 -55.5t-35.5 -41.5t-47 -26t-53 -9zM427 869q-4 -21 7 -34t31 -13t35 13t19 34q4 22 -7 34.5t-31 12.5t-35 -12.5t-19 -34.5zM461 107h-236l-54 -107h-233
l383 708h256l134 -708h-234zM436 274l-29 197l-99 -197h128z" />
    <glyph glyph-name="AE" unicode="&#xc6;" horiz-adv-x="986" 
d="M743 532l-15 -85h210l-29 -167h-210l-18 -103h240l-31 -177h-462l17 97h-204l-62 -97h-241l463 708h613l-31 -176h-240zM474 264l48 273l-174 -273h126z" />
    <glyph glyph-name="Ccedilla" unicode="&#xc7;" horiz-adv-x="753" 
d="M403 510q-57 0 -96 -42t-52 -113t12 -113t82 -42q38 0 70.5 19.5t55.5 54.5h234q-38 -109 -120.5 -181t-195.5 -92l-5 -28q18 0 39.5 -5.5t39 -19.5t26.5 -37.5t3 -59.5t-24.5 -59.5t-43 -37.5t-52 -19.5t-52.5 -5.5h-173l20 113h150q26 0 29 16q3 15 -23 15h-85l22 125
q-68 9 -118 38.5t-80 76t-39.5 108.5t3.5 134q14 79 49.5 145t89.5 114t123.5 74.5t150.5 26.5q70 0 125 -20t92.5 -57t57 -88t19.5 -114h-234q-9 35 -35.5 54.5t-64.5 19.5z" />
    <glyph glyph-name="Egrave" unicode="&#xc8;" horiz-adv-x="556" 
d="M508 828l-41 -82l-180 68l48 112zM303 532l-15 -88h220l-30 -167h-220l-17 -100h250l-31 -177h-472l124 708h472l-31 -176h-250z" />
    <glyph glyph-name="Eacute" unicode="&#xc9;" horiz-adv-x="556" 
d="M501 814l-207 -59l-20 76l192 93zM303 532l-15 -88h220l-30 -167h-220l-17 -100h250l-31 -177h-472l124 708h472l-31 -176h-250z" />
    <glyph glyph-name="Ecircumflex" unicode="&#xca;" horiz-adv-x="556" 
d="M371 796l-112 -50l-22 89l149 70l124 -70l-43 -89zM303 532l-15 -88h220l-30 -167h-220l-17 -100h250l-31 -177h-472l124 708h472l-31 -176h-250z" />
    <glyph glyph-name="Edieresis" unicode="&#xcb;" horiz-adv-x="555" 
d="M170 849q7 38 35.5 62.5t64.5 24.5q38 0 58.5 -24.5t13.5 -62.5q-7 -36 -35.5 -60.5t-66.5 -24.5q-36 0 -56.5 24.5t-13.5 60.5zM395 849q7 38 35.5 62.5t64.5 24.5q38 0 58.5 -24.5t13.5 -62.5q-7 -36 -35.5 -60.5t-66.5 -24.5q-36 0 -56.5 24.5t-13.5 60.5zM303 532
l-15 -88h220l-30 -167h-220l-17 -100h250l-31 -177h-472l124 708h472l-31 -176h-250z" />
    <glyph glyph-name="Igrave" unicode="&#xcc;" horiz-adv-x="322" 
d="M391 828l-41 -82l-180 68l48 112zM334 708l-124 -708h-222l124 708h222z" />
    <glyph glyph-name="Iacute" unicode="&#xcd;" horiz-adv-x="322" 
d="M384 814l-207 -59l-20 76l192 93zM334 708l-124 -708h-222l124 708h222z" />
    <glyph glyph-name="Icircumflex" unicode="&#xce;" horiz-adv-x="322" 
d="M254 796l-112 -50l-22 89l149 70l124 -70l-43 -89zM334 708l-124 -708h-222l124 708h222z" />
    <glyph glyph-name="Idieresis" unicode="&#xcf;" horiz-adv-x="322" 
d="M56 849q7 38 35.5 62.5t64.5 24.5q38 0 58.5 -24.5t13.5 -62.5q-7 -36 -35.5 -60.5t-66.5 -24.5q-36 0 -56.5 24.5t-13.5 60.5zM281 849q7 38 35.5 62.5t64.5 24.5q38 0 58.5 -24.5t13.5 -62.5q-7 -36 -35.5 -60.5t-66.5 -24.5q-36 0 -56.5 24.5t-13.5 60.5zM334 708
l-124 -708h-222l124 708h222z" />
    <glyph glyph-name="Eth" unicode="&#xd0;" horiz-adv-x="743" 
d="M407 708q85 0 148.5 -26.5t103 -73t54 -111t0.5 -141.5q-13 -76 -50 -141t-93.5 -113t-129 -75t-157.5 -27h-295l47 268h-50l31 176h50l46 264h295zM488 356q14 78 -23.5 118t-111.5 40h-53l-12 -70h130l-31 -176h-131l-12 -70h53q74 0 125.5 40t65.5 118z" />
    <glyph glyph-name="Ntilde" unicode="&#xd1;" horiz-adv-x="779" 
d="M442 901q20 0 35.5 -6t28.5 -13t25 -13t24 -6q30 0 43 39h90q-28 -80 -67.5 -112t-90.5 -32q-20 0 -35.5 6t-28.5 12.5l-25 12.5t-24 6q-30 0 -44 -39h-89q28 80 67.5 112.5t90.5 32.5zM667 0h-222l-173 356l-62 -356h-222l124 708h222l172 -362l63 362h222z" />
    <glyph glyph-name="Ograve" unicode="&#xd2;" 
d="M584 828l-41 -82l-180 68l48 112zM421 720q89 0 155.5 -30t108 -83t56.5 -127t-1 -163q-12 -71 -45 -130.5t-82.5 -102.5t-115.5 -67t-144 -24q-92 0 -159.5 30t-108.5 83.5t-55 128t2 162.5q13 71 45.5 130.5t83 102.5t116 66.5t144.5 23.5zM405 515q-64 0 -104.5 -40
t-52.5 -108q-13 -75 16.5 -121t104.5 -46q63 0 104 40.5t52 106.5q14 77 -16.5 122.5t-103.5 45.5z" />
    <glyph glyph-name="Oacute" unicode="&#xd3;" 
d="M577 814l-207 -59l-20 76l192 93zM421 720q89 0 155.5 -30t108 -83t56.5 -127t-1 -163q-12 -71 -45 -130.5t-82.5 -102.5t-115.5 -67t-144 -24q-92 0 -159.5 30t-108.5 83.5t-55 128t2 162.5q13 71 45.5 130.5t83 102.5t116 66.5t144.5 23.5zM405 515q-64 0 -104.5 -40
t-52.5 -108q-13 -75 16.5 -121t104.5 -46q63 0 104 40.5t52 106.5q14 77 -16.5 122.5t-103.5 45.5z" />
    <glyph glyph-name="Ocircumflex" unicode="&#xd4;" 
d="M447 796l-112 -50l-22 89l149 70l124 -70l-43 -89zM421 720q89 0 155.5 -30t108 -83t56.5 -127t-1 -163q-12 -71 -45 -130.5t-82.5 -102.5t-115.5 -67t-144 -24q-92 0 -159.5 30t-108.5 83.5t-55 128t2 162.5q13 71 45.5 130.5t83 102.5t116 66.5t144.5 23.5zM405 515
q-64 0 -104.5 -40t-52.5 -108q-13 -75 16.5 -121t104.5 -46q63 0 104 40.5t52 106.5q14 77 -16.5 122.5t-103.5 45.5z" />
    <glyph glyph-name="Otilde" unicode="&#xd5;" 
d="M406 901q20 0 35.5 -6t28.5 -13t25 -13t24 -6q30 0 43 39h90q-28 -80 -67.5 -112t-90.5 -32q-20 0 -35.5 6t-28.5 12.5l-25 12.5t-24 6q-30 0 -44 -39h-89q28 80 67.5 112.5t90.5 32.5zM421 720q89 0 155.5 -30t108 -83t56.5 -127t-1 -163q-12 -71 -45 -130.5
t-82.5 -102.5t-115.5 -67t-144 -24q-92 0 -159.5 30t-108.5 83.5t-55 128t2 162.5q13 71 45.5 130.5t83 102.5t116 66.5t144.5 23.5zM405 515q-64 0 -104.5 -40t-52.5 -108q-13 -75 16.5 -121t104.5 -46q63 0 104 40.5t52 106.5q14 77 -16.5 122.5t-103.5 45.5z" />
    <glyph glyph-name="Odieresis" unicode="&#xd6;" 
d="M272 849q7 38 35.5 62.5t64.5 24.5q38 0 58.5 -24.5t13.5 -62.5q-7 -36 -35.5 -60.5t-66.5 -24.5q-36 0 -56.5 24.5t-13.5 60.5zM497 849q7 38 35.5 62.5t64.5 24.5q38 0 58.5 -24.5t13.5 -62.5q-7 -36 -35.5 -60.5t-66.5 -24.5q-36 0 -56.5 24.5t-13.5 60.5zM421 720
q89 0 155.5 -30t108 -83t56.5 -127t-1 -163q-12 -71 -45 -130.5t-82.5 -102.5t-115.5 -67t-144 -24q-92 0 -159.5 30t-108.5 83.5t-55 128t2 162.5q13 71 45.5 130.5t83 102.5t116 66.5t144.5 23.5zM405 515q-64 0 -104.5 -40t-52.5 -108q-13 -75 16.5 -121t104.5 -46
q63 0 104 40.5t52 106.5q14 77 -16.5 122.5t-103.5 45.5z" />
    <glyph glyph-name="multiply" unicode="&#xd7;" horiz-adv-x="581" 
d="M443 351l106 -128l-172 -145l-104 127l-147 -126l-118 142l147 126l-99 120l172 145l98 -118l137 118l119 -142z" />
    <glyph glyph-name="Oslash" unicode="&#xd8;" horiz-adv-x="788" 
d="M698 587q34 -53 44.5 -121t-3.5 -149q-12 -71 -45 -130.5t-82.5 -102.5t-115.5 -67t-144 -24q-69 0 -123.5 16.5t-96.5 48.5l-61 -57h-116l122 114q-37 54 -49 125.5t3 156.5q13 71 45.5 130.5t83 102.5t116 66.5t144.5 23.5q71 0 127.5 -19.5t98.5 -54.5l71 66h115z
M247 367q-9 -53 3 -91l233 218q-32 21 -79 21q-64 0 -104.5 -40t-52.5 -108zM524 347q7 43 1 78l-225 -210q27 -15 68 -15q63 0 104 40.5t52 106.5z" />
    <glyph glyph-name="Ugrave" unicode="&#xd9;" horiz-adv-x="719" 
d="M590 828l-41 -82l-180 68l48 112zM330 708l-70 -399q-8 -46 6.5 -76t65.5 -30t78 30t35 76l70 399h221l-70 -399q-14 -78 -49.5 -137.5t-86 -99t-112.5 -59.5t-128 -20t-119 20t-87 59.5t-46.5 99t1.5 137.5l70 399h221z" />
    <glyph glyph-name="Uacute" unicode="&#xda;" horiz-adv-x="719" 
d="M583 814l-207 -59l-20 76l192 93zM330 708l-70 -399q-8 -46 6.5 -76t65.5 -30t78 30t35 76l70 399h221l-70 -399q-14 -78 -49.5 -137.5t-86 -99t-112.5 -59.5t-128 -20t-119 20t-87 59.5t-46.5 99t1.5 137.5l70 399h221z" />
    <glyph glyph-name="Ucircumflex" unicode="&#xdb;" horiz-adv-x="719" 
d="M453 796l-112 -50l-22 89l149 70l124 -70l-43 -89zM330 708l-70 -399q-8 -46 6.5 -76t65.5 -30t78 30t35 76l70 399h221l-70 -399q-14 -78 -49.5 -137.5t-86 -99t-112.5 -59.5t-128 -20t-119 20t-87 59.5t-46.5 99t1.5 137.5l70 399h221z" />
    <glyph glyph-name="Udieresis" unicode="&#xdc;" horiz-adv-x="719" 
d="M244 849q7 38 35.5 62.5t64.5 24.5q38 0 58.5 -24.5t13.5 -62.5q-7 -36 -35.5 -60.5t-66.5 -24.5q-36 0 -56.5 24.5t-13.5 60.5zM469 849q7 38 35.5 62.5t64.5 24.5q38 0 58.5 -24.5t13.5 -62.5q-7 -36 -35.5 -60.5t-66.5 -24.5q-36 0 -56.5 24.5t-13.5 60.5zM330 708
l-70 -399q-8 -46 6.5 -76t65.5 -30t78 30t35 76l70 399h221l-70 -399q-14 -78 -49.5 -137.5t-86 -99t-112.5 -59.5t-128 -20t-119 20t-87 59.5t-46.5 99t1.5 137.5l70 399h221z" />
    <glyph glyph-name="Yacute" unicode="&#xdd;" horiz-adv-x="730" 
d="M381 755l-20 76l192 93l35 -110zM792 708l-341 -493l-37 -215h-222l37 215l-167 493h254l69 -251l157 251h250z" />
    <glyph glyph-name="Thorn" unicode="&#xde;" horiz-adv-x="649" 
d="M232 125l-22 -125h-222l124 708h220l-21 -120h90q67 0 114 -17t75.5 -48t38 -74t0.5 -94q-8 -47 -32.5 -89t-63.5 -73.5t-92.5 -49.5t-120.5 -18h-88zM324 290q38 0 56.5 18t23.5 47t-7 47t-50 18h-63l-23 -130h63z" />
    <glyph glyph-name="germandbls" unicode="&#xdf;" horiz-adv-x="763" 
d="M608 420q78 -45 110 -105.5t15 -150.5q-6 -35 -24 -66t-47.5 -54t-69.5 -36.5t-90 -13.5q-56 0 -99.5 16t-72 45t-41.5 71t-9 93h180q0 -20 9.5 -26.5t20.5 -6.5q14 0 21 7t9 18q3 19 -7.5 29.5t-37.5 28.5l-131 89l15 72l13 8q17 11 26.5 24.5t11.5 28.5q3 23 -8 38
t-38 15q-29 0 -49.5 -16.5t-26.5 -51.5l-82 -476h-222l86 484q23 127 111 196.5t237 69.5q68 0 115 -16t75.5 -42.5t38.5 -60t4 -68.5q-5 -34 -30 -62.5t-66 -49.5z" />
    <glyph glyph-name="agrave" unicode="&#xe0;" horiz-adv-x="683" 
d="M547 684l-41 -82l-180 68l48 112zM297 571q60 0 98.5 -23t52.5 -61l14 77h221l-100 -564h-221l14 77q-27 -38 -70.5 -61t-100.5 -23q-52 0 -92 21t-64 61t-31.5 97t5.5 130q11 64 38 114t63.5 84.5t81 52.5t91.5 18zM347 377q-35 0 -63 -24t-36 -71t11 -71t54 -24t63 24
t36 71t-11 71t-54 24z" />
    <glyph glyph-name="aacute" unicode="&#xe1;" horiz-adv-x="683" 
d="M540 670l-207 -59l-20 76l192 93zM297 571q60 0 98.5 -23t52.5 -61l14 77h221l-100 -564h-221l14 77q-27 -38 -70.5 -61t-100.5 -23q-52 0 -92 21t-64 61t-31.5 97t5.5 130q11 64 38 114t63.5 84.5t81 52.5t91.5 18zM347 377q-35 0 -63 -24t-36 -71t11 -71t54 -24t63 24
t36 71t-11 71t-54 24z" />
    <glyph glyph-name="acircumflex" unicode="&#xe2;" horiz-adv-x="683" 
d="M410 652l-112 -50l-22 89l149 70l124 -70l-43 -89zM297 571q60 0 98.5 -23t52.5 -61l14 77h221l-100 -564h-221l14 77q-27 -38 -70.5 -61t-100.5 -23q-52 0 -92 21t-64 61t-31.5 97t5.5 130q11 64 38 114t63.5 84.5t81 52.5t91.5 18zM347 377q-35 0 -63 -24t-36 -71
t11 -71t54 -24t63 24t36 71t-11 71t-54 24z" />
    <glyph glyph-name="atilde" unicode="&#xe3;" horiz-adv-x="683" 
d="M369 757q20 0 35.5 -6t28.5 -13t25 -13t24 -6q30 0 43 39h90q-28 -80 -67.5 -112t-90.5 -32q-20 0 -35.5 6t-28.5 12.5l-25 12.5t-24 6q-30 0 -44 -39h-89q28 80 67.5 112.5t90.5 32.5zM297 571q60 0 98.5 -23t52.5 -61l14 77h221l-100 -564h-221l14 77
q-27 -38 -70.5 -61t-100.5 -23q-52 0 -92 21t-64 61t-31.5 97t5.5 130q11 64 38 114t63.5 84.5t81 52.5t91.5 18zM347 377q-35 0 -63 -24t-36 -71t11 -71t54 -24t63 24t36 71t-11 71t-54 24z" />
    <glyph glyph-name="adieresis" unicode="&#xe4;" horiz-adv-x="681" 
d="M198 705q7 38 35.5 62.5t64.5 24.5q38 0 58.5 -24.5t13.5 -62.5q-7 -36 -35.5 -60.5t-66.5 -24.5q-36 0 -56.5 24.5t-13.5 60.5zM423 705q7 38 35.5 62.5t64.5 24.5q38 0 58.5 -24.5t13.5 -62.5q-7 -36 -35.5 -60.5t-66.5 -24.5q-36 0 -56.5 24.5t-13.5 60.5zM297 571
q60 0 98.5 -23t52.5 -61l14 77h221l-100 -564h-221l14 77q-27 -38 -70.5 -61t-100.5 -23q-52 0 -92 21t-64 61t-31.5 97t5.5 130q11 64 38 114t63.5 84.5t81 52.5t91.5 18zM347 377q-35 0 -63 -24t-36 -71t11 -71t54 -24t63 24t36 71t-11 71t-54 24z" />
    <glyph glyph-name="aring" unicode="&#xe5;" horiz-adv-x="681" 
d="M394 857q55 0 87.5 -35t21.5 -97q-5 -31 -19.5 -55.5t-35.5 -41.5t-47 -26t-53 -9q-55 0 -87 35.5t-22 96.5q5 31 19.5 55.5t35.5 41.5t47 26t53 9zM379 772q-20 0 -35 -12.5t-19 -34.5q-4 -21 7 -34t31 -13t35 13t19 34q4 22 -7 34.5t-31 12.5zM297 571q60 0 98.5 -23
t52.5 -61l14 77h221l-100 -564h-221l14 77q-27 -38 -70.5 -61t-100.5 -23q-52 0 -92 21t-64 61t-31.5 97t5.5 130q11 64 38 114t63.5 84.5t81 52.5t91.5 18zM347 377q-35 0 -63 -24t-36 -71t11 -71t54 -24t63 24t36 71t-11 71t-54 24z" />
    <glyph glyph-name="ae" unicode="&#xe6;" horiz-adv-x="1057" 
d="M847 571q52 0 92.5 -19.5t65.5 -56t33.5 -89.5t-3.5 -119q-2 -11 -5 -22t-8 -22h-391q-2 -45 16.5 -60.5t49.5 -15.5q29 0 47 9.5t29 26.5h235q-17 -45 -43.5 -83.5t-61 -66.5t-74.5 -44t-84 -16q-61 0 -99 22.5t-52 61.5l-14 -77h-221l14 77q-27 -38 -70.5 -61
t-100.5 -23q-49 0 -88 19.5t-64 56.5t-33.5 91t3.5 122t39.5 122t65.5 91t84 56.5t95 19.5q57 0 92 -23t49 -61l14 77h221l-14 -77q27 40 73.5 62t107.5 22zM818 334q6 33 -17 48t-57 15q-29 0 -55.5 -13t-40.5 -50h170zM409 282q8 47 -11 71t-54 24t-63 -24t-36 -71t11 -71
t54 -24t63 24t36 71z" />
    <glyph glyph-name="ccedilla" unicode="&#xe7;" horiz-adv-x="610" 
d="M288 183q21 0 35 12t23 32h235q-34 -95 -102 -153.5t-156 -74.5l-5 -26q18 0 39.5 -5.5t39 -19.5t26.5 -37.5t3 -59.5t-24.5 -59.5t-43 -37.5t-52 -19.5t-52.5 -5.5h-173l20 113h150q26 0 29 16q3 15 -23 15h-85l23 126q-49 10 -86 35.5t-60 64t-30.5 90t3.5 113.5
q11 63 41 113t73.5 84.5t98.5 53t116 18.5q57 0 103 -15.5t78.5 -45.5t50.5 -73.5t18 -99.5h-235q-3 20 -13 32t-31 12q-26 0 -46 -24t-29 -75t3 -75t38 -24z" />
    <glyph glyph-name="egrave" unicode="&#xe8;" horiz-adv-x="617" 
d="M473 602l-180 68l48 112l173 -98zM358 571q63 0 112.5 -19.5t81.5 -56t44 -89.5t0 -119q-2 -11 -5 -22t-8 -22h-354q-5 -45 9.5 -59t37.5 -14q22 0 36 10t22 23h235q-17 -45 -46.5 -83.5t-70 -66.5t-90 -44t-106.5 -16q-63 0 -112 20.5t-80.5 59.5t-43 94.5t0.5 125.5
q12 65 42.5 116.5t75 87.5t100.5 55t119 19zM379 334q6 34 -10.5 48.5t-41.5 14.5q-60 0 -81 -63h133z" />
    <glyph glyph-name="eacute" unicode="&#xe9;" horiz-adv-x="617" 
d="M300 611l-20 76l192 93l35 -110zM358 571q63 0 112.5 -19.5t81.5 -56t44 -89.5t0 -119q-2 -11 -5 -22t-8 -22h-354q-5 -45 9.5 -59t37.5 -14q22 0 36 10t22 23h235q-17 -45 -46.5 -83.5t-70 -66.5t-90 -44t-106.5 -16q-63 0 -112 20.5t-80.5 59.5t-43 94.5t0.5 125.5
q12 65 42.5 116.5t75 87.5t100.5 55t119 19zM379 334q6 34 -10.5 48.5t-41.5 14.5q-60 0 -81 -63h133z" />
    <glyph glyph-name="ecircumflex" unicode="&#xea;" horiz-adv-x="617" 
d="M265 602l-22 89l149 70l124 -70l-43 -89l-96 50zM358 571q63 0 112.5 -19.5t81.5 -56t44 -89.5t0 -119q-2 -11 -5 -22t-8 -22h-354q-5 -45 9.5 -59t37.5 -14q22 0 36 10t22 23h235q-17 -45 -46.5 -83.5t-70 -66.5t-90 -44t-106.5 -16q-63 0 -112 20.5t-80.5 59.5
t-43 94.5t0.5 125.5q12 65 42.5 116.5t75 87.5t100.5 55t119 19zM379 334q6 34 -10.5 48.5t-41.5 14.5q-60 0 -81 -63h133z" />
    <glyph glyph-name="edieresis" unicode="&#xeb;" horiz-adv-x="614" 
d="M241 620q-36 0 -56.5 24.5t-13.5 60.5q7 38 35.5 62.5t64.5 24.5q38 0 58.5 -24.5t13.5 -62.5q-7 -36 -35.5 -60.5t-66.5 -24.5zM466 620q-36 0 -56.5 24.5t-13.5 60.5q7 38 35.5 62.5t64.5 24.5q38 0 58.5 -24.5t13.5 -62.5q-7 -36 -35.5 -60.5t-66.5 -24.5zM358 571
q63 0 112.5 -19.5t81.5 -56t44 -89.5t0 -119q-2 -11 -5 -22t-8 -22h-354q-5 -45 9.5 -59t37.5 -14q22 0 36 10t22 23h235q-17 -45 -46.5 -83.5t-70 -66.5t-90 -44t-106.5 -16q-63 0 -112 20.5t-80.5 59.5t-43 94.5t0.5 125.5q12 65 42.5 116.5t75 87.5t100.5 55t119 19z
M379 334q6 34 -10.5 48.5t-41.5 14.5q-60 0 -81 -63h133z" />
    <glyph glyph-name="igrave" unicode="&#xec;" horiz-adv-x="312" 
d="M361 684l-41 -82l-180 68l48 112zM317 564l-100 -564h-222l100 564h222z" />
    <glyph glyph-name="iacute" unicode="&#xed;" horiz-adv-x="312" 
d="M354 670l-207 -59l-20 76l192 93zM317 564l-100 -564h-222l100 564h222z" />
    <glyph glyph-name="icircumflex" unicode="&#xee;" horiz-adv-x="312" 
d="M224 652l-112 -50l-22 89l149 70l124 -70l-43 -89zM317 564l-100 -564h-222l100 564h222z" />
    <glyph glyph-name="idieresis" unicode="&#xef;" horiz-adv-x="322" 
d="M58 705q7 38 35.5 62.5t64.5 24.5q38 0 58.5 -24.5t13.5 -62.5q-7 -36 -35.5 -60.5t-66.5 -24.5q-36 0 -56.5 24.5t-13.5 60.5zM283 705q7 38 35.5 62.5t64.5 24.5q38 0 58.5 -24.5t13.5 -62.5q-7 -36 -35.5 -60.5t-66.5 -24.5q-36 0 -56.5 24.5t-13.5 60.5zM317 564
l-100 -564h-222l100 564h222z" />
    <glyph glyph-name="eth" unicode="&#xf0;" horiz-adv-x="633" 
d="M569 657q38 -73 54.5 -161t0.5 -179q-14 -79 -48 -139t-81.5 -101t-105 -62t-117.5 -21q-61 0 -113.5 20t-88 57.5t-51.5 91.5t-4 121t43 119.5t75.5 89t99 56t113.5 19.5q17 0 37 -2t41 -6q-7 25 -20 52l-91 -24l13 72l46 13q-24 40 -49 67h193l18 -24l70 19l-13 -72z
M392 282q5 27 1 45t-12.5 29.5t-20.5 16t-24 4.5q-13 0 -27.5 -4.5t-28 -16t-24 -29.5t-15.5 -45t0 -45.5t15.5 -29.5t24 -16t25.5 -5q26 0 51 21t35 75z" />
    <glyph glyph-name="ntilde" unicode="&#xf1;" horiz-adv-x="697" 
d="M351 651q-30 0 -44 -39h-89q28 80 67.5 112.5t90.5 32.5q20 0 35.5 -6t28.5 -13t25 -13t24 -6q30 0 43 39h90q-28 -80 -67.5 -112t-90.5 -32q-20 0 -35.5 6t-28.5 12.5l-25 12.5t-24 6zM495 568q49 0 84 -17t56 -48.5t27 -76t-3 -99.5l-58 -327h-221l53 299
q7 41 -10.5 64t-53.5 23q-37 0 -62 -23t-32 -64v5l-53 -304h-222l99 564h222l-15 -86q31 37 78 63.5t111 26.5z" />
    <glyph glyph-name="ograve" unicode="&#xf2;" horiz-adv-x="638" 
d="M524 684l-41 -82l-180 68l48 112zM364 571q65 0 117.5 -21.5t87 -61t48 -97t0.5 -129.5q-11 -63 -42.5 -113t-76.5 -84.5t-101.5 -53t-118.5 -18.5q-66 0 -119.5 21.5t-88 61t-48.5 97t-1 129.5q11 63 42.5 113t77.5 84.5t103 53t120 18.5zM336 379q-29 0 -55 -23
t-35 -74t8.5 -74t47.5 -23q29 0 55 23t35 74t-9 74t-47 23z" />
    <glyph glyph-name="oacute" unicode="&#xf3;" horiz-adv-x="638" 
d="M517 670l-207 -59l-20 76l192 93zM364 571q65 0 117.5 -21.5t87 -61t48 -97t0.5 -129.5q-11 -63 -42.5 -113t-76.5 -84.5t-101.5 -53t-118.5 -18.5q-66 0 -119.5 21.5t-88 61t-48.5 97t-1 129.5q11 63 42.5 113t77.5 84.5t103 53t120 18.5zM336 379q-29 0 -55 -23
t-35 -74t8.5 -74t47.5 -23q29 0 55 23t35 74t-9 74t-47 23z" />
    <glyph glyph-name="ocircumflex" unicode="&#xf4;" horiz-adv-x="638" 
d="M387 652l-112 -50l-22 89l149 70l124 -70l-43 -89zM364 571q65 0 117.5 -21.5t87 -61t48 -97t0.5 -129.5q-11 -63 -42.5 -113t-76.5 -84.5t-101.5 -53t-118.5 -18.5q-66 0 -119.5 21.5t-88 61t-48.5 97t-1 129.5q11 63 42.5 113t77.5 84.5t103 53t120 18.5zM336 379
q-29 0 -55 -23t-35 -74t8.5 -74t47.5 -23q29 0 55 23t35 74t-9 74t-47 23z" />
    <glyph glyph-name="otilde" unicode="&#xf5;" horiz-adv-x="638" 
d="M346 757q20 0 35.5 -6t28.5 -13t25 -13t24 -6q30 0 43 39h90q-28 -80 -67.5 -112t-90.5 -32q-20 0 -35.5 6t-28.5 12.5l-25 12.5t-24 6q-30 0 -44 -39h-89q28 80 67.5 112.5t90.5 32.5zM364 571q65 0 117.5 -21.5t87 -61t48 -97t0.5 -129.5q-11 -63 -42.5 -113
t-76.5 -84.5t-101.5 -53t-118.5 -18.5q-66 0 -119.5 21.5t-88 61t-48.5 97t-1 129.5q11 63 42.5 113t77.5 84.5t103 53t120 18.5zM336 379q-29 0 -55 -23t-35 -74t8.5 -74t47.5 -23q29 0 55 23t35 74t-9 74t-47 23z" />
    <glyph glyph-name="odieresis" unicode="&#xf6;" horiz-adv-x="637" 
d="M191 705q7 38 35.5 62.5t64.5 24.5q38 0 58.5 -24.5t13.5 -62.5q-7 -36 -35.5 -60.5t-66.5 -24.5q-36 0 -56.5 24.5t-13.5 60.5zM416 705q7 38 35.5 62.5t64.5 24.5q38 0 58.5 -24.5t13.5 -62.5q-7 -36 -35.5 -60.5t-66.5 -24.5q-36 0 -56.5 24.5t-13.5 60.5zM364 571
q65 0 117.5 -21.5t87 -61t48 -97t0.5 -129.5q-11 -63 -42.5 -113t-76.5 -84.5t-101.5 -53t-118.5 -18.5q-66 0 -119.5 21.5t-88 61t-48.5 97t-1 129.5q11 63 42.5 113t77.5 84.5t103 53t120 18.5zM336 379q-29 0 -55 -23t-35 -74t8.5 -74t47.5 -23q29 0 55 23t35 74t-9 74
t-47 23z" />
    <glyph glyph-name="divide" unicode="&#xf7;" horiz-adv-x="551" 
d="M444 681l-37 -212h-220l37 212h220zM549 441l-36 -201h-511l36 201h511zM361 212l-37 -212h-220l37 212h220z" />
    <glyph glyph-name="oslash" unicode="&#xf8;" horiz-adv-x="621" 
d="M574 474q28 -40 38 -93t-1 -119q-11 -63 -42.5 -113t-76.5 -84.5t-101.5 -53t-118.5 -18.5q-102 0 -171 49l-46 -42h-103l100 91q-28 40 -38 92.5t1 118.5q11 63 42.5 113t77.5 84.5t103 53t120 18.5q99 0 167 -48l45 41h103zM237 260l123 112q-13 7 -30 7q-29 0 -55 -23
t-35 -74zM389 304l-123 -112q11 -7 30 -7q29 0 55 23t35 74z" />
    <glyph glyph-name="ugrave" unicode="&#xf9;" horiz-adv-x="687" 
d="M508 602l-180 68l48 112l173 -98zM687 564l-99 -564h-222l15 86q-31 -37 -78 -63.5t-111 -26.5q-49 0 -84 17t-56 48.5t-27 76t3 99.5l58 327h221l-53 -299q-7 -41 10.5 -64t53.5 -23q37 0 62 23t32 64v-5l53 304h222z" />
    <glyph glyph-name="uacute" unicode="&#xfa;" horiz-adv-x="687" 
d="M335 611l-20 76l192 93l35 -110zM687 564l-99 -564h-222l15 86q-31 -37 -78 -63.5t-111 -26.5q-49 0 -84 17t-56 48.5t-27 76t3 99.5l58 327h221l-53 -299q-7 -41 10.5 -64t53.5 -23q37 0 62 23t32 64v-5l53 304h222z" />
    <glyph glyph-name="ucircumflex" unicode="&#xfb;" horiz-adv-x="687" 
d="M300 602l-22 89l149 70l124 -70l-43 -89l-96 50zM687 564l-99 -564h-222l15 86q-31 -37 -78 -63.5t-111 -26.5q-49 0 -84 17t-56 48.5t-27 76t3 99.5l58 327h221l-53 -299q-7 -41 10.5 -64t53.5 -23q37 0 62 23t32 64v-5l53 304h222z" />
    <glyph glyph-name="udieresis" unicode="&#xfc;" horiz-adv-x="697" 
d="M289 620q-36 0 -56.5 24.5t-13.5 60.5q7 38 35.5 62.5t64.5 24.5q38 0 58.5 -24.5t13.5 -62.5q-7 -36 -35.5 -60.5t-66.5 -24.5zM514 620q-36 0 -56.5 24.5t-13.5 60.5q7 38 35.5 62.5t64.5 24.5q38 0 58.5 -24.5t13.5 -62.5q-7 -36 -35.5 -60.5t-66.5 -24.5zM687 564
l-99 -564h-222l15 86q-31 -37 -78 -63.5t-111 -26.5q-49 0 -84 17t-56 48.5t-27 76t3 99.5l58 327h221l-53 -299q-7 -41 10.5 -64t53.5 -23q37 0 62 23t32 64v-5l53 304h222z" />
    <glyph glyph-name="yacute" unicode="&#xfd;" horiz-adv-x="667" 
d="M532 670l-207 -59l-20 76l192 93zM271 564l55 -286l150 286h245l-509 -834h-243l195 298l-140 536h247z" />
    <glyph glyph-name="thorn" unicode="&#xfe;" horiz-adv-x="679" 
d="M460 568q54 0 95.5 -21.5t67.5 -60t35.5 -91.5t-0.5 -117q-11 -71 -38.5 -124.5t-65.5 -89t-83.5 -53t-92.5 -17.5q-51 0 -87.5 16t-59.5 52l-58 -332h-222l178 1010h222l-40 -226q33 30 68.5 42t80.5 12zM336 187q12 0 27 4t29 14.5t25 28t16 44.5t0 45.5t-15 30.5
t-23.5 17t-25.5 5q-13 0 -28 -4.5t-29.5 -15.5t-25.5 -29t-16 -45q-4 -27 0.5 -45t15 -29.5t24 -16t26.5 -4.5z" />
    <glyph glyph-name="ydieresis" unicode="&#xff;" horiz-adv-x="677" 
d="M204 705q7 38 35.5 62.5t64.5 24.5q38 0 58.5 -24.5t13.5 -62.5q-7 -36 -35.5 -60.5t-66.5 -24.5q-36 0 -56.5 24.5t-13.5 60.5zM429 705q7 38 35.5 62.5t64.5 24.5q38 0 58.5 -24.5t13.5 -62.5q-7 -36 -35.5 -60.5t-66.5 -24.5q-36 0 -56.5 24.5t-13.5 60.5zM271 564
l55 -286l150 286h245l-509 -834h-243l195 298l-140 536h247z" />
    <glyph glyph-name="Amacron" unicode="&#x100;" horiz-adv-x="773" 
d="M683 766h-431l26 147h431zM461 107h-236l-54 -107h-233l383 708h256l134 -708h-234zM436 274l-29 197l-99 -197h128z" />
    <glyph glyph-name="amacron" unicode="&#x101;" horiz-adv-x="681" 
d="M608 769l-26 -147h-431l26 147h431zM297 571q60 0 98.5 -23t52.5 -61l14 77h221l-100 -564h-221l14 77q-27 -38 -70.5 -61t-100.5 -23q-52 0 -92 21t-64 61t-31.5 97t5.5 130q11 64 38 114t63.5 84.5t81 52.5t91.5 18zM347 377q-35 0 -63 -24t-36 -71t11 -71t54 -24
t63 24t36 71t-11 71t-54 24z" />
    <glyph glyph-name="Abreve" unicode="&#x102;" horiz-adv-x="773" 
d="M436 744q-33 0 -59.5 10t-43.5 31t-23.5 52.5t0.5 74.5l2 14h85q-4 -24 8.5 -37.5t52.5 -13.5q41 0 58.5 13.5t21.5 37.5h85l-3 -14q-7 -43 -24.5 -74.5t-42 -52.5t-54.5 -31t-63 -10zM461 107h-236l-54 -107h-233l383 708h256l134 -708h-234zM436 274l-29 197l-99 -197
h128z" />
    <glyph glyph-name="abreve" unicode="&#x103;" horiz-adv-x="683" 
d="M386 600q-33 0 -59.5 10t-43.5 31t-23.5 52.5t0.5 74.5l2 14h85q-4 -24 8.5 -37.5t52.5 -13.5q41 0 58.5 13.5t21.5 37.5h85l-3 -14q-7 -43 -24.5 -74.5t-42 -52.5t-54.5 -31t-63 -10zM297 571q60 0 98.5 -23t52.5 -61l14 77h221l-100 -564h-221l14 77q-27 -38 -70.5 -61
t-100.5 -23q-52 0 -92 21t-64 61t-31.5 97t5.5 130q11 64 38 114t63.5 84.5t81 52.5t91.5 18zM347 377q-35 0 -63 -24t-36 -71t11 -71t54 -24t63 24t36 71t-11 71t-54 24z" />
    <glyph glyph-name="Aogonek" unicode="&#x104;" horiz-adv-x="773" 
d="M750 -106l-20 -113h-168q-25 0 -50.5 5.5t-45 19.5t-29 37.5t-3.5 59.5q9 59 63 95l-16 109h-237l-54 -107h-233l384 708h256l130 -693l-16 -90h-100q-26 0 -29 -15q-3 -16 23 -16h145zM456 274l-30 197l-99 -197h129z" />
    <glyph glyph-name="aogonek" unicode="&#x105;" horiz-adv-x="681" 
d="M447 -90q-3 -16 23 -16h145l-20 -113h-168q-25 0 -50.5 5.5t-45 19.5t-29 37.5t-3.5 59.5q7 36 24.5 59.5t40.5 37.5h-2l14 77q-27 -38 -70.5 -61t-100.5 -23q-52 0 -92 21t-64 61t-31.5 97t5.5 130q11 64 38 114t63.5 84.5t81 52.5t91.5 18q60 0 98.5 -23t52.5 -61
l14 77h221l-96 -539h7l-18 -100h-100q-26 0 -29 -15zM313 187q35 0 63 24t36 71t-11 71t-54 24t-63 -24t-36 -71t11 -71t54 -24z" />
    <glyph glyph-name="Cacute" unicode="&#x106;" horiz-adv-x="753" 
d="M600 814l-207 -59l-20 76l192 93zM443 715q70 0 125 -20t92.5 -57t57 -88t19.5 -114h-234q-9 35 -35.5 54.5t-64.5 19.5q-57 0 -96 -42t-52 -113t12 -113t82 -42q38 0 70.5 19.5t55.5 54.5h234q-22 -63 -60 -114t-88 -88t-112 -57t-132 -20q-81 0 -141.5 26.5t-97.5 74.5
t-49.5 114t1.5 145t49.5 145t89.5 114t123.5 74.5t150.5 26.5z" />
    <glyph glyph-name="cacute" unicode="&#x107;" horiz-adv-x="616" 
d="M506 670l-207 -59l-20 76l192 93zM351 571q57 0 103 -15.5t78.5 -45.5t50.5 -73.5t18 -99.5h-235q-3 20 -13 32t-31 12q-26 0 -46 -24t-29 -75t3 -75t38 -24q21 0 35 12t23 32h235q-20 -55 -52.5 -98.5t-74 -73.5t-91.5 -46t-104 -16q-63 0 -113 21.5t-81.5 61t-43.5 97
t1 129.5q11 63 41 113t73.5 84.5t98.5 53t116 18.5z" />
    <glyph glyph-name="Cdotaccent" unicode="&#x10a;" horiz-adv-x="753" 
d="M383 849q7 38 35.5 62.5t64.5 24.5q38 0 58.5 -24.5t13.5 -62.5q-7 -36 -35.5 -60.5t-66.5 -24.5q-36 0 -56.5 24.5t-13.5 60.5zM443 715q70 0 125 -20t92.5 -57t57 -88t19.5 -114h-234q-9 35 -35.5 54.5t-64.5 19.5q-57 0 -96 -42t-52 -113t12 -113t82 -42
q38 0 70.5 19.5t55.5 54.5h234q-22 -63 -60 -114t-88 -88t-112 -57t-132 -20q-81 0 -141.5 26.5t-97.5 74.5t-49.5 114t1.5 145t49.5 145t89.5 114t123.5 74.5t150.5 26.5z" />
    <glyph glyph-name="cdotaccent" unicode="&#x10b;" horiz-adv-x="610" 
d="M278 705q7 38 35.5 62.5t64.5 24.5q38 0 58.5 -24.5t13.5 -62.5q-7 -36 -35.5 -60.5t-66.5 -24.5q-36 0 -56.5 24.5t-13.5 60.5zM351 571q57 0 103 -15.5t78.5 -45.5t50.5 -73.5t18 -99.5h-235q-3 20 -13 32t-31 12q-26 0 -46 -24t-29 -75t3 -75t38 -24q21 0 35 12t23 32
h235q-20 -55 -52.5 -98.5t-74 -73.5t-91.5 -46t-104 -16q-63 0 -113 21.5t-81.5 61t-43.5 97t1 129.5q11 63 41 113t73.5 84.5t98.5 53t116 18.5z" />
    <glyph glyph-name="Ccaron" unicode="&#x10c;" horiz-adv-x="752" 
d="M628 821l-180 -85l-151 85l25 144l151 -88l180 88zM443 715q70 0 125 -20t92.5 -57t57 -88t19.5 -114h-234q-9 35 -35.5 54.5t-64.5 19.5q-57 0 -96 -42t-52 -113t12 -113t82 -42q38 0 70.5 19.5t55.5 54.5h234q-22 -63 -60 -114t-88 -88t-112 -57t-132 -20
q-81 0 -141.5 26.5t-97.5 74.5t-49.5 114t1.5 145t49.5 145t89.5 114t123.5 74.5t150.5 26.5z" />
    <glyph glyph-name="ccaron" unicode="&#x10d;" horiz-adv-x="610" 
d="M523 677l-180 -85l-151 85l25 144l151 -88l180 88zM351 571q57 0 103 -15.5t78.5 -45.5t50.5 -73.5t18 -99.5h-235q-3 20 -13 32t-31 12q-26 0 -46 -24t-29 -75t3 -75t38 -24q21 0 35 12t23 32h235q-20 -55 -52.5 -98.5t-74 -73.5t-91.5 -46t-104 -16q-63 0 -113 21.5
t-81.5 61t-43.5 97t1 129.5q11 63 41 113t73.5 84.5t98.5 53t116 18.5z" />
    <glyph glyph-name="Dcaron" unicode="&#x10e;" horiz-adv-x="743" 
d="M622 821l-180 -85l-151 85l25 144l151 -88l180 88zM713 356q-13 -76 -50 -141t-93.5 -113t-129 -75t-157.5 -27h-295l124 708h295q85 0 148.5 -26.5t103 -73t54 -111t0.5 -141.5zM297 198q74 0 125.5 40t65.5 118t-23.5 118t-111.5 40h-53l-56 -316h53z" />
    <glyph glyph-name="dcaron" unicode="&#x10f;" horiz-adv-x="856" 
d="M723 740l-131 -740h-222l14 77q-27 -38 -70 -61t-100 -23q-49 0 -88 21t-64.5 61t-34 97t4.5 130q11 64 38 114t63.5 84.5t81 52.5t91.5 18q60 0 98 -23t52 -61l45 253h222zM897 740q7 -35 7 -68.5t-5 -65.5q-6 -36 -21.5 -68.5t-40 -56.5t-58 -38t-76.5 -14l14 79
q55 0 68 74l2 12h-72l26 146h156zM356 377q-35 0 -63 -24t-36 -71t11 -71t54 -24t63 24t36 71t-11 71t-54 24z" />
    <glyph glyph-name="Dcroat" unicode="&#x110;" horiz-adv-x="743" 
d="M407 708q85 0 148.5 -26.5t103 -73t54 -111t0.5 -141.5q-13 -76 -50 -141t-93.5 -113t-129 -75t-157.5 -27h-295l47 268h-50l31 176h50l46 264h295zM488 356q14 78 -23.5 118t-111.5 40h-53l-12 -70h130l-31 -176h-131l-12 -70h53q74 0 125.5 40t65.5 118z" />
    <glyph glyph-name="dcroat" unicode="&#x111;" horiz-adv-x="679" 
d="M729 592h-32l-105 -592h-222l14 77q-27 -38 -70 -61t-100 -23q-49 0 -88 21t-64.5 61t-34 97t4.5 130q11 64 38 114t63.5 84.5t81 52.5t91.5 18q60 0 98 -23t52 -61l19 105h-91l17 96h91l9 52h222l-9 -52h32zM421 282q8 47 -11 71t-54 24t-63 -24t-36 -71t11 -71t54 -24
t63 24t36 71z" />
    <glyph glyph-name="Emacron" unicode="&#x112;" horiz-adv-x="556" 
d="M600 913l-26 -147h-431l26 147h431zM303 532l-15 -88h220l-30 -167h-220l-17 -100h250l-31 -177h-472l124 708h472l-31 -176h-250z" />
    <glyph glyph-name="emacron" unicode="&#x113;" horiz-adv-x="614" 
d="M574 622h-431l26 147h431zM358 571q63 0 112.5 -19.5t81.5 -56t44 -89.5t0 -119q-2 -11 -5 -22t-8 -22h-354q-5 -45 9.5 -59t37.5 -14q22 0 36 10t22 23h235q-17 -45 -46.5 -83.5t-70 -66.5t-90 -44t-106.5 -16q-63 0 -112 20.5t-80.5 59.5t-43 94.5t0.5 125.5
q12 65 42.5 116.5t75 87.5t100.5 55t119 19zM379 334q6 34 -10.5 48.5t-41.5 14.5q-60 0 -81 -63h133z" />
    <glyph glyph-name="Ebreve" unicode="&#x114;" horiz-adv-x="556" 
d="M347 744q-33 0 -59.5 10t-43.5 31t-23.5 52.5t0.5 74.5l2 14h85q-4 -24 8.5 -37.5t52.5 -13.5q41 0 58.5 13.5t21.5 37.5h85l-3 -14q-7 -43 -24.5 -74.5t-42 -52.5t-54.5 -31t-63 -10zM303 532l-15 -88h220l-30 -167h-220l-17 -100h250l-31 -177h-472l124 708h472
l-31 -176h-250z" />
    <glyph glyph-name="ebreve" unicode="&#x115;" horiz-adv-x="617" 
d="M353 600q-33 0 -59.5 10t-43.5 31t-23.5 52.5t0.5 74.5l2 14h85q-4 -24 8.5 -37.5t52.5 -13.5q41 0 58.5 13.5t21.5 37.5h85l-3 -14q-7 -43 -24.5 -74.5t-42 -52.5t-54.5 -31t-63 -10zM358 571q63 0 112.5 -19.5t81.5 -56t44 -89.5t0 -119q-2 -11 -5 -22t-8 -22h-354
q-5 -45 9.5 -59t37.5 -14q22 0 36 10t22 23h235q-17 -45 -46.5 -83.5t-70 -66.5t-90 -44t-106.5 -16q-63 0 -112 20.5t-80.5 59.5t-43 94.5t0.5 125.5q12 65 42.5 116.5t75 87.5t100.5 55t119 19zM379 334q6 34 -10.5 48.5t-41.5 14.5q-60 0 -81 -63h133z" />
    <glyph glyph-name="Edotaccent" unicode="&#x116;" horiz-adv-x="556" 
d="M283 849q7 38 35.5 62.5t64.5 24.5q38 0 58.5 -24.5t13.5 -62.5q-7 -36 -35.5 -60.5t-66.5 -24.5q-36 0 -56.5 24.5t-13.5 60.5zM303 532l-15 -88h220l-30 -167h-220l-17 -100h250l-31 -177h-472l124 708h472l-31 -176h-250z" />
    <glyph glyph-name="edotaccent" unicode="&#x117;" horiz-adv-x="614" 
d="M353 620q-36 0 -56.5 24.5t-13.5 60.5q7 38 35.5 62.5t64.5 24.5q38 0 58.5 -24.5t13.5 -62.5q-7 -36 -35.5 -60.5t-66.5 -24.5zM358 571q63 0 112.5 -19.5t81.5 -56t44 -89.5t0 -119q-2 -11 -5 -22t-8 -22h-354q-5 -45 9.5 -59t37.5 -14q22 0 36 10t22 23h235
q-17 -45 -46.5 -83.5t-70 -66.5t-90 -44t-106.5 -16q-63 0 -112 20.5t-80.5 59.5t-43 94.5t0.5 125.5q12 65 42.5 116.5t75 87.5t100.5 55t119 19zM379 334q6 34 -10.5 48.5t-41.5 14.5q-60 0 -81 -63h133z" />
    <glyph glyph-name="Eogonek" unicode="&#x118;" horiz-adv-x="556" 
d="M303 532l-15 -88h220l-30 -167h-220l-17 -100h250l-31 -177h-105q-26 0 -29 -15q-3 -16 23 -16h145l-20 -113h-168q-25 0 -50.5 5.5t-45 19.5t-29 37.5t-3.5 59.5q1 11 6 22h-196l124 708h472l-31 -176h-250z" />
    <glyph glyph-name="eogonek" unicode="&#x119;" horiz-adv-x="616" 
d="M371 571q63 0 113 -19.5t81.5 -56t43.5 -89.5t0 -119q-2 -11 -5 -22t-7 -22h-355q-4 -43 12 -58t37 -15q22 0 35.5 10t21.5 23h235q-28 -72 -89.5 -126t-142.5 -74q-9 -2 -15.5 -6.5t-8.5 -13.5t5 -14t27 -5h125l-19 -113h-158q-25 0 -50.5 5.5t-45 19.5t-29.5 37.5
t-4 59.5l6 31q-88 24 -129.5 95.5t-21.5 182.5q12 68 42.5 121.5t75 90.5t101 57t119.5 20zM393 334q6 34 -10.5 48.5t-41.5 14.5q-29 0 -50 -15.5t-32 -47.5h134z" />
    <glyph glyph-name="Ecaron" unicode="&#x11a;" horiz-adv-x="556" 
d="M527 821l-180 -85l-151 85l25 144l151 -88l180 88zM303 532l-15 -88h220l-30 -167h-220l-17 -100h250l-31 -177h-472l124 708h472l-31 -176h-250z" />
    <glyph glyph-name="ecaron" unicode="&#x11b;" horiz-adv-x="615" 
d="M348 592l-151 85l25 144l151 -88l180 88l-25 -144zM358 571q63 0 112.5 -19.5t81.5 -56t44 -89.5t0 -119q-2 -11 -5 -22t-8 -22h-354q-5 -45 9.5 -59t37.5 -14q22 0 36 10t22 23h235q-17 -45 -46.5 -83.5t-70 -66.5t-90 -44t-106.5 -16q-63 0 -112 20.5t-80.5 59.5
t-43 94.5t0.5 125.5q12 65 42.5 116.5t75 87.5t100.5 55t119 19zM379 334q6 34 -10.5 48.5t-41.5 14.5q-60 0 -81 -63h133z" />
    <glyph glyph-name="Gbreve" unicode="&#x11e;" horiz-adv-x="752" 
d="M445 744q-33 0 -59.5 10t-43.5 31t-23.5 52.5t0.5 74.5l2 14h85q-4 -24 8.5 -37.5t52.5 -13.5q41 0 58.5 13.5t21.5 37.5h85l-3 -14q-7 -43 -24.5 -74.5t-42 -52.5t-54.5 -31t-63 -10zM451 715q71 0 123.5 -19t88.5 -52.5t54.5 -79t20.5 -98.5h-234q-9 20 -30.5 32
t-56.5 12q-65 0 -107 -42t-55 -113q-14 -83 17 -124t113 -41q38 0 71 14.5t64 47.5h-177l28 157h361l-39 -222q-24 -39 -57.5 -74t-77.5 -61.5t-101.5 -41.5t-129.5 -15q-84 0 -146 27.5t-100.5 76.5t-51.5 117t1 149q14 77 50 141t91 110.5t126 72.5t154 26z" />
    <glyph glyph-name="gbreve" unicode="&#x11f;" horiz-adv-x="679" 
d="M384 600q-33 0 -59.5 10t-43.5 31t-23.5 52.5t0.5 74.5l2 14h85q-4 -24 8.5 -37.5t52.5 -13.5q41 0 58.5 13.5t21.5 37.5h85l-3 -14q-7 -43 -24.5 -74.5t-42 -52.5t-54.5 -31t-63 -10zM205 -7q-49 0 -88 21t-64.5 61t-34 97t4.5 130q11 64 38 114t63.5 84.5t81 52.5
t91.5 18q60 0 98.5 -23t52.5 -61l14 77h221l-98 -554q-10 -56 -33.5 -108t-63.5 -91.5t-97.5 -63.5t-134.5 -24q-136 0 -205 64.5t-69 171.5h218q2 -44 64 -44q17 0 32.5 3.5t29 14t23.5 29t15 48.5l12 67q-27 -38 -70.5 -61t-100.5 -23zM347 377q-35 0 -63 -24t-36 -71
t11 -71t54 -24t63 24t36 71t-11 71t-54 24z" />
    <glyph glyph-name="Gdotaccent" unicode="&#x120;" horiz-adv-x="752" 
d="M374 849q7 38 35.5 62.5t64.5 24.5q38 0 58.5 -24.5t13.5 -62.5q-7 -36 -35.5 -60.5t-66.5 -24.5q-36 0 -56.5 24.5t-13.5 60.5zM451 715q71 0 123.5 -19t88.5 -52.5t54.5 -79t20.5 -98.5h-234q-9 20 -30.5 32t-56.5 12q-65 0 -107 -42t-55 -113q-14 -83 17 -124t113 -41
q38 0 71 14.5t64 47.5h-177l28 157h361l-39 -222q-24 -39 -57.5 -74t-77.5 -61.5t-101.5 -41.5t-129.5 -15q-84 0 -146 27.5t-100.5 76.5t-51.5 117t1 149q14 77 50 141t91 110.5t126 72.5t154 26z" />
    <glyph glyph-name="gdotaccent" unicode="&#x121;" horiz-adv-x="680" 
d="M334 705q7 38 35.5 62.5t64.5 24.5q38 0 58.5 -24.5t13.5 -62.5q-7 -36 -35.5 -60.5t-66.5 -24.5q-36 0 -56.5 24.5t-13.5 60.5zM205 -7q-49 0 -88 21t-64.5 61t-34 97t4.5 130q11 64 38 114t63.5 84.5t81 52.5t91.5 18q60 0 98.5 -23t52.5 -61l14 77h221l-98 -554
q-10 -56 -33.5 -108t-63.5 -91.5t-97.5 -63.5t-134.5 -24q-136 0 -205 64.5t-69 171.5h218q2 -44 64 -44q17 0 32.5 3.5t29 14t23.5 29t15 48.5l12 67q-27 -38 -70.5 -61t-100.5 -23zM347 377q-35 0 -63 -24t-36 -71t11 -71t54 -24t63 24t36 71t-11 71t-54 24z" />
    <glyph glyph-name="Gcommaaccent" unicode="&#x122;" horiz-adv-x="757" 
d="M449 715q71 0 123.5 -19t88.5 -52.5t54.5 -79t20.5 -98.5h-234q-9 20 -30.5 32t-56.5 12q-65 0 -107 -42t-55 -113q-14 -83 17 -124t113 -41q38 0 71 14.5t64 47.5h-177l28 157h361l-39 -222q-24 -39 -57.5 -74t-77.5 -61.5t-101.5 -41.5t-129.5 -15q-84 0 -146 27.5
t-100.5 76.5t-51.5 117t1 149q14 77 50 141t91 110.5t126 72.5t154 26zM416 -35q7 -35 7 -69t-5 -66q-6 -36 -21.5 -68t-40 -56t-58 -38t-76.5 -14l13 78q26 0 43.5 18t25.5 57l2 11h-72l26 147h156z" />
    <glyph glyph-name="gcommaaccent" unicode="&#x123;" horiz-adv-x="679" 
d="M341 599q-8 35 -7.5 69t6.5 66q6 36 21.5 68t40 56t58 38t75.5 14l-14 -78q-26 0 -43.5 -18t-24.5 -57l-2 -11h72l-26 -147h-156zM188 -7q-49 0 -88 21t-64.5 61t-34 97t4.5 130q11 64 38 114t63.5 84.5t81 52.5t91.5 18q60 0 98.5 -23t52.5 -61l14 77h221l-98 -554
q-10 -56 -33.5 -108t-63.5 -91.5t-97.5 -63.5t-134.5 -24q-136 0 -205 64.5t-69 171.5h218q2 -44 64 -44q17 0 32.5 3.5t29 14t23.5 29t15 48.5l12 67q-27 -38 -70.5 -61t-100.5 -23zM330 377q-35 0 -63 -24t-36 -71t11 -71t54 -24t63 24t36 71t-11 71t-54 24z" />
    <glyph glyph-name="Itilde" unicode="&#x128;" horiz-adv-x="322" 
d="M213 901q20 0 35.5 -6t28.5 -13t25 -13t24 -6q30 0 43 39h90q-28 -80 -67.5 -112t-90.5 -32q-20 0 -35.5 6t-28.5 12.5l-25 12.5t-24 6q-30 0 -44 -39h-89q28 80 67.5 112.5t90.5 32.5zM334 708l-124 -708h-222l124 708h222z" />
    <glyph glyph-name="itilde" unicode="&#x129;" horiz-adv-x="312" 
d="M183 757q20 0 35.5 -6t28.5 -13t25 -13t24 -6q30 0 43 39h90q-28 -80 -67.5 -112t-90.5 -32q-20 0 -35.5 6t-28.5 12.5l-25 12.5t-24 6q-30 0 -44 -39h-89q28 80 67.5 112.5t90.5 32.5zM317 564l-100 -564h-222l100 564h222z" />
    <glyph glyph-name="Imacron" unicode="&#x12a;" horiz-adv-x="322" 
d="M485 913l-26 -147h-431l26 147h431zM334 708l-124 -708h-222l124 708h222z" />
    <glyph glyph-name="imacron" unicode="&#x12b;" horiz-adv-x="332" 
d="M467 769l-26 -147h-431l26 147h431zM317 564l-100 -564h-222l100 564h222z" />
    <glyph glyph-name="Ibreve" unicode="&#x12c;" horiz-adv-x="322" 
d="M230 744q-33 0 -59.5 10t-43.5 31t-23.5 52.5t0.5 74.5l2 14h85q-4 -24 8.5 -37.5t52.5 -13.5q41 0 58.5 13.5t21.5 37.5h85l-3 -14q-7 -43 -24.5 -74.5t-42 -52.5t-54.5 -31t-63 -10zM334 708l-124 -708h-222l124 708h222z" />
    <glyph glyph-name="ibreve" unicode="&#x12d;" horiz-adv-x="312" 
d="M200 600q-33 0 -59.5 10t-43.5 31t-23.5 52.5t0.5 74.5l2 14h85q-4 -24 8.5 -37.5t52.5 -13.5q41 0 58.5 13.5t21.5 37.5h85l-3 -14q-7 -43 -24.5 -74.5t-42 -52.5t-54.5 -31t-63 -10zM317 564l-100 -564h-222l100 564h222z" />
    <glyph glyph-name="Iogonek" unicode="&#x12e;" horiz-adv-x="321" 
d="M68 -90q-3 -16 23 -16h145l-20 -113h-168q-25 0 -50.5 5.5t-45 19.5t-29 37.5t-3.5 59.5q7 38 26 61.5t42 37.5l124 706h222l-120 -683h1l-18 -100h-100q-26 0 -29 -15z" />
    <glyph glyph-name="iogonek" unicode="&#x12f;" horiz-adv-x="312" 
d="M258 829q59 0 87 -32t20 -79q-8 -46 -47.5 -77.5t-98.5 -31.5q-60 0 -88.5 31.5t-20.5 77.5q8 47 48 79t100 32zM106 -75q-26 0 -29 -15q-3 -16 23 -16h145l-20 -113h-168q-25 0 -50.5 5.5t-45 19.5t-29 37.5t-3.5 59.5q7 38 27 62.5t45 38.5l98 560h222l-99 -564h-2
l-14 -75h-100z" />
    <glyph glyph-name="Idotaccent" unicode="&#x130;" horiz-adv-x="322" 
d="M168 849q7 38 35.5 62.5t64.5 24.5q38 0 58.5 -24.5t13.5 -62.5q-7 -36 -35.5 -60.5t-66.5 -24.5q-36 0 -56.5 24.5t-13.5 60.5zM334 708l-124 -708h-222l124 708h222z" />
    <glyph glyph-name="dotlessi" unicode="&#x131;" horiz-adv-x="312" 
d="M317 564l-100 -564h-222l100 564h222z" />
    <glyph glyph-name="Kcommaaccent" unicode="&#x136;" horiz-adv-x="748" 
d="M483 364l198 -364h-267l-152 307l-54 -307h-222l124 708h222l-52 -299l260 299h265zM437 -35q8 -35 7.5 -69t-6.5 -66q-6 -36 -21.5 -68t-40 -56t-58 -38t-75.5 -14l14 78q26 0 43.5 18t24.5 57l2 11h-72l26 147h156z" />
    <glyph glyph-name="kcommaaccent" unicode="&#x137;" horiz-adv-x="676" 
d="M453 288l157 -288h-254l-98 233l-41 -233h-222l130 740h222l-67 -380l177 204h258zM357 -35q8 -35 7 -69t-6 -66q-6 -36 -21.5 -68t-40 -56t-58 -38t-75.5 -14l14 78q26 0 43.5 18t24.5 57l2 11h-72l26 147h156z" />
    <glyph glyph-name="Lacute" unicode="&#x139;" horiz-adv-x="506" 
d="M476 814l-207 -59l-20 76l192 93zM239 168h214l-29 -168h-436l124 708h222z" />
    <glyph glyph-name="lacute" unicode="&#x13a;" horiz-adv-x="317" 
d="M339 665l-117 -665h-222l130 740h109l83 40l13 -40h17l-6 -35l11 -35z" />
    <glyph glyph-name="Lcommaaccent" unicode="&#x13b;" horiz-adv-x="511" 
d="M237 168h214l-29 -168h-436l124 708h222zM327 -35q8 -35 8 -69t-5 -66q-6 -36 -21.5 -68t-40 -56t-58 -38t-76.5 -14l13 78q26 0 43.5 18t25.5 57l2 11h-72l25 147h156z" />
    <glyph glyph-name="lcommaaccent" unicode="&#x13c;" horiz-adv-x="321" 
d="M357 740l-130 -740h-222l130 740h222zM202 -35q8 -35 7 -69t-6 -66q-6 -36 -21.5 -68t-40 -56t-58 -38t-75.5 -14l14 78q26 0 43.5 18t24.5 57l2 11h-72l26 147h156z" />
    <glyph glyph-name="Lcaron" unicode="&#x13d;" horiz-adv-x="577" 
d="M236 168h214l-29 -168h-436l124 708h222zM587 708q8 -35 7.5 -68.5t-6.5 -65.5q-6 -36 -21.5 -68.5t-40 -56.5t-58 -38t-75.5 -14l14 79q26 0 43.5 18t24.5 56l2 12h-72l26 146h156z" />
    <glyph glyph-name="lcaron" unicode="&#x13e;" horiz-adv-x="496" 
d="M347 740l-130 -740h-222l130 740h222zM546 740q8 -35 7.5 -68.5t-6.5 -65.5q-6 -36 -21.5 -68.5t-40 -56.5t-58 -38t-75.5 -14l14 79q26 0 43.5 18t24.5 56l2 12h-72l26 146h156z" />
    <glyph glyph-name="Ldot" unicode="&#x13f;" horiz-adv-x="506" 
d="M239 168h214l-29 -168h-436l124 708h222zM310 353q7 38 35.5 62.5t64.5 24.5q38 0 58.5 -24.5t13.5 -62.5q-7 -36 -35.5 -60.5t-66.5 -24.5q-36 0 -56.5 24.5t-13.5 60.5z" />
    <glyph glyph-name="ldot" unicode="&#x140;" horiz-adv-x="470" 
d="M352 740l-130 -740h-222l130 740h222zM321 369q7 38 35.5 62.5t64.5 24.5q38 0 58.5 -24.5t13.5 -62.5q-7 -36 -35.5 -60.5t-66.5 -24.5q-36 0 -56.5 24.5t-13.5 60.5z" />
    <glyph glyph-name="Lslash" unicode="&#x141;" horiz-adv-x="521" 
d="M468 168l-29 -168h-436l41 236l-57 -15l38 216l57 15l45 256h222l-34 -195l79 21l-38 -216l-79 -21l-23 -129h214z" />
    <glyph glyph-name="lslash" unicode="&#x142;" horiz-adv-x="322" 
d="M343 318l-68 -18l-53 -300h-222l42 239l-68 -18l38 216l68 18l50 285h222l-39 -224l68 18z" />
    <glyph glyph-name="Nacute" unicode="&#x143;" horiz-adv-x="779" 
d="M613 814l-207 -59l-20 76l192 93zM667 0h-222l-173 356l-62 -356h-222l124 708h222l172 -362l63 362h222z" />
    <glyph glyph-name="nacute" unicode="&#x144;" horiz-adv-x="697" 
d="M340 611l-20 76l192 93l35 -110zM495 568q49 0 84 -17t56 -48.5t27 -76t-3 -99.5l-58 -327h-221l53 299q7 41 -10.5 64t-53.5 23q-37 0 -62 -23t-32 -64v5l-53 -304h-222l99 564h222l-15 -86q31 37 78 63.5t111 26.5z" />
    <glyph glyph-name="Ncommaaccent" unicode="&#x145;" horiz-adv-x="781" 
d="M667 0h-222l-173 356l-62 -356h-222l124 708h222l172 -362l63 362h222zM444 -35q8 -35 8 -69t-6 -66q-6 -36 -21.5 -68t-40 -56t-58 -38t-76.5 -14l14 78q26 0 43.5 18t24.5 57l2 11h-72l26 147h156z" />
    <glyph glyph-name="ncommaaccent" unicode="&#x146;" horiz-adv-x="697" 
d="M495 568q49 0 84 -17t56 -48.5t27 -76t-3 -99.5l-58 -327h-221l53 299q7 41 -10.5 64t-53.5 23q-37 0 -62 -23t-32 -64v5l-53 -304h-222l99 564h222l-15 -86q31 37 78 63.5t111 26.5zM413 -35q8 -35 7.5 -69t-6.5 -66q-6 -36 -21.5 -68t-40 -56t-58 -38t-75.5 -14l14 78
q26 0 43.5 18t24.5 57l2 11h-72l26 147h156z" />
    <glyph glyph-name="Ncaron" unicode="&#x147;" horiz-adv-x="779" 
d="M630 821l-180 -85l-151 85l25 144l151 -88l180 88zM667 0h-222l-173 356l-62 -356h-222l124 708h222l172 -362l63 362h222z" />
    <glyph glyph-name="ncaron" unicode="&#x148;" horiz-adv-x="698" 
d="M399 592l-151 85l25 144l151 -88l180 88l-25 -144zM495 568q49 0 84 -17t56 -48.5t27 -76t-3 -99.5l-58 -327h-221l53 299q7 41 -10.5 64t-53.5 23q-37 0 -62 -23t-32 -64v5l-53 -304h-222l99 564h222l-15 -86q31 37 78 63.5t111 26.5z" />
    <glyph glyph-name="Omacron" unicode="&#x14c;" 
d="M709 913l-26 -147h-431l26 147h431zM421 720q89 0 155.5 -30t108 -83t56.5 -127t-1 -163q-12 -71 -45 -130.5t-82.5 -102.5t-115.5 -67t-144 -24q-92 0 -159.5 30t-108.5 83.5t-55 128t2 162.5q13 71 45.5 130.5t83 102.5t116 66.5t144.5 23.5zM405 515q-64 0 -104.5 -40
t-52.5 -108q-13 -75 16.5 -121t104.5 -46q63 0 104 40.5t52 106.5q14 77 -16.5 122.5t-103.5 45.5z" />
    <glyph glyph-name="omacron" unicode="&#x14d;" horiz-adv-x="637" 
d="M620 769l-26 -147h-431l26 147h431zM364 571q65 0 117.5 -21.5t87 -61t48 -97t0.5 -129.5q-11 -63 -42.5 -113t-76.5 -84.5t-101.5 -53t-118.5 -18.5q-66 0 -119.5 21.5t-88 61t-48.5 97t-1 129.5q11 63 42.5 113t77.5 84.5t103 53t120 18.5zM336 379q-29 0 -55 -23
t-35 -74t8.5 -74t47.5 -23q29 0 55 23t35 74t-9 74t-47 23z" />
    <glyph glyph-name="Obreve" unicode="&#x14e;" 
d="M423 744q-33 0 -59.5 10t-43.5 31t-23.5 52.5t0.5 74.5l2 14h85q-4 -24 8.5 -37.5t52.5 -13.5q41 0 58.5 13.5t21.5 37.5h85l-3 -14q-7 -43 -24.5 -74.5t-42 -52.5t-54.5 -31t-63 -10zM421 720q89 0 155.5 -30t108 -83t56.5 -127t-1 -163q-12 -71 -45 -130.5
t-82.5 -102.5t-115.5 -67t-144 -24q-92 0 -159.5 30t-108.5 83.5t-55 128t2 162.5q13 71 45.5 130.5t83 102.5t116 66.5t144.5 23.5zM405 515q-64 0 -104.5 -40t-52.5 -108q-13 -75 16.5 -121t104.5 -46q63 0 104 40.5t52 106.5q14 77 -16.5 122.5t-103.5 45.5z" />
    <glyph glyph-name="obreve" unicode="&#x14f;" horiz-adv-x="638" 
d="M363 600q-33 0 -59.5 10t-43.5 31t-23.5 52.5t0.5 74.5l2 14h85q-4 -24 8.5 -37.5t52.5 -13.5q41 0 58.5 13.5t21.5 37.5h85l-3 -14q-7 -43 -24.5 -74.5t-42 -52.5t-54.5 -31t-63 -10zM364 571q65 0 117.5 -21.5t87 -61t48 -97t0.5 -129.5q-11 -63 -42.5 -113
t-76.5 -84.5t-101.5 -53t-118.5 -18.5q-66 0 -119.5 21.5t-88 61t-48.5 97t-1 129.5q11 63 42.5 113t77.5 84.5t103 53t120 18.5zM336 379q-29 0 -55 -23t-35 -74t8.5 -74t47.5 -23q29 0 55 23t35 74t-9 74t-47 23z" />
    <glyph glyph-name="Ohungarumlaut" unicode="&#x150;" 
d="M389 745h-133l124 244h168zM609 745h-133l149 244h168zM421 720q89 0 155.5 -30t108 -83t56.5 -127t-1 -163q-12 -71 -45 -130.5t-82.5 -102.5t-115.5 -67t-144 -24q-92 0 -159.5 30t-108.5 83.5t-55 128t2 162.5q13 71 45.5 130.5t83 102.5t116 66.5t144.5 23.5z
M405 515q-64 0 -104.5 -40t-52.5 -108q-13 -75 16.5 -121t104.5 -46q63 0 104 40.5t52 106.5q14 77 -16.5 122.5t-103.5 45.5z" />
    <glyph glyph-name="ohungarumlaut" unicode="&#x151;" horiz-adv-x="637" 
d="M320 601h-133l124 244h168zM540 601h-133l149 244h168zM364 571q65 0 117.5 -21.5t87 -61t48 -97t0.5 -129.5q-11 -63 -42.5 -113t-76.5 -84.5t-101.5 -53t-118.5 -18.5q-66 0 -119.5 21.5t-88 61t-48.5 97t-1 129.5q11 63 42.5 113t77.5 84.5t103 53t120 18.5zM336 379
q-29 0 -55 -23t-35 -74t8.5 -74t47.5 -23q29 0 55 23t35 74t-9 74t-47 23z" />
    <glyph glyph-name="OE" unicode="&#x152;" horiz-adv-x="1050" 
d="M781 444h220l-29 -167h-220l-18 -100h250l-31 -177h-472l7 37q-38 -25 -83.5 -36t-90.5 -13q-76 0 -135 28.5t-97 79.5t-52 122t1 156q14 76 48 139.5t85.5 109.5t120 71.5t149.5 25.5q48 0 92 -11.5t74 -37.5l6 37h472l-31 -176h-250zM368 193q67 0 109.5 43.5
t56.5 117.5q13 74 -15 117.5t-95 43.5q-66 0 -108 -41t-54 -110q-14 -78 13 -124.5t93 -46.5z" />
    <glyph glyph-name="oe" unicode="&#x153;" horiz-adv-x="988" 
d="M729 571q63 0 112.5 -19.5t81.5 -56t44 -89.5t0 -119q-2 -11 -5 -22t-8 -22h-354q-5 -45 9.5 -59t37.5 -14q22 0 36 10t22 23h235q-17 -45 -48 -83.5t-72 -66.5t-90.5 -44t-102.5 -16q-54 0 -97.5 14.5t-75.5 41.5q-42 -27 -92.5 -41.5t-104.5 -14.5q-64 0 -115 20
t-84.5 57t-46.5 91t-1 121q12 68 44 121.5t78.5 90.5t104.5 57t122 20q54 0 99 -14.5t78 -41.5q42 27 90.5 41.5t102.5 14.5zM750 334q6 34 -10.5 48.5t-41.5 14.5q-60 0 -81 -63h133zM381 282q9 51 -9 74t-47 23t-55 -23t-35 -74t8.5 -74t47.5 -23q29 0 55 23t35 74z" />
    <glyph glyph-name="Racute" unicode="&#x154;" horiz-adv-x="670" 
d="M351 755l-20 76l192 93l35 -110zM442 708q67 0 114 -18t75.5 -49.5t38 -73.5t1.5 -91q-13 -70 -61 -125t-129 -80l107 -271h-244l-90 254l-44 -254h-222l124 708h330zM280 402h88q32 0 51 14t24 46q5 27 -8 43.5t-45 16.5h-88z" />
    <glyph glyph-name="racute" unicode="&#x155;" horiz-adv-x="467" 
d="M225 611l-20 76l192 93l35 -110zM303 460q42 48 95.5 78t108.5 30l-42 -237h-63q-60 0 -94.5 -21t-44.5 -79l-41 -231h-222l99 564h222z" />
    <glyph glyph-name="Rcommaaccent" unicode="&#x156;" horiz-adv-x="701" 
d="M410 708q67 0 114 -18t75.5 -49.5t38 -73.5t1.5 -91q-13 -70 -61 -125t-129 -80l107 -271h-244l-90 254l-44 -254h-222l124 708h330zM248 402h88q32 0 51 14t24 46q5 27 -8 43.5t-45 16.5h-88zM388 -35q8 -35 8 -69t-6 -66q-6 -36 -21.5 -68t-40 -56t-58 -38t-76.5 -14
l14 78q26 0 43.5 18t24.5 57l2 11h-72l26 147h156z" />
    <glyph glyph-name="rcommaaccent" unicode="&#x157;" horiz-adv-x="466" 
d="M293 460q42 48 95.5 78t108.5 30l-42 -237h-63q-60 0 -94.5 -21t-44.5 -79l-41 -231h-222l99 564h222zM210 -35q8 -35 7.5 -69t-6.5 -66q-6 -36 -21.5 -68t-40 -56t-58 -38t-75.5 -14l14 78q26 0 43.5 18t24.5 57l2 11h-72l26 147h156z" />
    <glyph glyph-name="Rcaron" unicode="&#x158;" horiz-adv-x="670" 
d="M411 736l-151 85l25 144l151 -88l180 88l-25 -144zM442 708q67 0 114 -18t75.5 -49.5t38 -73.5t1.5 -91q-13 -70 -61 -125t-129 -80l107 -271h-244l-90 254l-44 -254h-222l124 708h330zM280 402h88q32 0 51 14t24 46q5 27 -8 43.5t-45 16.5h-88z" />
    <glyph glyph-name="rcaron" unicode="&#x159;" horiz-adv-x="467" 
d="M302 592l-151 85l25 144l151 -88l180 88l-25 -144zM303 460q42 48 95.5 78t108.5 30l-42 -237h-63q-60 0 -94.5 -21t-44.5 -79l-41 -231h-222l99 564h222z" />
    <glyph glyph-name="Sacute" unicode="&#x15a;" horiz-adv-x="621" 
d="M534 814l-207 -59l-20 76l192 93zM569 179q-7 -39 -29.5 -73t-59 -59t-86 -39.5t-109.5 -14.5q-131 0 -203.5 61t-74.5 173h236q-2 -19 1.5 -31t10.5 -19t15.5 -9t16.5 -2q17 0 29 8.5t15 26.5q5 27 -17 44t-57 32.5t-75.5 33.5t-73 47t-49.5 73.5t-5 112.5
q8 44 33.5 76.5t63 55t84.5 33.5t98 11q71 0 122 -16t84.5 -46t50 -72t17.5 -95h-239q3 34 -8.5 45t-27.5 11q-14 0 -24.5 -8t-13.5 -26q-4 -25 18 -40.5t56.5 -30t74.5 -32t72.5 -46.5t49 -73t4.5 -112z" />
    <glyph glyph-name="sacute" unicode="&#x15b;" horiz-adv-x="579" 
d="M488 670l-207 -59l-20 76l192 93zM298 571q66 0 114.5 -15.5t81 -42.5t50.5 -64t23 -80h-217q-3 28 -24 38t-47 10q-17 0 -29 -4t-14 -16q-3 -16 21.5 -25t61.5 -18t80 -21.5t77 -35.5t53 -59.5t8 -94.5q-6 -31 -25 -58.5t-51.5 -48t-78 -32t-105.5 -11.5
q-58 0 -106.5 13t-84 38.5t-57 63.5t-24.5 87h217q-1 -15 5 -24.5t16.5 -15t24 -7.5t27.5 -2q23 0 32 6t11 16q4 17 -20 26t-60.5 17.5t-78.5 20t-76 33.5t-53 59t-8 95q5 31 23.5 58.5t50 48.5t77 33t105.5 12z" />
    <glyph glyph-name="Scedilla" unicode="&#x15e;" horiz-adv-x="622" 
d="M294 513q-4 -25 18 -40.5t56.5 -30t74.5 -32t72.5 -46.5t49 -73t4.5 -112t-70.5 -118t-153.5 -64l-4 -24q18 0 39.5 -5.5t39 -19.5t26.5 -37.5t3 -59.5t-24.5 -59.5t-43 -37.5t-52 -19.5t-52.5 -5.5h-173l20 113h150q26 0 29 16q3 15 -23 15h-85l22 125
q-100 15 -154 73.5t-56 155.5h236q-2 -19 1.5 -31t10.5 -19t15.5 -9t16.5 -2q17 0 29 8.5t15 26.5q5 27 -17 44t-57 32.5t-75.5 33.5t-73 47t-49.5 73.5t-5 112.5q8 44 33.5 76.5t63 55t84.5 33.5t98 11q71 0 122 -16t84.5 -46t50 -72t17.5 -95h-239q3 34 -8.5 45t-27.5 11
q-14 0 -24.5 -8t-13.5 -26z" />
    <glyph glyph-name="scedilla" unicode="&#x15f;" horiz-adv-x="588" 
d="M236 397q-3 -16 21.5 -25t61.5 -18t80 -21.5t77 -35.5t53 -59.5t8 -94.5q-10 -51 -53.5 -90t-123.5 -53l-5 -27q18 0 39.5 -5.5t39 -19.5t26.5 -37.5t3 -59.5t-24.5 -59.5t-43 -37.5t-52 -19.5t-52.5 -5.5h-173l20 113h150q26 0 29 16q3 15 -23 15h-85l22 122
q-98 10 -159 60.5t-67 139.5h217q-1 -15 5 -24.5t16.5 -15t24 -7.5t27.5 -2q23 0 32 6t11 16q4 17 -20 26t-60.5 17.5t-78.5 20t-76 33.5t-53 59t-8 95q5 31 23.5 58.5t50 48.5t77 33t105.5 12q66 0 114.5 -15.5t81 -42.5t50.5 -64t23 -80h-217q-3 28 -24 38t-47 10
q-17 0 -29 -4t-14 -16z" />
    <glyph glyph-name="Scaron" unicode="&#x160;" horiz-adv-x="622" 
d="M553 821l-180 -85l-151 85l25 144l151 -88l180 88zM569 179q-7 -39 -29.5 -73t-59 -59t-86 -39.5t-109.5 -14.5q-131 0 -203.5 61t-74.5 173h236q-2 -19 1.5 -31t10.5 -19t15.5 -9t16.5 -2q17 0 29 8.5t15 26.5q5 27 -17 44t-57 32.5t-75.5 33.5t-73 47t-49.5 73.5
t-5 112.5q8 44 33.5 76.5t63 55t84.5 33.5t98 11q71 0 122 -16t84.5 -46t50 -72t17.5 -95h-239q3 34 -8.5 45t-27.5 11q-14 0 -24.5 -8t-13.5 -26q-4 -25 18 -40.5t56.5 -30t74.5 -32t72.5 -46.5t49 -73t4.5 -112z" />
    <glyph glyph-name="scaron" unicode="&#x161;" horiz-adv-x="588" 
d="M520 677l-180 -85l-151 85l25 144l151 -88l180 88zM298 571q66 0 114.5 -15.5t81 -42.5t50.5 -64t23 -80h-217q-3 28 -24 38t-47 10q-17 0 -29 -4t-14 -16q-3 -16 21.5 -25t61.5 -18t80 -21.5t77 -35.5t53 -59.5t8 -94.5q-6 -31 -25 -58.5t-51.5 -48t-78 -32
t-105.5 -11.5q-58 0 -106.5 13t-84 38.5t-57 63.5t-24.5 87h217q-1 -15 5 -24.5t16.5 -15t24 -7.5t27.5 -2q23 0 32 6t11 16q4 17 -20 26t-60.5 17.5t-78.5 20t-76 33.5t-53 59t-8 95q5 31 23.5 58.5t50 48.5t77 33t105.5 12z" />
    <glyph glyph-name="uni0162" unicode="&#x162;" horiz-adv-x="616" 
d="M668 708l-31 -176h-188l-94 -532q23 -20 31 -43t3 -54q-6 -36 -24.5 -59.5t-43 -37.5t-52 -19.5t-52.5 -5.5h-168l20 113h150q12 0 17 4t7 12t-2 11.5t-16 3.5h-105l107 607h-186l31 176h596z" />
    <glyph glyph-name="uni0163" unicode="&#x163;" horiz-adv-x="436" 
d="M289 227q-6 -38 35 -38h53l-34 -189h-69l-5 -27q18 0 39.5 -5.5t39 -19.5t27 -37.5t3.5 -59.5t-24.5 -59.5t-43 -37.5t-52 -19.5t-52.5 -5.5h-173l20 113h150q26 0 29 16q3 15 -23 15h-85l25 146q-51 21 -74 71t-7 141l26 148h-70l33 185h70l24 136h222l-24 -136h92
l-33 -185h-92z" />
    <glyph glyph-name="Tcaron" unicode="&#x164;" horiz-adv-x="616" 
d="M549 821l-180 -85l-151 85l25 144l151 -88l180 88zM668 708l-31 -176h-188l-93 -532h-222l93 532h-186l31 176h596z" />
    <glyph glyph-name="tcaron" unicode="&#x165;" horiz-adv-x="426" 
d="M563 890q7 -35 8 -63.5t-4 -60.5q-6 -33 -21 -61.5t-39 -50t-57 -33.5t-76 -12l14 79q55 0 62 39l3 17h-72l26 146h156zM337 564h92l-33 -185h-92l-27 -152q-6 -38 35 -38h53l-34 -189h-84q-49 0 -89.5 11.5t-67 38.5t-36.5 71t2 110l26 148h-70l33 185h70l24 136h222z
" />
    <glyph glyph-name="Utilde" unicode="&#x168;" horiz-adv-x="719" 
d="M412 901q20 0 35.5 -6t28.5 -13t25 -13t24 -6q30 0 43 39h90q-28 -80 -67.5 -112t-90.5 -32q-20 0 -35.5 6t-28.5 12.5l-25 12.5t-24 6q-30 0 -44 -39h-89q28 80 67.5 112.5t90.5 32.5zM330 708l-70 -399q-8 -46 6.5 -76t65.5 -30t78 30t35 76l70 399h221l-70 -399
q-14 -78 -49.5 -137.5t-86 -99t-112.5 -59.5t-128 -20t-119 20t-87 59.5t-46.5 99t1.5 137.5l70 399h221z" />
    <glyph glyph-name="utilde" unicode="&#x169;" horiz-adv-x="687" 
d="M346 651q-30 0 -44 -39h-89q28 80 67.5 112.5t90.5 32.5q20 0 35.5 -6t28.5 -13t25 -13t24 -6q30 0 43 39h90q-28 -80 -67.5 -112t-90.5 -32q-20 0 -35.5 6t-28.5 12.5l-25 12.5t-24 6zM687 564l-99 -564h-222l15 86q-31 -37 -78 -63.5t-111 -26.5q-49 0 -84 17t-56 48.5
t-27 76t3 99.5l58 327h221l-53 -299q-7 -41 10.5 -64t53.5 -23q37 0 62 23t32 64v-5l53 304h222z" />
    <glyph glyph-name="Umacron" unicode="&#x16a;" horiz-adv-x="719" 
d="M674 913l-26 -147h-431l26 147h431zM330 708l-70 -399q-8 -46 6.5 -76t65.5 -30t78 30t35 76l70 399h221l-70 -399q-14 -78 -49.5 -137.5t-86 -99t-112.5 -59.5t-128 -20t-119 20t-87 59.5t-46.5 99t1.5 137.5l70 399h221z" />
    <glyph glyph-name="umacron" unicode="&#x16b;" horiz-adv-x="697" 
d="M622 622h-431l26 147h431zM687 564l-99 -564h-222l15 86q-31 -37 -78 -63.5t-111 -26.5q-49 0 -84 17t-56 48.5t-27 76t3 99.5l58 327h221l-53 -299q-7 -41 10.5 -64t53.5 -23q37 0 62 23t32 64v-5l53 304h222z" />
    <glyph glyph-name="Ubreve" unicode="&#x16c;" horiz-adv-x="719" 
d="M429 744q-33 0 -59.5 10t-43.5 31t-23.5 52.5t0.5 74.5l2 14h85q-4 -24 8.5 -37.5t52.5 -13.5q41 0 58.5 13.5t21.5 37.5h85l-3 -14q-7 -43 -24.5 -74.5t-42 -52.5t-54.5 -31t-63 -10zM330 708l-70 -399q-8 -46 6.5 -76t65.5 -30t78 30t35 76l70 399h221l-70 -399
q-14 -78 -49.5 -137.5t-86 -99t-112.5 -59.5t-128 -20t-119 20t-87 59.5t-46.5 99t1.5 137.5l70 399h221z" />
    <glyph glyph-name="ubreve" unicode="&#x16d;" horiz-adv-x="687" 
d="M388 600q-33 0 -59.5 10t-43.5 31t-23.5 52.5t0.5 74.5l2 14h85q-4 -24 8.5 -37.5t52.5 -13.5q41 0 58.5 13.5t21.5 37.5h85l-3 -14q-7 -43 -24.5 -74.5t-42 -52.5t-54.5 -31t-63 -10zM687 564l-99 -564h-222l15 86q-31 -37 -78 -63.5t-111 -26.5q-49 0 -84 17t-56 48.5
t-27 76t3 99.5l58 327h221l-53 -299q-7 -41 10.5 -64t53.5 -23q37 0 62 23t32 64v-5l53 304h222z" />
    <glyph glyph-name="Uring" unicode="&#x16e;" horiz-adv-x="719" 
d="M460 1001q55 0 87.5 -35t21.5 -97q-5 -31 -19.5 -55.5t-35.5 -41.5t-47 -26t-53 -9q-55 0 -87 35.5t-22 96.5q5 31 19.5 55.5t35.5 41.5t47 26t53 9zM445 916q-20 0 -35 -12.5t-19 -34.5q-4 -21 7 -34t31 -13t35 13t19 34q4 22 -7 34.5t-31 12.5zM330 708l-70 -399
q-8 -46 6.5 -76t65.5 -30t78 30t35 76l70 399h221l-70 -399q-14 -78 -49.5 -137.5t-86 -99t-112.5 -59.5t-128 -20t-119 20t-87 59.5t-46.5 99t1.5 137.5l70 399h221z" />
    <glyph glyph-name="uring" unicode="&#x16f;" horiz-adv-x="697" 
d="M388 593q-55 0 -87 35.5t-22 96.5q5 31 19.5 55.5t35.5 41.5t47 26t53 9q55 0 87.5 -35t21.5 -97q-5 -31 -19.5 -55.5t-35.5 -41.5t-47 -26t-53 -9zM365 725q-4 -21 7 -34t31 -13t35 13t19 34q4 22 -7 34.5t-31 12.5t-35 -12.5t-19 -34.5zM687 564l-99 -564h-222l15 86
q-31 -37 -78 -63.5t-111 -26.5q-49 0 -84 17t-56 48.5t-27 76t3 99.5l58 327h221l-53 -299q-7 -41 10.5 -64t53.5 -23q37 0 62 23t32 64v-5l53 304h222z" />
    <glyph glyph-name="Uhungarumlaut" unicode="&#x170;" horiz-adv-x="719" 
d="M303 745h-133l124 244h168zM523 745h-133l149 244h168zM330 708l-70 -399q-8 -46 6.5 -76t65.5 -30t78 30t35 76l70 399h221l-70 -399q-14 -78 -49.5 -137.5t-86 -99t-112.5 -59.5t-128 -20t-119 20t-87 59.5t-46.5 99t1.5 137.5l70 399h221z" />
    <glyph glyph-name="uhungarumlaut" unicode="&#x171;" horiz-adv-x="697" 
d="M277 601h-133l124 244h168zM364 601l149 244h168l-184 -244h-133zM687 564l-99 -564h-222l15 86q-31 -37 -78 -63.5t-111 -26.5q-49 0 -84 17t-56 48.5t-27 76t3 99.5l58 327h221l-53 -299q-7 -41 10.5 -64t53.5 -23q37 0 62 23t32 64v-5l53 304h222z" />
    <glyph glyph-name="Uogonek" unicode="&#x172;" horiz-adv-x="719" 
d="M330 708l-71 -399q-7 -46 8 -76t65 -30q51 0 77.5 30t34.5 76l71 399h221l-71 -399q-11 -63 -38.5 -113.5t-64 -88t-79.5 -62t-84 -35.5q-23 -6 -30 -11.5t-8 -12.5q-3 -15 25 -15h133l-20 -112h-176q-22 0 -44.5 7.5t-39 23t-24.5 39.5t-2 58l2 14q-45 11 -82.5 36
t-62.5 63.5t-34 90.5t2 118l71 399h221z" />
    <glyph glyph-name="uogonek" unicode="&#x173;" horiz-adv-x="697" 
d="M445 -90q-3 -16 23 -16h145l-20 -113h-168q-25 0 -50.5 5.5t-45 19.5t-29 37.5t-3.5 59.5q7 38 26 62t43 38l15 83q-31 -37 -78 -63.5t-111 -26.5q-49 0 -84 17t-56 48.5t-27 76t3 99.5l58 327h221l-53 -299q-7 -41 10.5 -64t53.5 -23q37 0 62 23t32 64v-5l53 304h222
l-99 -564l-14 -75h-100q-26 0 -29 -15z" />
    <glyph glyph-name="Wcircumflex" unicode="&#x174;" horiz-adv-x="1100" 
d="M531 746l-22 89l149 70l124 -70l-43 -89l-96 50zM1132 708l-286 -708h-276l-12 402l-152 -402h-276l-38 708h239l-14 -446l174 446h242l17 -446l143 446h239z" />
    <glyph glyph-name="wcircumflex" unicode="&#x175;" horiz-adv-x="883" 
d="M398 602l-22 89l149 70l124 -70l-43 -89l-96 50zM936 564l-234 -564h-250l-12 318l-128 -318h-250l-33 564h220l-13 -343l133 343h237l16 -347l109 347h205z" />
    <glyph glyph-name="Ycircumflex" unicode="&#x176;" horiz-adv-x="730" 
d="M346 746l-22 89l149 70l124 -70l-43 -89l-96 50zM792 708l-341 -493l-37 -215h-222l37 215l-167 493h254l69 -251l157 251h250z" />
    <glyph glyph-name="ycircumflex" unicode="&#x177;" horiz-adv-x="667" 
d="M402 652l-112 -50l-22 89l149 70l124 -70l-43 -89zM271 564l55 -286l150 286h245l-509 -834h-243l195 298l-140 536h247z" />
    <glyph glyph-name="Ydieresis" unicode="&#x178;" horiz-adv-x="730" 
d="M320 764q-36 0 -56.5 24.5t-13.5 60.5q7 38 35.5 62.5t64.5 24.5q38 0 58.5 -24.5t13.5 -62.5q-7 -36 -35.5 -60.5t-66.5 -24.5zM545 764q-36 0 -56.5 24.5t-13.5 60.5q7 38 35.5 62.5t64.5 24.5q38 0 58.5 -24.5t13.5 -62.5q-7 -36 -35.5 -60.5t-66.5 -24.5zM792 708
l-341 -493l-37 -215h-222l37 215l-167 493h254l69 -251l157 251h250z" />
    <glyph glyph-name="Zacute" unicode="&#x179;" horiz-adv-x="630" 
d="M538 814l-207 -59l-20 76l192 93zM265 177h284l-31 -177h-530l29 167l344 365h-280l31 176h530l-29 -167z" />
    <glyph glyph-name="zacute" unicode="&#x17a;" horiz-adv-x="518" 
d="M457 670l-207 -59l-20 76l192 93zM246 184h235l-33 -184h-478l31 174l251 206h-212l33 184h465l-31 -174z" />
    <glyph glyph-name="Zdotaccent" unicode="&#x17b;" horiz-adv-x="629" 
d="M311 849q7 38 35.5 62.5t64.5 24.5q38 0 58.5 -24.5t13.5 -62.5q-7 -36 -35.5 -60.5t-66.5 -24.5q-36 0 -56.5 24.5t-13.5 60.5zM265 177h284l-31 -177h-530l29 167l344 365h-280l31 176h530l-29 -167z" />
    <glyph glyph-name="zdotaccent" unicode="&#x17c;" horiz-adv-x="518" 
d="M223 705q7 38 35.5 62.5t64.5 24.5q38 0 58.5 -24.5t13.5 -62.5q-7 -36 -35.5 -60.5t-66.5 -24.5q-36 0 -56.5 24.5t-13.5 60.5zM246 184h235l-33 -184h-478l31 174l251 206h-212l33 184h465l-31 -174z" />
    <glyph glyph-name="Zcaron" unicode="&#x17d;" horiz-adv-x="630" 
d="M556 821l-180 -85l-151 85l25 144l151 -88l180 88zM265 177h284l-31 -177h-530l29 167l344 365h-280l31 176h530l-29 -167z" />
    <glyph glyph-name="zcaron" unicode="&#x17e;" horiz-adv-x="519" 
d="M488 677l-180 -85l-151 85l25 144l151 -88l180 88zM246 184h235l-33 -184h-478l31 174l251 206h-212l33 184h465l-31 -174z" />
    <glyph glyph-name="florin" unicode="&#x192;" horiz-adv-x="340" 
d="M423 604q-26 0 -42.5 -7t-22.5 -28l-1 -5h62l-52 -185h-63l-134 -477q-18 -64 -49 -105t-71 -65t-87 -33t-97 -9h-33l51 190h38q10 0 16.5 6.5t9.5 15.5l135 477h-41l52 185h42l1 5q33 118 115.5 171t222.5 53z" />
    <glyph glyph-name="Ohorn" unicode="&#x1a0;" 
d="M788 810q-12 -67 -41.5 -115t-68.5 -79q45 -54 62 -130t0 -169q-12 -71 -45 -130.5t-82.5 -102.5t-115.5 -67t-144 -24q-92 0 -159.5 30t-108.5 83.5t-55 128t2 162.5q13 71 45.5 130.5t83 102.5t116 66.5t144.5 23.5q56 0 102 -12q46 2 76 23.5t40 78.5h149zM525 347
q14 77 -16.5 122.5t-103.5 45.5q-64 0 -104.5 -40t-52.5 -108q-13 -75 16.5 -121t104.5 -46q63 0 104 40.5t52 106.5z" />
    <glyph glyph-name="ohorn" unicode="&#x1a1;" horiz-adv-x="638" 
d="M688 666q-12 -66 -40.5 -113.5t-67.5 -78.5q28 -40 38 -93t-1 -119q-11 -63 -42.5 -113t-76.5 -84.5t-101.5 -53t-118.5 -18.5q-66 0 -119.5 21.5t-88 61t-48.5 97t-1 129.5q11 63 42.5 113t77.5 84.5t103 53t120 18.5q37 0 68 -6q42 2 69.5 24.5t37.5 76.5h149zM392 282
q9 51 -9 74t-47 23t-55 -23t-35 -74t8.5 -74t47.5 -23q29 0 55 23t35 74z" />
    <glyph glyph-name="Uhorn" unicode="&#x1af;" horiz-adv-x="719" 
d="M867 810q-15 -85 -56.5 -139t-95.5 -83l-49 -279q-14 -78 -49.5 -137.5t-86 -99t-112.5 -59.5t-128 -20t-119 20t-87 59.5t-46.5 99t1.5 137.5l70 399h221l-70 -399q-8 -46 6.5 -76t65.5 -30t78 30t35 76l70 399h80q49 0 80.5 21t42.5 81h149z" />
    <glyph glyph-name="uhorn" unicode="&#x1b0;" horiz-adv-x="687" 
d="M818 666q-15 -85 -56.5 -139t-95.5 -83l-78 -444h-222l15 86q-31 -37 -78 -63.5t-111 -26.5q-49 0 -84 17t-56 48.5t-27 76t3 99.5l58 327h221l-53 -299q-7 -41 10.5 -64t53.5 -23q37 0 62 23t32 64v-5l53 304h81q49 0 80.5 21t42.5 81h149z" />
    <glyph glyph-name="AEacute" unicode="&#x1fc;" horiz-adv-x="986" 
d="M669 755l-20 76l192 93l35 -110zM743 532l-15 -85h210l-29 -167h-210l-18 -103h240l-31 -177h-462l17 97h-204l-62 -97h-241l463 708h613l-31 -176h-240zM474 264l48 273l-174 -273h126z" />
    <glyph glyph-name="aeacute" unicode="&#x1fd;" horiz-adv-x="1054" 
d="M508 611l-20 76l192 93l35 -110zM847 571q52 0 92.5 -19.5t65.5 -56t33.5 -89.5t-3.5 -119q-2 -11 -5 -22t-8 -22h-391q-2 -45 16.5 -60.5t49.5 -15.5q29 0 47 9.5t29 26.5h235q-17 -45 -43.5 -83.5t-61 -66.5t-74.5 -44t-84 -16q-61 0 -99 22.5t-52 61.5l-14 -77h-221
l14 77q-27 -38 -70.5 -61t-100.5 -23q-49 0 -88 19.5t-64 56.5t-33.5 91t3.5 122t39.5 122t65.5 91t84 56.5t95 19.5q57 0 92 -23t49 -61l14 77h221l-14 -77q27 40 73.5 62t107.5 22zM818 334q6 33 -17 48t-57 15q-29 0 -55.5 -13t-40.5 -50h170zM409 282q8 47 -11 71
t-54 24t-63 -24t-36 -71t11 -71t54 -24t63 24t36 71z" />
    <glyph glyph-name="Scommaaccent" unicode="&#x218;" horiz-adv-x="626" 
d="M574 179q-7 -39 -29.5 -73t-59 -59t-86 -39.5t-109.5 -14.5q-131 0 -203.5 61t-74.5 173h236q-2 -19 1.5 -31t10.5 -19t15.5 -9t16.5 -2q17 0 29 8.5t15 26.5q5 27 -17 44t-57 32.5t-75.5 33.5t-73 47t-49.5 73.5t-5 112.5q8 44 33.5 76.5t63 55t84.5 33.5t98 11
q71 0 122 -16t84.5 -46t50 -72t17.5 -95h-239q3 34 -8.5 45t-27.5 11q-14 0 -24.5 -8t-13.5 -26q-4 -25 18 -40.5t56.5 -30t74.5 -32t72.5 -46.5t49 -73t4.5 -112zM378 -35q8 -35 8 -69t-6 -66q-6 -36 -21.5 -68t-40 -56t-58 -38t-76.5 -14l14 78q26 0 43.5 18t24.5 57l2 11
h-72l26 147h156z" />
    <glyph glyph-name="scommaaccent" unicode="&#x219;" horiz-adv-x="588" 
d="M308 571q66 0 114.5 -15.5t81 -42.5t50.5 -64t23 -80h-217q-3 28 -24 38t-47 10q-17 0 -29 -4t-14 -16q-3 -16 21.5 -25t61.5 -18t80 -21.5t77 -35.5t53 -59.5t8 -94.5q-6 -31 -25 -58.5t-51.5 -48t-78 -32t-105.5 -11.5q-58 0 -106.5 13t-84 38.5t-57 63.5t-24.5 87h217
q-1 -15 5 -24.5t16.5 -15t24 -7.5t27.5 -2q23 0 32 6t11 16q4 17 -20 26t-60.5 17.5t-78.5 20t-76 33.5t-53 59t-8 95q5 31 23.5 58.5t50 48.5t77 33t105.5 12zM338 -35q7 -35 6.5 -69t-5.5 -66q-6 -36 -21.5 -68t-40 -56t-58 -38t-75.5 -14l14 78q26 0 43.5 18t24.5 57
l2 11h-72l26 147h156z" />
    <glyph glyph-name="uni021A" unicode="&#x21a;" horiz-adv-x="616" 
d="M666 708l-31 -176h-188l-93 -532h-222l93 532h-186l31 176h596zM317 -35q8 -35 7.5 -69t-6.5 -66q-6 -36 -21.5 -68t-40 -56t-58 -38t-75.5 -14l14 78q26 0 43.5 18t24.5 57l2 11h-72l26 147h156z" />
    <glyph glyph-name="uni021B" unicode="&#x21b;" horiz-adv-x="436" 
d="M294 227q-6 -38 35 -38h53l-34 -189h-84q-49 0 -89.5 11.5t-67 38.5t-36.5 71t2 110l26 148h-70l33 185h70l24 136h222l-24 -136h92l-33 -185h-92zM306 -35q7 -35 7 -69t-5 -66q-6 -36 -21.5 -68t-40 -56t-58 -38t-76.5 -14l14 78q26 0 43.5 18t24.5 57l2 11h-72l26 147
h156z" />
    <glyph glyph-name="circumflex" unicode="&#x2c6;" horiz-adv-x="351" 
d="M236 672l-112 -50l-22 89l149 70l124 -70l-43 -89z" />
    <glyph glyph-name="caron" unicode="&#x2c7;" horiz-adv-x="351" 
d="M396 677l-180 -85l-151 85l25 144l151 -88l180 88z" />
    <glyph glyph-name="breve" unicode="&#x2d8;" horiz-adv-x="395" 
d="M245 600q-33 0 -59.5 10t-43.5 31t-23.5 52.5t0.5 74.5l2 14h85q-4 -24 8.5 -37.5t52.5 -13.5q41 0 58.5 13.5t21.5 37.5h85l-3 -14q-7 -43 -24.5 -74.5t-42 -52.5t-54.5 -31t-63 -10z" />
    <glyph glyph-name="dotaccent" unicode="&#x2d9;" horiz-adv-x="192" 
d="M70 705q7 38 35.5 62.5t64.5 24.5q38 0 58.5 -24.5t13.5 -62.5q-7 -36 -35.5 -60.5t-66.5 -24.5q-36 0 -56.5 24.5t-13.5 60.5z" />
    <glyph glyph-name="ring" unicode="&#x2da;" horiz-adv-x="283" 
d="M225 857q55 0 87.5 -35t21.5 -97q-5 -31 -19.5 -55.5t-35.5 -41.5t-47 -26t-53 -9q-55 0 -87 35.5t-22 96.5q5 31 19.5 55.5t35.5 41.5t47 26t53 9zM210 772q-20 0 -35 -12.5t-19 -34.5q-4 -21 7 -34t31 -13t35 13t19 34q4 22 -7 34.5t-31 12.5z" />
    <glyph glyph-name="ogonek" unicode="&#x2db;" horiz-adv-x="318" 
d="M295 25l-18 -100h-100q-26 0 -29 -15q-3 -16 23 -16h145l-20 -113h-168q-25 0 -50.5 5.5t-45 19.5t-29 37.5t-3.5 59.5t24 59.5t40.5 37.5t46 19.5t41.5 5.5h143z" />
    <glyph glyph-name="tilde" unicode="&#x2dc;" horiz-adv-x="458" 
d="M245 757q20 0 35.5 -6t28.5 -13t25 -13t24 -6q30 0 43 39h90q-28 -80 -67.5 -112t-90.5 -32q-20 0 -35.5 6t-28.5 12.5l-25 12.5t-24 6q-30 0 -44 -39h-89q28 80 67.5 112.5t90.5 32.5z" />
    <glyph glyph-name="hungarumlaut" unicode="&#x2dd;" horiz-adv-x="513" 
d="M181 601h-133l124 244h168zM401 601h-133l149 244h168z" />
    <glyph glyph-name="gravecomb" unicode="&#x300;" horiz-adv-x="0" 
d="M4 684l-41 -82l-180 68l48 112z" />
    <glyph glyph-name="acutecomb" unicode="&#x301;" horiz-adv-x="0" 
d="M43 670l-207 -59l-20 76l192 93z" />
    <glyph glyph-name="uni0302" unicode="&#x302;" horiz-adv-x="0" 
d="M-115 672l-112 -50l-22 89l149 70l124 -70l-43 -89z" />
    <glyph glyph-name="tildecomb" unicode="&#x303;" horiz-adv-x="0" 
d="M-213 757q20 0 35.5 -6t28.5 -13t25 -13t24 -6q29 0 43 39h90q-28 -80 -67.5 -112t-90.5 -32q-20 0 -35.5 6t-28.5 12.5l-25 12.5t-24 6q-30 0 -44 -39h-89q28 80 67.5 112.5t90.5 32.5z" />
    <glyph glyph-name="uni0306" unicode="&#x306;" horiz-adv-x="0" 
d="M-150 600q-33 0 -59.5 10t-43.5 31t-24 52.5t1 74.5l2 14h85q-4 -24 8.5 -37.5t52.5 -13.5q41 0 58.5 13.5t21.5 37.5h85l-3 -14q-7 -43 -24.5 -74.5t-42 -52.5t-54.5 -31t-63 -10z" />
    <glyph glyph-name="hookabovecomb" unicode="&#x309;" horiz-adv-x="0" 
d="M-268 784q30 0 49 -8.5t29.5 -23t13.5 -33.5t-1 -41q-3 -19 -13 -35.5t-24.5 -31.5t-33 -30t-37.5 -33l-49 49q36 29 48 48.5t14 32.5q2 11 -4 14t-12 3q-8 0 -16 -4.5t-16 -27.5l-88 10q6 22 15.5 42t25 35.5t39.5 24.5t60 9z" />
    <glyph glyph-name="uni031B" unicode="&#x31b;" horiz-adv-x="0" 
d="M-374 564q49 0 80.5 21t42.5 81h149q-12 -70 -44 -119.5t-74 -80.5t-89.5 -45.5t-92.5 -14.5z" />
    <glyph glyph-name="dotbelowcomb" unicode="&#x323;" horiz-adv-x="0" 
d="M-257 -152q6 34 32 56.5t59 22.5q34 0 52.5 -22.5t12.5 -56.5q-6 -33 -32 -55t-61 -22q-32 0 -51 22t-12 55z" />
    <glyph glyph-name="pi" unicode="&#x3c0;" horiz-adv-x="708" 
d="M753 564l-30 -166h-65l-70 -398h-222l70 398h-119l-70 -398h-222l70 398h-65l30 166h693z" />
    <glyph glyph-name="Wgrave" unicode="&#x1e80;" horiz-adv-x="1100" 
d="M739 746l-180 68l48 112l173 -98zM1132 708l-286 -708h-276l-12 402l-152 -402h-276l-38 708h239l-14 -446l174 446h242l17 -446l143 446h239z" />
    <glyph glyph-name="wgrave" unicode="&#x1e81;" horiz-adv-x="883" 
d="M606 602l-180 68l48 112l173 -98zM936 564l-234 -564h-250l-12 318l-128 -318h-250l-33 564h220l-13 -343l133 343h237l16 -347l109 347h205z" />
    <glyph glyph-name="Wacute" unicode="&#x1e82;" horiz-adv-x="1100" 
d="M566 755l-20 76l192 93l35 -110zM1132 708l-286 -708h-276l-12 402l-152 -402h-276l-38 708h239l-14 -446l174 446h242l17 -446l143 446h239z" />
    <glyph glyph-name="wacute" unicode="&#x1e83;" horiz-adv-x="883" 
d="M433 611l-20 76l192 93l35 -110zM936 564l-234 -564h-250l-12 318l-128 -318h-250l-33 564h220l-13 -343l133 343h237l16 -347l109 347h205z" />
    <glyph glyph-name="Wdieresis" unicode="&#x1e84;" horiz-adv-x="1100" 
d="M505 764q-36 0 -56.5 24.5t-13.5 60.5q7 38 35.5 62.5t64.5 24.5q38 0 58.5 -24.5t13.5 -62.5q-7 -36 -35.5 -60.5t-66.5 -24.5zM730 764q-36 0 -56.5 24.5t-13.5 60.5q7 38 35.5 62.5t64.5 24.5q38 0 58.5 -24.5t13.5 -62.5q-7 -36 -35.5 -60.5t-66.5 -24.5zM1132 708
l-286 -708h-276l-12 402l-152 -402h-276l-38 708h239l-14 -446l174 446h242l17 -446l143 446h239z" />
    <glyph glyph-name="wdieresis" unicode="&#x1e85;" horiz-adv-x="903" 
d="M394 620q-36 0 -56.5 24.5t-13.5 60.5q7 38 35.5 62.5t64.5 24.5q38 0 58.5 -24.5t13.5 -62.5q-7 -36 -35.5 -60.5t-66.5 -24.5zM619 620q-36 0 -56.5 24.5t-13.5 60.5q7 38 35.5 62.5t64.5 24.5q38 0 58.5 -24.5t13.5 -62.5q-7 -36 -35.5 -60.5t-66.5 -24.5zM936 564
l-234 -564h-250l-12 318l-128 -318h-250l-33 564h220l-13 -343l133 343h237l16 -347l109 347h205z" />
    <glyph glyph-name="uni1EA0" unicode="&#x1ea0;" horiz-adv-x="773" 
d="M477 0l-16 107h-236l-54 -107h-233l383 708h256l134 -708h-234zM436 274l-29 197l-99 -197h128zM324 -73q34 0 52.5 -22.5t12.5 -56.5q-6 -33 -32 -55t-61 -22q-32 0 -51 22t-12 55q6 34 32 56.5t59 22.5z" />
    <glyph glyph-name="uni1EA1" unicode="&#x1ea1;" horiz-adv-x="683" 
d="M297 571q60 0 98.5 -23t52.5 -61l14 77h221l-100 -564h-221l14 77q-27 -38 -70.5 -61t-100.5 -23q-52 0 -92 21t-64 61t-31.5 97t5.5 130q11 64 38 114t63.5 84.5t81 52.5t91.5 18zM347 377q-35 0 -63 -24t-36 -71t11 -71t54 -24t63 24t36 71t-11 71t-54 24zM188 -152
q6 34 32 56.5t59 22.5q34 0 52.5 -22.5t12.5 -56.5q-6 -33 -32 -55t-61 -22q-32 0 -51 22t-12 55z" />
    <glyph glyph-name="uni1EA2" unicode="&#x1ea2;" horiz-adv-x="773" 
d="M463 901q-8 0 -16 -4.5t-16 -27.5l-88 10q6 22 15.5 42t25.5 35.5t39.5 24.5t59.5 9q30 0 49 -8.5t29.5 -23t13.5 -33.5t-1 -41q-3 -19 -13 -35.5t-24.5 -31.5t-32.5 -30t-38 -33l-49 49q36 29 48 48.5t14 32.5q2 11 -4 14t-12 3zM461 107h-236l-54 -107h-233l383 708
h256l134 -708h-234zM436 274l-29 197l-99 -197h128z" />
    <glyph glyph-name="uni1EA3" unicode="&#x1ea3;" horiz-adv-x="683" 
d="M433 846q30 0 49 -8.5t29.5 -23t13.5 -33.5t-1 -41q-3 -19 -13 -35.5t-24.5 -31.5t-32.5 -30t-38 -33l-49 49q36 29 48 48.5t14 32.5q2 11 -4 14t-12 3q-8 0 -16 -4.5t-16 -27.5l-88 10q6 22 15.5 42t25.5 35.5t39.5 24.5t59.5 9zM297 571q60 0 98.5 -23t52.5 -61l14 77
h221l-100 -564h-221l14 77q-27 -38 -70.5 -61t-100.5 -23q-52 0 -92 21t-64 61t-31.5 97t5.5 130q11 64 38 114t63.5 84.5t81 52.5t91.5 18zM347 377q-35 0 -63 -24t-36 -71t11 -71t54 -24t63 24t36 71t-11 71t-54 24z" />
    <glyph glyph-name="uni1EA4" unicode="&#x1ea4;" horiz-adv-x="773" 
d="M409 899l-19 70l175 84l32 -100zM357 742l-20 81l135 64l113 -64l-39 -81l-87 46zM461 107h-236l-54 -107h-233l383 708h256l134 -708h-234zM436 274l-29 197l-99 -197h128z" />
    <glyph glyph-name="uni1EA5" unicode="&#x1ea5;" horiz-adv-x="683" 
d="M547 809l-188 -54l-19 70l175 84zM409 644l-102 -46l-20 81l135 64l113 -64l-39 -81zM297 571q60 0 98.5 -23t52.5 -61l14 77h221l-100 -564h-221l14 77q-27 -38 -70.5 -61t-100.5 -23q-52 0 -92 21t-64 61t-31.5 97t5.5 130q11 64 38 114t63.5 84.5t81 52.5t91.5 18z
M347 377q-35 0 -63 -24t-36 -71t11 -71t54 -24t63 24t36 71t-11 71t-54 24z" />
    <glyph glyph-name="uni1EA6" unicode="&#x1ea6;" horiz-adv-x="773" 
d="M570 892l-164 62l44 102l157 -89zM357 742l-20 81l135 64l113 -64l-39 -81l-87 46zM461 107h-236l-54 -107h-233l383 708h256l134 -708h-234zM436 274l-29 197l-99 -197h128z" />
    <glyph glyph-name="uni1EA7" unicode="&#x1ea7;" horiz-adv-x="683" 
d="M557 823l-37 -75l-164 62l44 102zM409 644l-102 -46l-20 81l135 64l113 -64l-39 -81zM297 571q60 0 98.5 -23t52.5 -61l14 77h221l-100 -564h-221l14 77q-27 -38 -70.5 -61t-100.5 -23q-52 0 -92 21t-64 61t-31.5 97t5.5 130q11 64 38 114t63.5 84.5t81 52.5t91.5 18z
M347 377q-35 0 -63 -24t-36 -71t11 -71t54 -24t63 24t36 71t-11 71t-54 24z" />
    <glyph glyph-name="uni1EA8" unicode="&#x1ea8;" horiz-adv-x="773" 
d="M608 993q-8 0 -15 -4.5t-14 -24.5l-80 9q6 20 14 38t22.5 32t36 22.5t54.5 8.5q54 0 72 -28.5t11 -68.5q-7 -35 -35 -60.5t-64 -57.5l-44 45q32 26 43 44t13 29t-3.5 13.5t-10.5 2.5zM357 742l-20 81l135 64l113 -64l-39 -81l-87 46zM577 708l134 -708h-234l-16 107h-236
l-54 -107h-233l383 708h256zM436 274l-29 197l-99 -197h128z" />
    <glyph glyph-name="uni1EA9" unicode="&#x1ea9;" horiz-adv-x="683" 
d="M576 930q54 0 72 -28.5t11 -68.5q-7 -35 -35 -60.5t-64 -57.5l-44 45q32 26 43 44t13 29t-3.5 13.5t-10.5 2.5q-8 0 -15 -4.5t-14 -24.5l-80 9q6 20 14 38t22.5 32t36 22.5t54.5 8.5zM409 644l-102 -46l-20 81l135 64l113 -64l-39 -81zM297 571q60 0 98.5 -23t52.5 -61
l14 77h221l-100 -564h-221l14 77q-27 -38 -70.5 -61t-100.5 -23q-52 0 -92 21t-64 61t-31.5 97t5.5 130q11 64 38 114t63.5 84.5t81 52.5t91.5 18zM347 377q-35 0 -63 -24t-36 -71t11 -71t54 -24t63 24t36 71t-11 71t-54 24z" />
    <glyph glyph-name="uni1EAA" unicode="&#x1eaa;" horiz-adv-x="773" 
d="M448 923q-21 0 -33 -29h-67q21 60 51 84.5t68 24.5q15 0 27 -4.5t21.5 -10t18.5 -10t18 -4.5q23 0 32 29h68q-21 -60 -51 -84t-68 -24q-15 0 -26.5 4.5t-21.5 9.5l-19 9.5t-18 4.5zM357 742l-20 81l135 64l113 -64l-39 -81l-87 46zM461 107h-236l-54 -107h-233l383 708
h256l134 -708h-234zM436 274l-29 197l-99 -197h128z" />
    <glyph glyph-name="uni1EAB" unicode="&#x1eab;" horiz-adv-x="683" 
d="M417 859q15 0 27 -4.5t21.5 -10t18.5 -10t18 -4.5q23 0 32 29h68q-21 -60 -51 -84t-68 -24q-15 0 -26.5 4.5t-21.5 9.5l-19 9.5t-18 4.5q-21 0 -33 -29h-67q21 60 51 84.5t68 24.5zM409 644l-102 -46l-20 81l135 64l113 -64l-39 -81zM297 571q60 0 98.5 -23t52.5 -61
l14 77h221l-100 -564h-221l14 77q-27 -38 -70.5 -61t-100.5 -23q-52 0 -92 21t-64 61t-31.5 97t5.5 130q11 64 38 114t63.5 84.5t81 52.5t91.5 18zM347 377q-35 0 -63 -24t-36 -71t11 -71t54 -24t63 24t36 71t-11 71t-54 24z" />
    <glyph glyph-name="uni1EAC" unicode="&#x1eac;" horiz-adv-x="773" 
d="M348 746l-22 89l149 70l124 -70l-43 -89l-96 50zM477 0l-16 107h-236l-54 -107h-233l383 708h256l134 -708h-234zM436 274l-29 197l-99 -197h128zM324 -73q34 0 52.5 -22.5t12.5 -56.5q-6 -33 -32 -55t-61 -22q-32 0 -51 22t-12 55q6 34 32 56.5t59 22.5z" />
    <glyph glyph-name="uni1EAD" unicode="&#x1ead;" horiz-adv-x="683" 
d="M410 652l-112 -50l-22 89l149 70l124 -70l-43 -89zM297 571q60 0 98.5 -23t52.5 -61l14 77h221l-100 -564h-221l14 77q-27 -38 -70.5 -61t-100.5 -23q-52 0 -92 21t-64 61t-31.5 97t5.5 130q11 64 38 114t63.5 84.5t81 52.5t91.5 18zM347 377q-35 0 -63 -24t-36 -71
t11 -71t54 -24t63 24t36 71t-11 71t-54 24zM188 -152q6 34 32 56.5t59 22.5q34 0 52.5 -22.5t12.5 -56.5q-6 -33 -32 -55t-61 -22q-32 0 -51 22t-12 55z" />
    <glyph glyph-name="uni1EAE" unicode="&#x1eae;" horiz-adv-x="773" 
d="M424 948l-19 70l175 84l32 -100zM437 740q-30 0 -54 9.5t-40 28.5t-22 47.5t1 67.5l2 13h77q-3 -22 8.5 -34t47.5 -12q37 0 53 12t19 34h78l-3 -13q-13 -77 -60.5 -115t-106.5 -38zM461 107h-236l-54 -107h-233l383 708h256l134 -708h-234zM436 274l-29 197l-99 -197h128
z" />
    <glyph glyph-name="uni1EAF" unicode="&#x1eaf;" horiz-adv-x="683" 
d="M562 858l-188 -54l-19 70l175 84zM387 596q-30 0 -54 9.5t-40 28.5t-22 47.5t1 67.5l2 13h77q-3 -22 8.5 -34t47.5 -12q37 0 53 12t19 34h78l-3 -13q-13 -77 -60.5 -115t-106.5 -38zM297 571q60 0 98.5 -23t52.5 -61l14 77h221l-100 -564h-221l14 77q-27 -38 -70.5 -61
t-100.5 -23q-52 0 -92 21t-64 61t-31.5 97t5.5 130q11 64 38 114t63.5 84.5t81 52.5t91.5 18zM347 377q-35 0 -63 -24t-36 -71t11 -71t54 -24t63 24t36 71t-11 71t-54 24z" />
    <glyph glyph-name="uni1EB0" unicode="&#x1eb0;" horiz-adv-x="773" 
d="M560 940l-164 62l44 102l157 -89zM437 740q-30 0 -54 9.5t-40 28.5t-22 47.5t1 67.5l2 13h77q-3 -22 8.5 -34t47.5 -12q37 0 53 12t19 34h78l-3 -13q-13 -77 -60.5 -115t-106.5 -38zM461 107h-236l-54 -107h-233l383 708h256l134 -708h-234zM436 274l-29 197l-99 -197
h128z" />
    <glyph glyph-name="uni1EB1" unicode="&#x1eb1;" horiz-adv-x="683" 
d="M547 871l-37 -75l-164 62l44 102zM387 596q-30 0 -54 9.5t-40 28.5t-22 47.5t1 67.5l2 13h77q-3 -22 8.5 -34t47.5 -12q37 0 53 12t19 34h78l-3 -13q-13 -77 -60.5 -115t-106.5 -38zM297 571q60 0 98.5 -23t52.5 -61l14 77h221l-100 -564h-221l14 77q-27 -38 -70.5 -61
t-100.5 -23q-52 0 -92 21t-64 61t-31.5 97t5.5 130q11 64 38 114t63.5 84.5t81 52.5t91.5 18zM347 377q-35 0 -63 -24t-36 -71t11 -71t54 -24t63 24t36 71t-11 71t-54 24z" />
    <glyph glyph-name="uni1EB2" unicode="&#x1eb2;" horiz-adv-x="773" 
d="M458 1051q-8 0 -15 -4.5t-14 -24.5l-80 9q6 20 14 38t22.5 32t36 22.5t54.5 8.5q54 0 72 -28.5t11 -68.5q-7 -35 -35 -60.5t-64 -57.5l-44 45q32 26 43 44t13 29t-3.5 13.5t-10.5 2.5zM437 740q-30 0 -54 9.5t-40 28.5t-22 47.5t1 67.5l2 13h77q-3 -22 8.5 -34t47.5 -12
q37 0 53 12t19 34h78l-3 -13q-13 -77 -60.5 -115t-106.5 -38zM461 107h-236l-54 -107h-233l383 708h256l134 -708h-234zM436 274l-29 197l-99 -197h128z" />
    <glyph glyph-name="uni1EB3" unicode="&#x1eb3;" horiz-adv-x="683" 
d="M426 988q54 0 72 -28.5t11 -68.5q-7 -35 -35 -60.5t-64 -57.5l-44 45q32 26 43 44t13 29t-3.5 13.5t-10.5 2.5q-8 0 -15 -4.5t-14 -24.5l-80 9q6 20 14 38t22.5 32t36 22.5t54.5 8.5zM387 596q-30 0 -54 9.5t-40 28.5t-22 47.5t1 67.5l2 13h77q-3 -22 8.5 -34t47.5 -12
q37 0 53 12t19 34h78l-3 -13q-13 -77 -60.5 -115t-106.5 -38zM297 571q60 0 98.5 -23t52.5 -61l14 77h221l-100 -564h-221l14 77q-27 -38 -70.5 -61t-100.5 -23q-52 0 -92 21t-64 61t-31.5 97t5.5 130q11 64 38 114t63.5 84.5t81 52.5t91.5 18zM347 377q-35 0 -63 -24
t-36 -71t11 -71t54 -24t63 24t36 71t-11 71t-54 24z" />
    <glyph glyph-name="uni1EB4" unicode="&#x1eb4;" horiz-adv-x="773" 
d="M434 968q-27 0 -40 -36h-81q26 73 61.5 102.5t82.5 29.5q18 0 32 -5.5t26 -11.5t22.5 -11.5t21.5 -5.5q27 0 40 35h81q-25 -72 -60.5 -101.5t-82.5 -29.5q-18 0 -32.5 5.5t-26.5 11.5t-22.5 11.5t-21.5 5.5zM401 906q-3 -22 8.5 -34t47.5 -12q37 0 53 12t19 34h78l-3 -13
q-13 -77 -60.5 -115t-106.5 -38q-30 0 -54 9.5t-40 28.5t-22 47.5t1 67.5l2 13h77zM461 107h-236l-54 -107h-233l383 708h256l134 -708h-234zM436 274l-29 197l-99 -197h128z" />
    <glyph glyph-name="uni1EB5" unicode="&#x1eb5;" horiz-adv-x="683" 
d="M407 920q18 0 32 -5.5t26 -11.5t22.5 -11.5t21.5 -5.5q27 0 40 35h81q-25 -72 -60.5 -101.5t-82.5 -29.5q-18 0 -32.5 5.5t-26.5 11.5t-22.5 11.5t-21.5 5.5q-27 0 -40 -36h-81q26 73 61.5 102.5t82.5 29.5zM387 596q-30 0 -54 9.5t-40 28.5t-22 47.5t1 67.5l2 13h77
q-3 -22 8.5 -34t47.5 -12q37 0 53 12t19 34h78l-3 -13q-13 -77 -60.5 -115t-106.5 -38zM297 571q60 0 98.5 -23t52.5 -61l14 77h221l-100 -564h-221l14 77q-27 -38 -70.5 -61t-100.5 -23q-52 0 -92 21t-64 61t-31.5 97t5.5 130q11 64 38 114t63.5 84.5t81 52.5t91.5 18z
M347 377q-35 0 -63 -24t-36 -71t11 -71t54 -24t63 24t36 71t-11 71t-54 24z" />
    <glyph glyph-name="uni1EB6" unicode="&#x1eb6;" horiz-adv-x="773" 
d="M436 744q-33 0 -59.5 10t-43.5 31t-23.5 52.5t0.5 74.5l2 14h85q-4 -24 8.5 -37.5t52.5 -13.5q41 0 58.5 13.5t21.5 37.5h85l-3 -14q-7 -43 -24.5 -74.5t-42 -52.5t-54.5 -31t-63 -10zM477 0l-16 107h-236l-54 -107h-233l383 708h256l134 -708h-234zM436 274l-29 197
l-99 -197h128zM324 -73q34 0 52.5 -22.5t12.5 -56.5q-6 -33 -32 -55t-61 -22q-32 0 -51 22t-12 55q6 34 32 56.5t59 22.5z" />
    <glyph glyph-name="uni1EB7" unicode="&#x1eb7;" horiz-adv-x="683" 
d="M386 600q-33 0 -59.5 10t-43.5 31t-23.5 52.5t0.5 74.5l2 14h85q-4 -24 8.5 -37.5t52.5 -13.5q41 0 58.5 13.5t21.5 37.5h85l-3 -14q-7 -43 -24.5 -74.5t-42 -52.5t-54.5 -31t-63 -10zM297 571q60 0 98.5 -23t52.5 -61l14 77h221l-100 -564h-221l14 77q-27 -38 -70.5 -61
t-100.5 -23q-52 0 -92 21t-64 61t-31.5 97t5.5 130q11 64 38 114t63.5 84.5t81 52.5t91.5 18zM347 377q-35 0 -63 -24t-36 -71t11 -71t54 -24t63 24t36 71t-11 71t-54 24zM188 -152q6 34 32 56.5t59 22.5q34 0 52.5 -22.5t12.5 -56.5q-6 -33 -32 -55t-61 -22q-32 0 -51 22
t-12 55z" />
    <glyph glyph-name="uni1EB8" unicode="&#x1eb8;" horiz-adv-x="556" 
d="M303 532l-15 -88h220l-30 -167h-220l-17 -100h250l-31 -177h-472l124 708h472l-31 -176h-250zM124 -152q6 34 32 56.5t59 22.5q34 0 52.5 -22.5t12.5 -56.5q-6 -33 -32 -55t-61 -22q-32 0 -51 22t-12 55z" />
    <glyph glyph-name="uni1EB9" unicode="&#x1eb9;" horiz-adv-x="617" 
d="M358 571q63 0 112.5 -19.5t81.5 -56t44 -89.5t0 -119q-2 -11 -5 -22t-8 -22h-354q-5 -45 9.5 -59t37.5 -14q22 0 36 10t22 23h235q-17 -45 -46.5 -83.5t-70 -66.5t-90 -44t-106.5 -16q-63 0 -112 20.5t-80.5 59.5t-43 94.5t0.5 125.5q12 65 42.5 116.5t75 87.5t100.5 55
t119 19zM379 334q6 34 -10.5 48.5t-41.5 14.5q-60 0 -81 -63h133zM246 -73q34 0 52.5 -22.5t12.5 -56.5q-6 -33 -32 -55t-61 -22q-32 0 -51 22t-12 55q6 34 32 56.5t59 22.5z" />
    <glyph glyph-name="uni1EBA" unicode="&#x1eba;" horiz-adv-x="556" 
d="M394 990q30 0 49 -8.5t29.5 -23t13.5 -33.5t-1 -41q-3 -19 -13 -35.5t-24.5 -31.5t-32.5 -30t-38 -33l-49 49q36 29 48 48.5t14 32.5q2 11 -4 14t-12 3q-8 0 -16 -4.5t-16 -27.5l-88 10q6 22 15.5 42t25.5 35.5t39.5 24.5t59.5 9zM303 532l-15 -88h220l-30 -167h-220
l-17 -100h250l-31 -177h-472l124 708h472l-31 -176h-250z" />
    <glyph glyph-name="uni1EBB" unicode="&#x1ebb;" horiz-adv-x="617" 
d="M380 757q-8 0 -16 -4.5t-16 -27.5l-88 10q6 22 15.5 42t25.5 35.5t39.5 24.5t59.5 9q30 0 49 -8.5t29.5 -23t13.5 -33.5t-1 -41q-3 -19 -13 -35.5t-24.5 -31.5t-32.5 -30t-38 -33l-49 49q36 29 48 48.5t14 32.5q2 11 -4 14t-12 3zM358 571q63 0 112.5 -19.5t81.5 -56
t44 -89.5t0 -119q-2 -11 -5 -22t-8 -22h-354q-5 -45 9.5 -59t37.5 -14q22 0 36 10t22 23h235q-17 -45 -46.5 -83.5t-70 -66.5t-90 -44t-106.5 -16q-63 0 -112 20.5t-80.5 59.5t-43 94.5t0.5 125.5q12 65 42.5 116.5t75 87.5t100.5 55t119 19zM379 334q6 34 -10.5 48.5
t-41.5 14.5q-60 0 -81 -63h133z" />
    <glyph glyph-name="uni1EBC" unicode="&#x1ebc;" horiz-adv-x="556" 
d="M330 901q20 0 35.5 -6t28.5 -13t25 -13t24 -6q30 0 43 39h90q-28 -80 -67.5 -112t-90.5 -32q-20 0 -35.5 6t-28.5 12.5l-25 12.5t-24 6q-30 0 -44 -39h-89q28 80 67.5 112.5t90.5 32.5zM303 532l-15 -88h220l-30 -167h-220l-17 -100h250l-31 -177h-472l124 708h472
l-31 -176h-250z" />
    <glyph glyph-name="uni1EBD" unicode="&#x1ebd;" horiz-adv-x="617" 
d="M311 651q-30 0 -44 -39h-89q28 80 67.5 112.5t90.5 32.5q20 0 35.5 -6t28.5 -13t25 -13t24 -6q30 0 43 39h90q-28 -80 -67.5 -112t-90.5 -32q-20 0 -35.5 6t-28.5 12.5l-25 12.5t-24 6zM358 571q63 0 112.5 -19.5t81.5 -56t44 -89.5t0 -119q-2 -11 -5 -22t-8 -22h-354
q-5 -45 9.5 -59t37.5 -14q22 0 36 10t22 23h235q-17 -45 -46.5 -83.5t-70 -66.5t-90 -44t-106.5 -16q-63 0 -112 20.5t-80.5 59.5t-43 94.5t0.5 125.5q12 65 42.5 116.5t75 87.5t100.5 55t119 19zM379 334q6 34 -10.5 48.5t-41.5 14.5q-60 0 -81 -63h133z" />
    <glyph glyph-name="uni1EBE" unicode="&#x1ebe;" horiz-adv-x="556" 
d="M508 953l-188 -54l-19 70l175 84zM370 788l-102 -46l-20 81l135 64l113 -64l-39 -81zM303 532l-15 -88h220l-30 -167h-220l-17 -100h250l-31 -177h-472l124 708h472l-31 -176h-250z" />
    <glyph glyph-name="uni1EBF" unicode="&#x1ebf;" horiz-adv-x="617" 
d="M326 755l-19 70l175 84l32 -100zM274 598l-20 81l135 64l113 -64l-39 -81l-87 46zM358 571q63 0 112.5 -19.5t81.5 -56t44 -89.5t0 -119q-2 -11 -5 -22t-8 -22h-354q-5 -45 9.5 -59t37.5 -14q22 0 36 10t22 23h235q-17 -45 -46.5 -83.5t-70 -66.5t-90 -44t-106.5 -16
q-63 0 -112 20.5t-80.5 59.5t-43 94.5t0.5 125.5q12 65 42.5 116.5t75 87.5t100.5 55t119 19zM379 334q6 34 -10.5 48.5t-41.5 14.5q-60 0 -81 -63h133z" />
    <glyph glyph-name="uni1EC0" unicode="&#x1ec0;" horiz-adv-x="556" 
d="M518 967l-37 -75l-164 62l44 102zM370 788l-102 -46l-20 81l135 64l113 -64l-39 -81zM303 532l-15 -88h220l-30 -167h-220l-17 -100h250l-31 -177h-472l124 708h472l-31 -176h-250z" />
    <glyph glyph-name="uni1EC1" unicode="&#x1ec1;" horiz-adv-x="617" 
d="M487 748l-164 62l44 102l157 -89zM274 598l-20 81l135 64l113 -64l-39 -81l-87 46zM358 571q63 0 112.5 -19.5t81.5 -56t44 -89.5t0 -119q-2 -11 -5 -22t-8 -22h-354q-5 -45 9.5 -59t37.5 -14q22 0 36 10t22 23h235q-17 -45 -46.5 -83.5t-70 -66.5t-90 -44t-106.5 -16
q-63 0 -112 20.5t-80.5 59.5t-43 94.5t0.5 125.5q12 65 42.5 116.5t75 87.5t100.5 55t119 19zM379 334q6 34 -10.5 48.5t-41.5 14.5q-60 0 -81 -63h133z" />
    <glyph glyph-name="uni1EC2" unicode="&#x1ec2;" horiz-adv-x="556" 
d="M537 1074q54 0 72 -28.5t11 -68.5q-7 -35 -35 -60.5t-64 -57.5l-44 45q32 26 43 44t13 29t-3.5 13.5t-10.5 2.5q-8 0 -15 -4.5t-14 -24.5l-80 9q6 20 14 38t22.5 32t36 22.5t54.5 8.5zM370 788l-102 -46l-20 81l135 64l113 -64l-39 -81zM303 532l-15 -88h220l-30 -167
h-220l-17 -100h250l-31 -177h-472l124 708h472l-31 -176h-250z" />
    <glyph glyph-name="uni1EC3" unicode="&#x1ec3;" horiz-adv-x="617" 
d="M543 930q54 0 72 -28.5t11 -68.5q-7 -35 -35 -60.5t-64 -57.5l-44 45q32 26 43 44t13 29t-3.5 13.5t-10.5 2.5q-8 0 -15 -4.5t-14 -24.5l-80 9q6 20 14 38t22.5 32t36 22.5t54.5 8.5zM274 598l-20 81l135 64l113 -64l-39 -81l-87 46zM358 571q63 0 112.5 -19.5t81.5 -56
t44 -89.5t0 -119q-2 -11 -5 -22t-8 -22h-354q-5 -45 9.5 -59t37.5 -14q22 0 36 10t22 23h235q-17 -45 -46.5 -83.5t-70 -66.5t-90 -44t-106.5 -16q-63 0 -112 20.5t-80.5 59.5t-43 94.5t0.5 125.5q12 65 42.5 116.5t75 87.5t100.5 55t119 19zM379 334q6 34 -10.5 48.5
t-41.5 14.5q-60 0 -81 -63h133z" />
    <glyph glyph-name="uni1EC4" unicode="&#x1ec4;" horiz-adv-x="556" 
d="M378 1003q15 0 27 -4.5t21.5 -10t18.5 -10t18 -4.5q23 0 32 29h68q-21 -60 -51 -84t-68 -24q-15 0 -26.5 4.5t-21.5 9.5l-19 9.5t-18 4.5q-21 0 -33 -29h-67q21 60 51 84.5t68 24.5zM370 788l-102 -46l-20 81l135 64l113 -64l-39 -81zM303 532l-15 -88h220l-30 -167h-220
l-17 -100h250l-31 -177h-472l124 708h472l-31 -176h-250z" />
    <glyph glyph-name="uni1EC5" unicode="&#x1ec5;" horiz-adv-x="617" 
d="M365 779q-21 0 -33 -29h-67q21 60 51 84.5t68 24.5q15 0 27 -4.5t21.5 -10t18.5 -10t18 -4.5q23 0 32 29h68q-21 -60 -51 -84t-68 -24q-15 0 -26.5 4.5t-21.5 9.5l-19 9.5t-18 4.5zM274 598l-20 81l135 64l113 -64l-39 -81l-87 46zM358 571q63 0 112.5 -19.5t81.5 -56
t44 -89.5t0 -119q-2 -11 -5 -22t-8 -22h-354q-5 -45 9.5 -59t37.5 -14q22 0 36 10t22 23h235q-17 -45 -46.5 -83.5t-70 -66.5t-90 -44t-106.5 -16q-63 0 -112 20.5t-80.5 59.5t-43 94.5t0.5 125.5q12 65 42.5 116.5t75 87.5t100.5 55t119 19zM379 334q6 34 -10.5 48.5
t-41.5 14.5q-60 0 -81 -63h133z" />
    <glyph glyph-name="uni1EC6" unicode="&#x1ec6;" horiz-adv-x="556" 
d="M371 796l-112 -50l-22 89l149 70l124 -70l-43 -89zM303 532l-15 -88h220l-30 -167h-220l-17 -100h250l-31 -177h-472l124 708h472l-31 -176h-250zM124 -152q6 34 32 56.5t59 22.5q34 0 52.5 -22.5t12.5 -56.5q-6 -33 -32 -55t-61 -22q-32 0 -51 22t-12 55z" />
    <glyph glyph-name="uni1EC7" unicode="&#x1ec7;" horiz-adv-x="617" 
d="M265 602l-22 89l149 70l124 -70l-43 -89l-96 50zM358 571q63 0 112.5 -19.5t81.5 -56t44 -89.5t0 -119q-2 -11 -5 -22t-8 -22h-354q-5 -45 9.5 -59t37.5 -14q22 0 36 10t22 23h235q-17 -45 -46.5 -83.5t-70 -66.5t-90 -44t-106.5 -16q-63 0 -112 20.5t-80.5 59.5
t-43 94.5t0.5 125.5q12 65 42.5 116.5t75 87.5t100.5 55t119 19zM379 334q6 34 -10.5 48.5t-41.5 14.5q-60 0 -81 -63h133zM246 -73q34 0 52.5 -22.5t12.5 -56.5q-6 -33 -32 -55t-61 -22q-32 0 -51 22t-12 55q6 34 32 56.5t59 22.5z" />
    <glyph glyph-name="uni1EC8" unicode="&#x1ec8;" horiz-adv-x="322" 
d="M277 990q30 0 49 -8.5t29.5 -23t13.5 -33.5t-1 -41q-3 -19 -13 -35.5t-24.5 -31.5t-32.5 -30t-38 -33l-49 49q36 29 48 48.5t14 32.5q2 11 -4 14t-12 3q-8 0 -16 -4.5t-16 -27.5l-88 10q6 22 15.5 42t25.5 35.5t39.5 24.5t59.5 9zM334 708l-124 -708h-222l124 708h222z
" />
    <glyph glyph-name="uni1EC9" unicode="&#x1ec9;" horiz-adv-x="312" 
d="M247 846q30 0 49 -8.5t29.5 -23t13.5 -33.5t-1 -41q-3 -19 -13 -35.5t-24.5 -31.5t-32.5 -30t-38 -33l-49 49q36 29 48 48.5t14 32.5q2 11 -4 14t-12 3q-8 0 -16 -4.5t-16 -27.5l-88 10q6 22 15.5 42t25.5 35.5t39.5 24.5t59.5 9zM317 564l-100 -564h-222l100 564h222z
" />
    <glyph glyph-name="uni1ECA" unicode="&#x1eca;" horiz-adv-x="322" 
d="M334 708l-124 -708h-222l124 708h222zM7 -152q6 34 32 56.5t59 22.5q34 0 52.5 -22.5t12.5 -56.5q-6 -33 -32 -55t-61 -22q-32 0 -51 22t-12 55z" />
    <glyph glyph-name="uni1ECB" unicode="&#x1ecb;" horiz-adv-x="320" 
d="M110 718q8 47 48 79t100 32q59 0 87 -32t20 -79q-8 -46 -47.5 -77.5t-98.5 -31.5q-60 0 -88.5 31.5t-20.5 77.5zM321 564l-99 -564h-222l99 564h222zM6 -152q6 34 32 56.5t59 22.5q34 0 52.5 -22.5t12.5 -56.5q-6 -33 -32 -55t-61 -22q-32 0 -51 22t-12 55z" />
    <glyph glyph-name="uni1ECC" unicode="&#x1ecc;" 
d="M421 720q89 0 155.5 -30t108 -83t56.5 -127t-1 -163q-12 -71 -45 -130.5t-82.5 -102.5t-115.5 -67t-144 -24q-92 0 -159.5 30t-108.5 83.5t-55 128t2 162.5q13 71 45.5 130.5t83 102.5t116 66.5t144.5 23.5zM405 515q-64 0 -104.5 -40t-52.5 -108q-13 -75 16.5 -121
t104.5 -46q63 0 104 40.5t52 106.5q14 77 -16.5 122.5t-103.5 45.5zM232 -152q6 34 32 56.5t59 22.5q34 0 52.5 -22.5t12.5 -56.5q-6 -33 -32 -55t-61 -22q-32 0 -51 22t-12 55z" />
    <glyph glyph-name="uni1ECD" unicode="&#x1ecd;" horiz-adv-x="638" 
d="M364 571q65 0 117.5 -21.5t87 -61t48 -97t0.5 -129.5q-11 -63 -42.5 -113t-76.5 -84.5t-101.5 -53t-118.5 -18.5q-66 0 -119.5 21.5t-88 61t-48.5 97t-1 129.5q11 63 42.5 113t77.5 84.5t103 53t120 18.5zM336 379q-29 0 -55 -23t-35 -74t8.5 -74t47.5 -23q29 0 55 23
t35 74t-9 74t-47 23zM165 -152q6 34 32 56.5t59 22.5q34 0 52.5 -22.5t12.5 -56.5q-6 -33 -32 -55t-61 -22q-32 0 -51 22t-12 55z" />
    <glyph glyph-name="uni1ECE" unicode="&#x1ece;" 
d="M470 990q30 0 49 -8.5t29.5 -23t13.5 -33.5t-1 -41q-3 -19 -13 -35.5t-24.5 -31.5t-32.5 -30t-38 -33l-49 49q36 29 48 48.5t14 32.5q2 11 -4 14t-12 3q-8 0 -16 -4.5t-16 -27.5l-88 10q6 22 15.5 42t25.5 35.5t39.5 24.5t59.5 9zM421 720q89 0 155.5 -30t108 -83
t56.5 -127t-1 -163q-12 -71 -45 -130.5t-82.5 -102.5t-115.5 -67t-144 -24q-92 0 -159.5 30t-108.5 83.5t-55 128t2 162.5q13 71 45.5 130.5t83 102.5t116 66.5t144.5 23.5zM405 515q-64 0 -104.5 -40t-52.5 -108q-13 -75 16.5 -121t104.5 -46q63 0 104 40.5t52 106.5
q14 77 -16.5 122.5t-103.5 45.5z" />
    <glyph glyph-name="uni1ECF" unicode="&#x1ecf;" horiz-adv-x="638" 
d="M410 846q30 0 49 -8.5t29.5 -23t13.5 -33.5t-1 -41q-3 -19 -13 -35.5t-24.5 -31.5t-32.5 -30t-38 -33l-49 49q36 29 48 48.5t14 32.5q2 11 -4 14t-12 3q-8 0 -16 -4.5t-16 -27.5l-88 10q6 22 15.5 42t25.5 35.5t39.5 24.5t59.5 9zM364 571q65 0 117.5 -21.5t87 -61
t48 -97t0.5 -129.5q-11 -63 -42.5 -113t-76.5 -84.5t-101.5 -53t-118.5 -18.5q-66 0 -119.5 21.5t-88 61t-48.5 97t-1 129.5q11 63 42.5 113t77.5 84.5t103 53t120 18.5zM336 379q-29 0 -55 -23t-35 -74t8.5 -74t47.5 -23q29 0 55 23t35 74t-9 74t-47 23z" />
    <glyph glyph-name="uni1ED0" unicode="&#x1ed0;" 
d="M584 953l-188 -54l-19 70l175 84zM446 788l-102 -46l-20 81l135 64l113 -64l-39 -81zM421 720q89 0 155.5 -30t108 -83t56.5 -127t-1 -163q-12 -71 -45 -130.5t-82.5 -102.5t-115.5 -67t-144 -24q-92 0 -159.5 30t-108.5 83.5t-55 128t2 162.5q13 71 45.5 130.5t83 102.5
t116 66.5t144.5 23.5zM405 515q-64 0 -104.5 -40t-52.5 -108q-13 -75 16.5 -121t104.5 -46q63 0 104 40.5t52 106.5q14 77 -16.5 122.5t-103.5 45.5z" />
    <glyph glyph-name="uni1ED1" unicode="&#x1ed1;" horiz-adv-x="638" 
d="M524 809l-188 -54l-19 70l175 84zM386 644l-102 -46l-20 81l135 64l113 -64l-39 -81zM364 571q65 0 117.5 -21.5t87 -61t48 -97t0.5 -129.5q-11 -63 -42.5 -113t-76.5 -84.5t-101.5 -53t-118.5 -18.5q-66 0 -119.5 21.5t-88 61t-48.5 97t-1 129.5q11 63 42.5 113
t77.5 84.5t103 53t120 18.5zM336 379q-29 0 -55 -23t-35 -74t8.5 -74t47.5 -23q29 0 55 23t35 74t-9 74t-47 23z" />
    <glyph glyph-name="uni1ED2" unicode="&#x1ed2;" 
d="M594 967l-37 -75l-164 62l44 102zM446 788l-102 -46l-20 81l135 64l113 -64l-39 -81zM421 720q89 0 155.5 -30t108 -83t56.5 -127t-1 -163q-12 -71 -45 -130.5t-82.5 -102.5t-115.5 -67t-144 -24q-92 0 -159.5 30t-108.5 83.5t-55 128t2 162.5q13 71 45.5 130.5t83 102.5
t116 66.5t144.5 23.5zM405 515q-64 0 -104.5 -40t-52.5 -108q-13 -75 16.5 -121t104.5 -46q63 0 104 40.5t52 106.5q14 77 -16.5 122.5t-103.5 45.5z" />
    <glyph glyph-name="uni1ED3" unicode="&#x1ed3;" horiz-adv-x="638" 
d="M534 823l-37 -75l-164 62l44 102zM386 644l-102 -46l-20 81l135 64l113 -64l-39 -81zM364 571q65 0 117.5 -21.5t87 -61t48 -97t0.5 -129.5q-11 -63 -42.5 -113t-76.5 -84.5t-101.5 -53t-118.5 -18.5q-66 0 -119.5 21.5t-88 61t-48.5 97t-1 129.5q11 63 42.5 113
t77.5 84.5t103 53t120 18.5zM336 379q-29 0 -55 -23t-35 -74t8.5 -74t47.5 -23q29 0 55 23t35 74t-9 74t-47 23z" />
    <glyph glyph-name="uni1ED4" unicode="&#x1ed4;" 
d="M613 1074q54 0 72 -28.5t11 -68.5q-7 -35 -35 -60.5t-64 -57.5l-44 45q32 26 43 44t13 29t-3.5 13.5t-10.5 2.5q-8 0 -15 -4.5t-14 -24.5l-80 9q6 20 14 38t22.5 32t36 22.5t54.5 8.5zM446 788l-102 -46l-20 81l135 64l113 -64l-39 -81zM421 720q89 0 155.5 -30t108 -83
t56.5 -127t-1 -163q-12 -71 -45 -130.5t-82.5 -102.5t-115.5 -67t-144 -24q-92 0 -159.5 30t-108.5 83.5t-55 128t2 162.5q13 71 45.5 130.5t83 102.5t116 66.5t144.5 23.5zM405 515q-64 0 -104.5 -40t-52.5 -108q-13 -75 16.5 -121t104.5 -46q63 0 104 40.5t52 106.5
q14 77 -16.5 122.5t-103.5 45.5z" />
    <glyph glyph-name="uni1ED5" unicode="&#x1ed5;" horiz-adv-x="638" 
d="M553 930q54 0 72 -28.5t11 -68.5q-7 -35 -35 -60.5t-64 -57.5l-44 45q32 26 43 44t13 29t-3.5 13.5t-10.5 2.5q-8 0 -15 -4.5t-14 -24.5l-80 9q6 20 14 38t22.5 32t36 22.5t54.5 8.5zM386 644l-102 -46l-20 81l135 64l113 -64l-39 -81zM364 571q65 0 117.5 -21.5t87 -61
t48 -97t0.5 -129.5q-11 -63 -42.5 -113t-76.5 -84.5t-101.5 -53t-118.5 -18.5q-66 0 -119.5 21.5t-88 61t-48.5 97t-1 129.5q11 63 42.5 113t77.5 84.5t103 53t120 18.5zM336 379q-29 0 -55 -23t-35 -74t8.5 -74t47.5 -23q29 0 55 23t35 74t-9 74t-47 23z" />
    <glyph glyph-name="uni1ED6" unicode="&#x1ed6;" 
d="M454 1003q15 0 27 -4.5t21.5 -10t18.5 -10t18 -4.5q23 0 32 29h68q-21 -60 -51 -84t-68 -24q-15 0 -26.5 4.5t-21.5 9.5l-19 9.5t-18 4.5q-21 0 -33 -29h-67q21 60 51 84.5t68 24.5zM446 788l-102 -46l-20 81l135 64l113 -64l-39 -81zM421 720q89 0 155.5 -30t108 -83
t56.5 -127t-1 -163q-12 -71 -45 -130.5t-82.5 -102.5t-115.5 -67t-144 -24q-92 0 -159.5 30t-108.5 83.5t-55 128t2 162.5q13 71 45.5 130.5t83 102.5t116 66.5t144.5 23.5zM405 515q-64 0 -104.5 -40t-52.5 -108q-13 -75 16.5 -121t104.5 -46q63 0 104 40.5t52 106.5
q14 77 -16.5 122.5t-103.5 45.5z" />
    <glyph glyph-name="uni1ED7" unicode="&#x1ed7;" horiz-adv-x="638" 
d="M394 859q15 0 27 -4.5t21.5 -10t18.5 -10t18 -4.5q23 0 32 29h68q-21 -60 -51 -84t-68 -24q-15 0 -26.5 4.5t-21.5 9.5l-19 9.5t-18 4.5q-21 0 -33 -29h-67q21 60 51 84.5t68 24.5zM386 644l-102 -46l-20 81l135 64l113 -64l-39 -81zM364 571q65 0 117.5 -21.5t87 -61
t48 -97t0.5 -129.5q-11 -63 -42.5 -113t-76.5 -84.5t-101.5 -53t-118.5 -18.5q-66 0 -119.5 21.5t-88 61t-48.5 97t-1 129.5q11 63 42.5 113t77.5 84.5t103 53t120 18.5zM336 379q-29 0 -55 -23t-35 -74t8.5 -74t47.5 -23q29 0 55 23t35 74t-9 74t-47 23z" />
    <glyph glyph-name="uni1ED8" unicode="&#x1ed8;" 
d="M447 796l-112 -50l-22 89l149 70l124 -70l-43 -89zM421 720q89 0 155.5 -30t108 -83t56.5 -127t-1 -163q-12 -71 -45 -130.5t-82.5 -102.5t-115.5 -67t-144 -24q-92 0 -159.5 30t-108.5 83.5t-55 128t2 162.5q13 71 45.5 130.5t83 102.5t116 66.5t144.5 23.5zM405 515
q-64 0 -104.5 -40t-52.5 -108q-13 -75 16.5 -121t104.5 -46q63 0 104 40.5t52 106.5q14 77 -16.5 122.5t-103.5 45.5zM232 -152q6 34 32 56.5t59 22.5q34 0 52.5 -22.5t12.5 -56.5q-6 -33 -32 -55t-61 -22q-32 0 -51 22t-12 55z" />
    <glyph glyph-name="uni1ED9" unicode="&#x1ed9;" horiz-adv-x="638" 
d="M387 652l-112 -50l-22 89l149 70l124 -70l-43 -89zM364 571q65 0 117.5 -21.5t87 -61t48 -97t0.5 -129.5q-11 -63 -42.5 -113t-76.5 -84.5t-101.5 -53t-118.5 -18.5q-66 0 -119.5 21.5t-88 61t-48.5 97t-1 129.5q11 63 42.5 113t77.5 84.5t103 53t120 18.5zM336 379
q-29 0 -55 -23t-35 -74t8.5 -74t47.5 -23q29 0 55 23t35 74t-9 74t-47 23zM165 -152q6 34 32 56.5t59 22.5q34 0 52.5 -22.5t12.5 -56.5q-6 -33 -32 -55t-61 -22q-32 0 -51 22t-12 55z" />
    <glyph glyph-name="uni1EDA" unicode="&#x1eda;" 
d="M370 755l-20 76l192 93l35 -110zM788 810q-12 -67 -41.5 -115t-68.5 -79q45 -54 62 -130t0 -169q-12 -71 -45 -130.5t-82.5 -102.5t-115.5 -67t-144 -24q-92 0 -159.5 30t-108.5 83.5t-55 128t2 162.5q13 71 45.5 130.5t83 102.5t116 66.5t144.5 23.5q56 0 102 -12
q46 2 76 23.5t40 78.5h149zM525 347q14 77 -16.5 122.5t-103.5 45.5q-64 0 -104.5 -40t-52.5 -108q-13 -75 16.5 -121t104.5 -46q63 0 104 40.5t52 106.5z" />
    <glyph glyph-name="uni1EDB" unicode="&#x1edb;" horiz-adv-x="638" 
d="M310 611l-20 76l192 93l35 -110zM688 666q-12 -66 -40.5 -113.5t-67.5 -78.5q28 -40 38 -93t-1 -119q-11 -63 -42.5 -113t-76.5 -84.5t-101.5 -53t-118.5 -18.5q-66 0 -119.5 21.5t-88 61t-48.5 97t-1 129.5q11 63 42.5 113t77.5 84.5t103 53t120 18.5q37 0 68 -6
q42 2 69.5 24.5t37.5 76.5h149zM392 282q9 51 -9 74t-47 23t-55 -23t-35 -74t8.5 -74t47.5 -23q29 0 55 23t35 74z" />
    <glyph glyph-name="uni1EDC" unicode="&#x1edc;" 
d="M543 746l-180 68l48 112l173 -98zM788 810q-12 -67 -41.5 -115t-68.5 -79q45 -54 62 -130t0 -169q-12 -71 -45 -130.5t-82.5 -102.5t-115.5 -67t-144 -24q-92 0 -159.5 30t-108.5 83.5t-55 128t2 162.5q13 71 45.5 130.5t83 102.5t116 66.5t144.5 23.5q56 0 102 -12
q46 2 76 23.5t40 78.5h149zM525 347q14 77 -16.5 122.5t-103.5 45.5q-64 0 -104.5 -40t-52.5 -108q-13 -75 16.5 -121t104.5 -46q63 0 104 40.5t52 106.5z" />
    <glyph glyph-name="uni1EDD" unicode="&#x1edd;" horiz-adv-x="638" 
d="M423 623l-180 68l48 112l173 -98zM688 666q-12 -66 -40.5 -113.5t-67.5 -78.5q28 -40 38 -93t-1 -119q-11 -63 -42.5 -113t-76.5 -84.5t-101.5 -53t-118.5 -18.5q-66 0 -119.5 21.5t-88 61t-48.5 97t-1 129.5q11 63 42.5 113t77.5 84.5t103 53t120 18.5q37 0 68 -6
q42 2 69.5 24.5t37.5 76.5h149zM392 282q9 51 -9 74t-47 23t-55 -23t-35 -74t8.5 -74t47.5 -23q29 0 55 23t35 74z" />
    <glyph glyph-name="uni1EDE" unicode="&#x1ede;" 
d="M450 901q-8 0 -16 -4.5t-16 -27.5l-88 10q6 22 15.5 42t25.5 35.5t39.5 24.5t59.5 9q30 0 49 -8.5t29.5 -23t13.5 -33.5t-1 -41q-3 -19 -13 -35.5t-24.5 -31.5t-32.5 -30t-38 -33l-49 49q36 29 48 48.5t14 32.5q2 11 -4 14t-12 3zM788 810q-12 -67 -41.5 -115t-68.5 -79
q45 -54 62 -130t0 -169q-12 -71 -45 -130.5t-82.5 -102.5t-115.5 -67t-144 -24q-92 0 -159.5 30t-108.5 83.5t-55 128t2 162.5q13 71 45.5 130.5t83 102.5t116 66.5t144.5 23.5q56 0 102 -12q46 2 76 23.5t40 78.5h149zM525 347q14 77 -16.5 122.5t-103.5 45.5
q-64 0 -104.5 -40t-52.5 -108q-13 -75 16.5 -121t104.5 -46q63 0 104 40.5t52 106.5z" />
    <glyph glyph-name="uni1EDF" unicode="&#x1edf;" horiz-adv-x="638" 
d="M390 757q-8 0 -16 -4.5t-16 -27.5l-88 10q6 22 15.5 42t25.5 35.5t39.5 24.5t59.5 9q30 0 49 -8.5t29.5 -23t13.5 -33.5t-1 -41q-3 -19 -13 -35.5t-24.5 -31.5t-32.5 -30t-38 -33l-49 49q36 29 48 48.5t14 32.5q2 11 -4 14t-12 3zM688 666q-12 -66 -40.5 -113.5
t-67.5 -78.5q28 -40 38 -93t-1 -119q-11 -63 -42.5 -113t-76.5 -84.5t-101.5 -53t-118.5 -18.5q-66 0 -119.5 21.5t-88 61t-48.5 97t-1 129.5q11 63 42.5 113t77.5 84.5t103 53t120 18.5q37 0 68 -6q42 2 69.5 24.5t37.5 76.5h149zM392 282q9 51 -9 74t-47 23t-55 -23
t-35 -74t8.5 -74t47.5 -23q29 0 55 23t35 74z" />
    <glyph glyph-name="uni1EE0" unicode="&#x1ee0;" 
d="M363 835q-30 0 -44 -39h-89q28 80 67.5 112.5t90.5 32.5q20 0 35.5 -6t28.5 -13t25 -13t24 -6q30 0 43 39h90q-28 -80 -67.5 -112t-90.5 -32q-20 0 -35.5 6t-28.5 12.5l-25 12.5t-24 6zM788 810q-12 -67 -41.5 -115t-68.5 -79q45 -54 62 -130t0 -169q-12 -71 -45 -130.5
t-82.5 -102.5t-115.5 -67t-144 -24q-92 0 -159.5 30t-108.5 83.5t-55 128t2 162.5q13 71 45.5 130.5t83 102.5t116 66.5t144.5 23.5q56 0 102 -12q46 2 76 23.5t40 78.5h149zM525 347q14 77 -16.5 122.5t-103.5 45.5q-64 0 -104.5 -40t-52.5 -108q-13 -75 16.5 -121
t104.5 -46q63 0 104 40.5t52 106.5z" />
    <glyph glyph-name="uni1EE1" unicode="&#x1ee1;" horiz-adv-x="638" 
d="M287 670q-30 0 -44 -39h-89q28 80 67.5 112.5t90.5 32.5q20 0 35.5 -6t28.5 -13t25 -13t24 -6q30 0 43 39h90q-28 -80 -67.5 -112t-90.5 -32q-20 0 -35.5 6t-28.5 12.5l-25 12.5t-24 6zM688 666q-12 -66 -40.5 -113.5t-67.5 -78.5q28 -40 38 -93t-1 -119
q-11 -63 -42.5 -113t-76.5 -84.5t-101.5 -53t-118.5 -18.5q-66 0 -119.5 21.5t-88 61t-48.5 97t-1 129.5q11 63 42.5 113t77.5 84.5t103 53t120 18.5q37 0 68 -6q42 2 69.5 24.5t37.5 76.5h149zM392 282q9 51 -9 74t-47 23t-55 -23t-35 -74t8.5 -74t47.5 -23q29 0 55 23
t35 74z" />
    <glyph glyph-name="uni1EE2" unicode="&#x1ee2;" 
d="M788 810q-12 -67 -41.5 -115t-68.5 -79q45 -54 62 -130t0 -169q-12 -71 -45 -130.5t-82.5 -102.5t-115.5 -67t-144 -24q-92 0 -159.5 30t-108.5 83.5t-55 128t2 162.5q13 71 45.5 130.5t83 102.5t116 66.5t144.5 23.5q56 0 102 -12q46 2 76 23.5t40 78.5h149zM525 347
q14 77 -16.5 122.5t-103.5 45.5q-64 0 -104.5 -40t-52.5 -108q-13 -75 16.5 -121t104.5 -46q63 0 104 40.5t52 106.5zM323 -73q34 0 52.5 -22.5t12.5 -56.5q-6 -33 -32 -55t-61 -22q-32 0 -51 22t-12 55q6 34 32 56.5t59 22.5z" />
    <glyph glyph-name="uni1EE3" unicode="&#x1ee3;" horiz-adv-x="638" 
d="M688 666q-12 -66 -40.5 -113.5t-67.5 -78.5q28 -40 38 -93t-1 -119q-11 -63 -42.5 -113t-76.5 -84.5t-101.5 -53t-118.5 -18.5q-66 0 -119.5 21.5t-88 61t-48.5 97t-1 129.5q11 63 42.5 113t77.5 84.5t103 53t120 18.5q37 0 68 -6q42 2 69.5 24.5t37.5 76.5h149zM392 282
q9 51 -9 74t-47 23t-55 -23t-35 -74t8.5 -74t47.5 -23q29 0 55 23t35 74zM256 -73q34 0 52.5 -22.5t12.5 -56.5q-6 -33 -32 -55t-61 -22q-32 0 -51 22t-12 55q6 34 32 56.5t59 22.5z" />
    <glyph glyph-name="uni1EE4" unicode="&#x1ee4;" horiz-adv-x="719" 
d="M330 708l-70 -399q-8 -46 6.5 -76t65.5 -30t78 30t35 76l70 399h221l-70 -399q-14 -78 -49.5 -137.5t-86 -99t-112.5 -59.5t-128 -20t-119 20t-87 59.5t-46.5 99t1.5 137.5l70 399h221zM186 -152q6 34 32 56.5t59 22.5q34 0 52.5 -22.5t12.5 -56.5q-6 -33 -32 -55
t-61 -22q-32 0 -51 22t-12 55z" />
    <glyph glyph-name="uni1EE5" unicode="&#x1ee5;" horiz-adv-x="687" 
d="M687 564l-99 -564h-222l15 86q-31 -37 -78 -63.5t-111 -26.5q-49 0 -84 17t-56 48.5t-27 76t3 99.5l58 327h221l-53 -299q-7 -41 10.5 -64t53.5 -23q37 0 62 23t32 64v-5l53 304h222zM281 -73q34 0 52.5 -22.5t12.5 -56.5q-6 -33 -32 -55t-61 -22q-32 0 -51 22t-12 55
q6 34 32 56.5t59 22.5z" />
    <glyph glyph-name="uni1EE6" unicode="&#x1ee6;" horiz-adv-x="719" 
d="M476 990q30 0 49 -8.5t29.5 -23t13.5 -33.5t-1 -41q-3 -19 -13 -35.5t-24.5 -31.5t-32.5 -30t-38 -33l-49 49q36 29 48 48.5t14 32.5q2 11 -4 14t-12 3q-8 0 -16 -4.5t-16 -27.5l-88 10q6 22 15.5 42t25.5 35.5t39.5 24.5t59.5 9zM330 708l-70 -399q-8 -46 6.5 -76
t65.5 -30t78 30t35 76l70 399h221l-70 -399q-14 -78 -49.5 -137.5t-86 -99t-112.5 -59.5t-128 -20t-119 20t-87 59.5t-46.5 99t1.5 137.5l70 399h221z" />
    <glyph glyph-name="uni1EE7" unicode="&#x1ee7;" horiz-adv-x="687" 
d="M415 757q-8 0 -16 -4.5t-16 -27.5l-88 10q6 22 15.5 42t25.5 35.5t39.5 24.5t59.5 9q30 0 49 -8.5t29.5 -23t13.5 -33.5t-1 -41q-3 -19 -13 -35.5t-24.5 -31.5t-32.5 -30t-38 -33l-49 49q36 29 48 48.5t14 32.5q2 11 -4 14t-12 3zM687 564l-99 -564h-222l15 86
q-31 -37 -78 -63.5t-111 -26.5q-49 0 -84 17t-56 48.5t-27 76t3 99.5l58 327h221l-53 -299q-7 -41 10.5 -64t53.5 -23q37 0 62 23t32 64v-5l53 304h222z" />
    <glyph glyph-name="uni1EE8" unicode="&#x1ee8;" horiz-adv-x="719" 
d="M376 755l-20 76l192 93l35 -110zM867 810q-15 -85 -56.5 -139t-95.5 -83l-49 -279q-14 -78 -49.5 -137.5t-86 -99t-112.5 -59.5t-128 -20t-119 20t-87 59.5t-46.5 99t1.5 137.5l70 399h221l-70 -399q-8 -46 6.5 -76t65.5 -30t78 30t35 76l70 399h80q49 0 80.5 21t42.5 81
h149z" />
    <glyph glyph-name="uni1EE9" unicode="&#x1ee9;" horiz-adv-x="687" 
d="M335 611l-20 76l192 93l35 -110zM818 666q-15 -85 -56.5 -139t-95.5 -83l-78 -444h-222l15 86q-31 -37 -78 -63.5t-111 -26.5q-49 0 -84 17t-56 48.5t-27 76t3 99.5l58 327h221l-53 -299q-7 -41 10.5 -64t53.5 -23q37 0 62 23t32 64v-5l53 304h81q49 0 80.5 21t42.5 81
h149z" />
    <glyph glyph-name="uni1EEA" unicode="&#x1eea;" horiz-adv-x="719" 
d="M549 746l-180 68l48 112l173 -98zM867 810q-15 -85 -56.5 -139t-95.5 -83l-49 -279q-14 -78 -49.5 -137.5t-86 -99t-112.5 -59.5t-128 -20t-119 20t-87 59.5t-46.5 99t1.5 137.5l70 399h221l-70 -399q-8 -46 6.5 -76t65.5 -30t78 30t35 76l70 399h80q49 0 80.5 21
t42.5 81h149z" />
    <glyph glyph-name="uni1EEB" unicode="&#x1eeb;" horiz-adv-x="687" 
d="M508 602l-180 68l48 112l173 -98zM818 666q-15 -85 -56.5 -139t-95.5 -83l-78 -444h-222l15 86q-31 -37 -78 -63.5t-111 -26.5q-49 0 -84 17t-56 48.5t-27 76t3 99.5l58 327h221l-53 -299q-7 -41 10.5 -64t53.5 -23q37 0 62 23t32 64v-5l53 304h81q49 0 80.5 21t42.5 81
h149z" />
    <glyph glyph-name="uni1EEC" unicode="&#x1eec;" horiz-adv-x="719" 
d="M456 901q-8 0 -16 -4.5t-16 -27.5l-88 10q6 22 15.5 42t25.5 35.5t39.5 24.5t59.5 9q30 0 49 -8.5t29.5 -23t13.5 -33.5t-1 -41q-3 -19 -13 -35.5t-24.5 -31.5t-32.5 -30t-38 -33l-49 49q36 29 48 48.5t14 32.5q2 11 -4 14t-12 3zM867 810q-15 -85 -56.5 -139t-95.5 -83
l-49 -279q-14 -78 -49.5 -137.5t-86 -99t-112.5 -59.5t-128 -20t-119 20t-87 59.5t-46.5 99t1.5 137.5l70 399h221l-70 -399q-8 -46 6.5 -76t65.5 -30t78 30t35 76l70 399h80q49 0 80.5 21t42.5 81h149z" />
    <glyph glyph-name="uni1EED" unicode="&#x1eed;" horiz-adv-x="687" 
d="M415 757q-8 0 -16 -4.5t-16 -27.5l-88 10q6 22 15.5 42t25.5 35.5t39.5 24.5t59.5 9q30 0 49 -8.5t29.5 -23t13.5 -33.5t-1 -41q-3 -19 -13 -35.5t-24.5 -31.5t-32.5 -30t-38 -33l-49 49q36 29 48 48.5t14 32.5q2 11 -4 14t-12 3zM818 666q-15 -85 -56.5 -139t-95.5 -83
l-78 -444h-222l15 86q-31 -37 -78 -63.5t-111 -26.5q-49 0 -84 17t-56 48.5t-27 76t3 99.5l58 327h221l-53 -299q-7 -41 10.5 -64t53.5 -23q37 0 62 23t32 64v-5l53 304h81q49 0 80.5 21t42.5 81h149z" />
    <glyph glyph-name="uni1EEE" unicode="&#x1eee;" horiz-adv-x="719" 
d="M387 795q-30 0 -44 -39h-89q28 80 67.5 112.5t90.5 32.5q20 0 35.5 -6t28.5 -13t25 -13t24 -6q30 0 43 39h90q-28 -80 -67.5 -112t-90.5 -32q-20 0 -35.5 6t-28.5 12.5l-25 12.5t-24 6zM867 810q-15 -85 -56.5 -139t-95.5 -83l-49 -279q-14 -78 -49.5 -137.5t-86 -99
t-112.5 -59.5t-128 -20t-119 20t-87 59.5t-46.5 99t1.5 137.5l70 399h221l-70 -399q-8 -46 6.5 -76t65.5 -30t78 30t35 76l70 399h80q49 0 80.5 21t42.5 81h149z" />
    <glyph glyph-name="uni1EEF" unicode="&#x1eef;" horiz-adv-x="687" 
d="M346 651q-30 0 -44 -39h-89q28 80 67.5 112.5t90.5 32.5q20 0 35.5 -6t28.5 -13t25 -13t24 -6q30 0 43 39h90q-28 -80 -67.5 -112t-90.5 -32q-20 0 -35.5 6t-28.5 12.5l-25 12.5t-24 6zM818 666q-15 -85 -56.5 -139t-95.5 -83l-78 -444h-222l15 86q-31 -37 -78 -63.5
t-111 -26.5q-49 0 -84 17t-56 48.5t-27 76t3 99.5l58 327h221l-53 -299q-7 -41 10.5 -64t53.5 -23q37 0 62 23t32 64v-5l53 304h81q49 0 80.5 21t42.5 81h149z" />
    <glyph glyph-name="uni1EF0" unicode="&#x1ef0;" horiz-adv-x="719" 
d="M867 810q-15 -85 -56.5 -139t-95.5 -83l-49 -279q-14 -78 -49.5 -137.5t-86 -99t-112.5 -59.5t-128 -20t-119 20t-87 59.5t-46.5 99t1.5 137.5l70 399h221l-70 -399q-8 -46 6.5 -76t65.5 -30t78 30t35 76l70 399h80q49 0 80.5 21t42.5 81h149zM277 -73q34 0 52.5 -22.5
t12.5 -56.5q-6 -33 -32 -55t-61 -22q-32 0 -51 22t-12 55q6 34 32 56.5t59 22.5z" />
    <glyph glyph-name="uni1EF1" unicode="&#x1ef1;" horiz-adv-x="687" 
d="M818 666q-15 -85 -56.5 -139t-95.5 -83l-78 -444h-222l15 86q-31 -37 -78 -63.5t-111 -26.5q-49 0 -84 17t-56 48.5t-27 76t3 99.5l58 327h221l-53 -299q-7 -41 10.5 -64t53.5 -23q37 0 62 23t32 64v-5l53 304h81q49 0 80.5 21t42.5 81h149zM281 -73q34 0 52.5 -22.5
t12.5 -56.5q-6 -33 -32 -55t-61 -22q-32 0 -51 22t-12 55q6 34 32 56.5t59 22.5z" />
    <glyph glyph-name="Ygrave" unicode="&#x1ef2;" horiz-adv-x="730" 
d="M554 746l-180 68l48 112l173 -98zM792 708l-341 -493l-37 -215h-222l37 215l-167 493h254l69 -251l157 251h250z" />
    <glyph glyph-name="ygrave" unicode="&#x1ef3;" horiz-adv-x="667" 
d="M539 684l-41 -82l-180 68l48 112zM271 564l55 -286l150 286h245l-509 -834h-243l195 298l-140 536h247z" />
    <glyph glyph-name="uni1EF4" unicode="&#x1ef4;" horiz-adv-x="730" 
d="M792 708l-341 -493l-37 -215h-222l37 215l-167 493h254l69 -251l157 251h250zM302 -73q34 0 52.5 -22.5t12.5 -56.5q-6 -33 -32 -55t-61 -22q-32 0 -51 22t-12 55q6 34 32 56.5t59 22.5z" />
    <glyph glyph-name="uni1EF5" unicode="&#x1ef5;" horiz-adv-x="667" 
d="M271 564l55 -286l150 286h245l-509 -834h-243l195 298l-140 536h247zM387 -152q6 34 32 56.5t59 22.5q34 0 52.5 -22.5t12.5 -56.5q-6 -33 -32 -55t-61 -22q-32 0 -51 22t-12 55z" />
    <glyph glyph-name="uni1EF6" unicode="&#x1ef6;" horiz-adv-x="730" 
d="M461 901q-8 0 -16 -4.5t-16 -27.5l-88 10q6 22 15.5 42t25.5 35.5t39.5 24.5t59.5 9q30 0 49 -8.5t29.5 -23t13.5 -33.5t-1 -41q-3 -19 -13 -35.5t-24.5 -31.5t-32.5 -30t-38 -33l-49 49q36 29 48 48.5t14 32.5q2 11 -4 14t-12 3zM792 708l-341 -493l-37 -215h-222
l37 215l-167 493h254l69 -251l157 251h250z" />
    <glyph glyph-name="uni1EF7" unicode="&#x1ef7;" horiz-adv-x="667" 
d="M425 846q30 0 49 -8.5t29.5 -23t13.5 -33.5t-1 -41q-3 -19 -13 -35.5t-24.5 -31.5t-32.5 -30t-38 -33l-49 49q36 29 48 48.5t14 32.5q2 11 -4 14t-12 3q-8 0 -16 -4.5t-16 -27.5l-88 10q6 22 15.5 42t25.5 35.5t39.5 24.5t59.5 9zM271 564l55 -286l150 286h245l-509 -834
h-243l195 298l-140 536h247z" />
    <glyph glyph-name="uni1EF8" unicode="&#x1ef8;" horiz-adv-x="730" 
d="M392 795q-30 0 -44 -39h-89q28 80 67.5 112.5t90.5 32.5q20 0 35.5 -6t28.5 -13t25 -13t24 -6q30 0 43 39h90q-28 -80 -67.5 -112t-90.5 -32q-20 0 -35.5 6t-28.5 12.5l-25 12.5t-24 6zM792 708l-341 -493l-37 -215h-222l37 215l-167 493h254l69 -251l157 251h250z" />
    <glyph glyph-name="uni1EF9" unicode="&#x1ef9;" horiz-adv-x="667" 
d="M361 757q20 0 35.5 -6t28.5 -13t25 -13t24 -6q30 0 43 39h90q-28 -80 -67.5 -112t-90.5 -32q-20 0 -35.5 6t-28.5 12.5l-25 12.5t-24 6q-30 0 -44 -39h-89q28 80 67.5 112.5t90.5 32.5zM271 564l55 -286l150 286h245l-509 -834h-243l195 298l-140 536h247z" />
    <glyph glyph-name="endash" unicode="&#x2013;" horiz-adv-x="683" 
d="M644 433l-32 -183h-573l32 183h573z" />
    <glyph glyph-name="emdash" unicode="&#x2014;" horiz-adv-x="936" 
d="M897 433l-32 -183h-826l32 183h826z" />
    <glyph glyph-name="quoteleft" unicode="&#x2018;" horiz-adv-x="281" 
d="M49 565q-8 35 -8 69t5 66q6 36 21.5 68t40 56t58 38t76.5 14l-13 -78q-26 0 -43.5 -18t-25.5 -57l-1 -11h72l-26 -147h-156z" />
    <glyph glyph-name="quoteright" unicode="&#x2019;" horiz-adv-x="281" 
d="M233 876q8 -35 7.5 -68.5t-5.5 -65.5q-6 -36 -21.5 -68.5t-40 -56.5t-58 -38t-75.5 -14l14 79q26 0 43.5 18t24.5 56l2 12h-72l25 146h156z" />
    <glyph glyph-name="quotesinglbase" unicode="&#x201a;" horiz-adv-x="276" 
d="M203 131q18 -42 19 -101t-21.5 -112t-70.5 -90.5t-126 -37.5l14 78q26 0 42 10.5t23 49.5l2 11h-87l34 192h171z" />
    <glyph glyph-name="quotedblleft" unicode="&#x201c;" horiz-adv-x="506" 
d="M49 565q-8 35 -8 69t5 66q6 36 21.5 68t40 56t58 38t76.5 14l-13 -78q-26 0 -43.5 -18t-25.5 -57l-1 -11h72l-26 -147h-156zM273 565q-8 35 -7.5 69t5.5 66q6 36 21.5 68t40 56t58 38t75.5 14l-13 -78q-26 0 -43.5 -18t-25.5 -57l-1 -11h72l-26 -147h-156z" />
    <glyph glyph-name="quotedblright" unicode="&#x201d;" horiz-adv-x="506" 
d="M233 876q8 -35 7.5 -68.5t-5.5 -65.5q-6 -36 -21.5 -68.5t-40 -56.5t-58 -38t-75.5 -14l14 79q26 0 43.5 18t24.5 56l2 12h-72l25 146h156zM457 876q8 -35 8 -68.5t-5 -65.5q-6 -36 -21.5 -68.5t-40 -56.5t-58 -38t-76.5 -14l14 79q55 0 68 74l2 12h-72l25 146h156z" />
    <glyph glyph-name="quotedblbase" unicode="&#x201e;" horiz-adv-x="506" 
d="M190 146q8 -35 7.5 -68.5t-5.5 -65.5q-6 -36 -21.5 -68.5t-40 -56.5t-58 -38t-75.5 -14l14 79q26 0 43.5 18t24.5 56l2 12h-72l25 146h156zM414 146q8 -35 8 -68.5t-5 -65.5q-6 -36 -21.5 -68.5t-40 -56.5t-58 -38t-76.5 -14l14 79q55 0 68 74l2 12h-72l25 146h156z" />
    <glyph glyph-name="dagger" unicode="&#x2020;" horiz-adv-x="717" 
d="M690 398l-216 15l-99 -683h-222l142 683l-220 -15l29 166l215 -15l22 245h222l-65 -245l221 15z" />
    <glyph glyph-name="daggerdbl" unicode="&#x2021;" horiz-adv-x="716" 
d="M474 413l-54 -302l222 16l-29 -167l-217 15l-22 -245h-222l65 245l-220 -15l29 167l215 -16l54 302l-221 -15l29 166l216 -15l21 245h222l-64 -245l221 15l-29 -166z" />
    <glyph glyph-name="bullet" unicode="&#x2022;" horiz-adv-x="536" 
d="M100 333q6 36 24.5 66.5t45.5 53.5t60 36t68 13q36 0 64 -13t47 -36t26 -53.5t1 -66.5q-6 -35 -24.5 -65.5t-45 -53t-59.5 -35.5t-69 -13q-35 0 -63.5 13t-47 35.5t-26 53t-1.5 65.5z" />
    <glyph glyph-name="ellipsis" unicode="&#x2026;" horiz-adv-x="806" 
d="M246 212l-38 -212h-220l38 212h220zM511 212l-38 -212h-220l38 212h220zM776 212l-38 -212h-220l38 212h220z" />
    <glyph glyph-name="perthousand" unicode="&#x2030;" horiz-adv-x="1284" 
d="M265 721q38 0 69 -11t51 -33.5t28 -56.5t0 -80q-8 -45 -28 -79t-47.5 -56.5t-62.5 -33.5t-73 -11q-39 0 -70 11t-51.5 33.5t-28 56.5t0.5 79q8 46 27.5 80t47.5 56.5t63 33.5t74 11zM804 711l-499 -711h-212l499 711h212zM198 540q-9 -51 25 -51q37 0 46 51q9 52 -28 52
q-34 0 -43 -52zM696 352q39 0 69.5 -11t50.5 -33.5t27.5 -56.5t-0.5 -80t-27 -80t-47 -56.5t-62.5 -33.5t-73.5 -11q-38 0 -69 11t-51.5 33.5t-28.5 56.5t0 80t28 80t48 56.5t63 33.5t73 11zM1084 352q38 0 69 -11t51 -33.5t27.5 -56.5t-0.5 -80t-27.5 -80t-47 -56.5
t-62.5 -33.5t-73 -11q-39 0 -70 11t-51.5 33.5t-28.5 56.5t0 80t28 80t48 56.5t63 33.5t74 11zM628 171q-9 -52 26 -52q17 0 28.5 13t16.5 39q9 52 -26 52q-36 0 -45 -52zM1016 171q-9 -52 25 -52q37 0 46 52t-27 52q-35 0 -44 -52z" />
    <glyph glyph-name="guilsinglleft" unicode="&#x2039;" horiz-adv-x="373" 
d="M91 120l-46 175l108 175h201l-110 -175l48 -175h-201z" />
    <glyph glyph-name="guilsinglright" unicode="&#x203a;" horiz-adv-x="373" 
d="M130 295l-49 175h202l45 -175l-107 -175h-202z" />
    <glyph glyph-name="fraction" unicode="&#x2044;" horiz-adv-x="555" 
d="M631 711l-499 -711h-212l499 711h212z" />
    <glyph glyph-name="uni20A8" unicode="&#x20a8;" horiz-adv-x="1229" 
d="M671 476q-13 -70 -61 -125t-129 -80l107 -271h-244l-89 254l-45 -254h-222l125 708h330q67 0 114 -18t75.5 -49.5t38 -73.5t0.5 -91zM876 385q-3 -15 21 -22.5t60 -14.5t78.5 -16t76.5 -27.5t54 -49.5t11 -82q-7 -37 -28 -70t-55.5 -57.5t-81 -38.5t-103.5 -14
q-125 0 -191.5 51.5t-64.5 150.5h217q-2 -23 19 -31t46 -8q23 0 32 6t11 16q3 17 -20.5 24.5t-59.5 14t-78 15t-76 27t-53 50t-10 84.5q6 36 27.5 68.5t56.5 56.5t83 38.5t108 14.5q65 0 111.5 -15.5t76.5 -42.5t45 -64t16 -80h-217q-2 22 -21 30t-43 8q-20 0 -33 -5
t-15 -17zM281 402h88q32 0 50.5 14t24.5 46q5 27 -8.5 43.5t-45.5 16.5h-88z" />
    <glyph glyph-name="Euro" unicode="&#x20ac;" horiz-adv-x="790" 
d="M540 436q-9 35 -35.5 54.5t-64.5 19.5q-54 0 -93 -39h124l-17 -100h-159l-3 -16q-1 -3 -1 -6t-1 -6h159l-18 -99h-128q27 -44 83 -44q38 0 70.5 19.5t55.5 54.5h234q-22 -63 -60 -114t-88 -88t-112 -57t-132 -20q-66 0 -118.5 18t-89.5 50.5t-58.5 78.5t-26.5 102h-66
l18 99h52q1 3 1 6t1 6l3 16h-52l17 100h67q25 56 62.5 101t85.5 76.5t106 49t124 17.5q70 0 125 -20t92.5 -57t57 -88t19.5 -114h-234z" />
    <glyph glyph-name="uni20B9" unicode="&#x20b9;" horiz-adv-x="577" 
d="M547 563l-6 -33h58l-22 -124h-63q-14 -37 -38 -70.5t-58.5 -58.5t-80 -39.5t-102.5 -14.5l-4 -19q-4 -22 1 -35.5t25 -13.5t29 13t14 43h205q-12 -48 -34 -89t-55 -70t-77.5 -45.5t-100.5 -16.5q-59 0 -103 14t-71 44.5t-36 78.5t3 115l22 123q66 0 110.5 1t73 5
t44.5 12.5t25 22.5h-246l22 124h252l6 33h-252l25 145h517l-25 -145h-58z" />
    <glyph glyph-name="uni20BA" unicode="&#x20ba;" horiz-adv-x="819" 
d="M831 481q-22 -129 -59 -220.5t-93.5 -150t-135.5 -85.5t-187 -27q-69 0 -143 9t-156 24l38 218l-106 -14l23 129l106 15l6 33l-107 -15l22 125l107 16l31 174h225l-25 -140l111 16l-23 -129l-110 -15l-6 -34l115 16l-23 -130l-115 -16l-12 -67q20 -5 39 -6t38 -1
q63 0 101.5 24.5t61 63.5t33 88.5t19.5 98.5h225z" />
    <glyph glyph-name="uni20BD" unicode="&#x20bd;" horiz-adv-x="709" 
d="M482 708q67 0 114.5 -16.5t76 -46t38.5 -70.5t1 -89q-8 -48 -32 -89t-63 -70.5t-92.5 -46t-120.5 -16.5h-88l-7 -41h114l-29 -165h-114l-10 -58h-222l10 58h-100l29 165h100l7 41h-100l30 168h100l48 276h310zM487 487q4 21 -7.5 38t-40.5 17h-74l-19 -110h74q29 0 46 15
t21 40z" />
    <glyph glyph-name="uni2113" unicode="&#x2113;" horiz-adv-x="317" 
d="M352 740l-130 -740h-222l130 740h222z" />
    <glyph glyph-name="trademark" unicode="&#x2122;" horiz-adv-x="947" 
d="M387 708l-23 -127h-86l-39 -223h-154l39 223h-86l23 127h326zM948 708l-62 -350h-141l26 166l-97 -166h-103l-35 181l-32 -181h-134l62 350h211l22 -156l91 156h192z" />
    <glyph glyph-name="uni2126" unicode="&#x2126;" horiz-adv-x="791" 
d="M764 387q-11 -65 -37.5 -120t-82.5 -100h81l-29 -167h-267l30 172q27 47 45.5 88t27.5 95q14 79 -14 119.5t-95 40.5q-66 0 -109 -40t-57 -120q-9 -54 -5 -95t15 -88l-30 -172h-267l29 167h81q-40 45 -46.5 100t4.5 120q14 81 53 143t95.5 104t126.5 64t146 22t138.5 -22
t104 -64t59 -104t3.5 -143z" />
    <glyph glyph-name="estimated" unicode="&#x212e;" horiz-adv-x="740" 
d="M315 -7q-75 0 -135.5 23t-99.5 67.5t-54.5 109t-0.5 147.5q14 81 49 150.5t87.5 120.5t121.5 80.5t151 29.5q83 0 142 -28t94.5 -74t47.5 -106t0 -125l-11 -64h-460l-32 -184q29 -11 60 -17t62 -6q70 0 132 25.5t119 73.5l56 -83q-77 -69 -157.5 -104.5t-171.5 -35.5z
M530 586q-23 10 -53.5 13.5t-63.5 3.5q-38 0 -66.5 -6.5t-53.5 -14.5l-28 -155h237z" />
    <glyph glyph-name="partialdiff" unicode="&#x2202;" horiz-adv-x="642" 
d="M337 561q28 0 54.5 -7t43.5 -27q-9 44 -39 67t-100 23q-24 0 -53 -3l18 107q76 19 138 19q69 0 117.5 -23.5t75.5 -68t33.5 -107t-7.5 -140.5q-17 -96 -51.5 -171.5t-84.5 -128t-115 -80t-142 -27.5q-52 0 -96.5 16.5t-74.5 50t-42 85t0 120.5q13 71 44.5 126t75 92.5
t96.5 57t109 19.5zM328 377q-39 0 -60.5 -30.5t-30.5 -79.5q-8 -45 6 -63t36 -18q37 0 57.5 33t31.5 92q6 35 -7 50.5t-33 15.5z" />
    <glyph glyph-name="uni2206" unicode="&#x2206;" horiz-adv-x="770" 
d="M538 711l179 -543l-30 -168h-730l30 168l372 543h179zM216 168h272l-84 292z" />
    <glyph glyph-name="product" unicode="&#x220f;" horiz-adv-x="753" 
d="M806 711l-30 -166h-65l-96 -545h-222l96 545h-159l-96 -545h-222l96 545h-65l30 166h733z" />
    <glyph glyph-name="summation" unicode="&#x2211;" horiz-adv-x="586" 
d="M583 544h-271l179 -109l-29 -167l-245 -145h292l-30 -168h-506l46 259l241 132l-199 107l46 258h506z" />
    <glyph glyph-name="minus" unicode="&#x2212;" horiz-adv-x="506" 
d="M512 433l-32 -183h-466l32 183h466z" />
    <glyph glyph-name="radical" unicode="&#x221a;" horiz-adv-x="1020" 
d="M1078 927l-720 -967h-105l-113 295l-103 -54l-43 100l320 171l101 -266l539 721h124z" />
    <glyph glyph-name="infinity" unicode="&#x221e;" horiz-adv-x="844" 
d="M646 535q96 -1 139 -49t27 -138q-8 -44 -29.5 -79t-52 -59t-68 -37t-77.5 -13q-72 0 -117 24t-75 58q-38 -38 -88 -60.5t-107 -21.5q-94 1 -137.5 49.5t-27.5 137.5q8 45 29.5 80t52 59t68 36.5t76.5 12.5q38 0 67 -7t51 -19.5t38.5 -28.5t29.5 -34q38 41 90 65.5
t111 23.5zM239 303q20 0 42.5 8t43.5 27q-16 24 -32 39.5t-38 15.5q-19 0 -33 -11.5t-18 -34.5q-4 -22 6 -33t29 -11zM641 348q4 23 -6.5 34t-29.5 11q-23 0 -48.5 -11t-48.5 -35q15 -20 33.5 -32t47.5 -12q19 0 33.5 11.5t18.5 33.5z" />
    <glyph glyph-name="integral" unicode="&#x222b;" horiz-adv-x="312" 
d="M159 746q18 64 49 105t71 65t87.5 33t96.5 9h13l-52 -190h-18q-10 0 -16 -6.5t-10 -15.5l-232 -844q-18 -64 -49 -105t-71 -65t-87.5 -33t-96.5 -9h-13l52 190h17q11 0 17 6.5t10 15.5z" />
    <glyph glyph-name="approxequal" unicode="&#x2248;" horiz-adv-x="710" 
d="M306 609q36 0 63.5 -10.5t50.5 -23t43 -23t42 -10.5q27 0 43.5 15.5t27.5 53.5h166q-23 -70 -54 -120.5t-67 -82t-76.5 -46.5t-84.5 -15q-36 0 -63.5 10.5t-50 23t-43 23t-42.5 10.5q-27 0 -43.5 -16t-28.5 -53h-164q47 141 120.5 202.5t160.5 61.5zM258 334
q36 0 63.5 -10.5t50.5 -23t43 -23t42 -10.5q27 0 43.5 15.5t27.5 53.5h166q-23 -70 -54 -120.5t-67 -82t-76.5 -46.5t-84.5 -15q-36 0 -63.5 10.5t-50 23t-43 23t-42.5 10.5q-27 0 -43.5 -16t-28.5 -53h-164q47 141 120.5 202.5t160.5 61.5z" />
    <glyph glyph-name="notequal" unicode="&#x2260;" horiz-adv-x="626" 
d="M578 580h70l-35 -201h-211l-70 -79h267l-35 -201h-408l-88 -100h-107l88 100h-71l35 201h213l69 79h-268l35 201h410l88 100h106z" />
    <glyph glyph-name="lessequal" unicode="&#x2264;" horiz-adv-x="492" 
d="M315 375l148 -180h-272l-149 180l212 181h272zM24 111h424l-30 -171h-424z" />
    <glyph glyph-name="greaterequal" unicode="&#x2265;" horiz-adv-x="492" 
d="M11 195l211 180l-148 181h272l148 -181l-211 -180h-272zM-4 111h424l-30 -171h-424z" />
    <glyph glyph-name="lozenge" unicode="&#x25ca;" horiz-adv-x="572" 
d="M562 355l-324 -276l-228 276l326 275zM218 355l57 -69l80 69l-56 68z" />
    <glyph glyph-name="fi" unicode="&#xfb01;" horiz-adv-x="712" 
d="M427 604q-32 4 -49 -5t-25 -35h343l-99 -564h-222l66 379h-122l-67 -379h-222l66 379h-60l33 185h60q23 121 109.5 181t221.5 48zM627 799q59 0 88 -29.5t21 -75.5q-8 -47 -47.5 -76t-98.5 -29q-60 0 -88.5 29t-20.5 76q8 46 47 75.5t99 29.5z" />
    <glyph glyph-name="fl" unicode="&#xfb02;" horiz-adv-x="702" 
d="M372 379h-83l-67 -379h-222l66 379h-59l32 185h60q23 121 113.5 181.5t232.5 47.5l-34 -189q-37 5 -57.5 -4t-30.5 -36h81zM737 740l-130 -740h-222l130 740h222z" />
    <glyph glyph-name="uni03020300" horiz-adv-x="0" 
d="M37 862l-37 -75l-164 62l44 102zM-111 683l-102 -46l-20 81l135 64l113 -64l-39 -81z" />
    <glyph glyph-name="uni03020301" horiz-adv-x="0" 
d="M48 844l-188 -54l-19 70l175 84zM-90 679l-102 -46l-20 81l135 64l113 -64l-39 -81z" />
    <glyph glyph-name="uni03020303" horiz-adv-x="0" 
d="M-101 899q15 0 27 -4.5t21.5 -10t18.5 -10t18 -4.5q23 0 32 29h68q-21 -60 -51 -84t-68 -24q-15 0 -26.5 4.5t-21.5 9.5l-19 9.5t-18 4.5q-21 0 -33 -29h-67q21 60 51 84.5t68 24.5zM-109 684l-102 -46l-20 81l135 64l113 -64l-39 -81z" />
    <glyph glyph-name="uni03020309" horiz-adv-x="0" 
d="M67 965q54 0 72 -28.5t11 -68.5q-7 -35 -35 -60.5t-64 -57.5l-44 45q32 26 43 44t13 29t-3.5 13.5t-10.5 2.5q-8 0 -15 -4.5t-14 -24.5l-80 9q6 20 14 38t22.5 32t36 22.5t54.5 8.5zM-100 679l-102 -46l-20 81l135 64l113 -64l-39 -81z" />
    <glyph glyph-name="uni03060300" horiz-adv-x="0" 
d="M15 895l-37 -75l-164 62l44 102zM-145 620q-30 0 -54 9.5t-40 28.5t-22 47.5t1 67.5l2 13h77q-3 -22 8.5 -34t47.5 -12q37 0 53 12t19 34h78l-3 -13q-13 -77 -60.5 -115t-106.5 -38z" />
    <glyph glyph-name="uni03060301" horiz-adv-x="0" 
d="M32 882l-188 -54l-19 70l175 84zM-143 620q-30 0 -54 9.5t-40 28.5t-22 47.5t1 67.5l2 13h77q-3 -22 8.5 -34t47.5 -12q37 0 53 12t19 34h78l-3 -13q-13 -77 -60.5 -115t-106.5 -38z" />
    <glyph glyph-name="uni03060303" horiz-adv-x="0" 
d="M-124 943q18 0 32 -5.5t26 -11.5t22.5 -11.5t21.5 -5.5q27 0 40 35h81q-25 -72 -60.5 -101.5t-82.5 -29.5q-18 0 -32.5 5.5t-26.5 11.5t-22.5 11.5t-21.5 5.5q-27 0 -40 -36h-81q26 73 61.5 102.5t82.5 29.5zM-144 619q-30 0 -54 9.5t-40 28.5t-22 47.5t1 67.5l2 13h77
q-3 -22 8.5 -34t47.5 -12q37 0 53 12t19 34h78l-3 -13q-13 -77 -60.5 -115t-106.5 -38z" />
    <glyph glyph-name="uni03060309" horiz-adv-x="0" 
d="M-109 1009q54 0 72 -28.5t11 -68.5q-7 -35 -35 -60.5t-64 -57.5l-44 45q32 26 43 44t13 29t-3.5 13.5t-10.5 2.5q-8 0 -15 -4.5t-14 -24.5l-80 9q6 20 14 38t22.5 32t36 22.5t54.5 8.5zM-148 617q-30 0 -54 9.5t-40 28.5t-22 47.5t1 67.5l2 13h77q-3 -22 8.5 -34
t47.5 -12q37 0 53 12t19 34h78l-3 -13q-13 -77 -60.5 -115t-106.5 -38z" />
  </font>
</defs>
</svg>
